<svg width="17" height="32" viewBox="0 0 17 32" fill="none" xmlns="http://www.w3.org/2000/svg">
<g clip-path="url(#clip0_198_2903)">
<path opacity="0.4" d="M16.5371 28C16.5371 29.1044 15.6415 30 14.5371 30H2.53711C1.43273 30 0.537109 29.1044 0.537109 28C0.537109 26.8956 1.43273 26 2.53711 26H6.53711V7.73748L3.64648 9.66248C2.72586 10.2812 1.48648 10.025 0.873047 9.11248C0.260734 8.19373 0.508791 6.94998 1.42773 6.33748L7.42773 2.33748C8.04198 1.9283 8.83086 1.8883 9.48023 2.23786C10.1309 2.58561 10.5371 3.26373 10.5371 4.00061V26.0006H14.5371C15.6434 26 16.5371 26.8937 16.5371 28Z" fill="white"/>
</g>
<defs>
<clipPath id="clip0_198_2903">
<rect width="16" height="32" fill="white" transform="translate(0.537109)"/>
</clipPath>
</defs>
</svg>
