<svg width="21" height="32" viewBox="0 0 21 32" fill="none" xmlns="http://www.w3.org/2000/svg">
<g clip-path="url(#clip0_198_2933)">
<path opacity="0.4" d="M20.5369 27.9999C20.5369 29.1043 19.6413 29.9999 18.5369 29.9999H2.53689C1.71939 29.9999 0.985016 29.5029 0.680641 28.7443C0.376953 27.9868 0.564453 27.1193 1.15527 26.5549L13.2553 14.9862C15.2153 13.1006 15.3771 9.98619 13.6185 7.89869C12.6866 6.79307 11.3773 6.14119 9.93289 6.06244C8.49939 5.98932 7.11814 6.49369 6.07002 7.49369L3.88189 9.48119C3.06439 10.2256 1.79877 10.1618 1.05689 9.34544C0.314203 8.53119 0.374766 7.26244 1.19189 6.51869L3.34502 4.56244C5.13689 2.85369 7.61939 1.93057 10.1513 2.06994C12.6719 2.20669 15.0506 3.39244 16.6763 5.32182C19.7888 9.01244 19.5013 14.5281 16.0231 17.8718L7.52314 25.9968H18.5369C19.6431 25.9999 20.5369 26.8937 20.5369 27.9999Z" fill="white"/>
</g>
<defs>
<clipPath id="clip0_198_2933">
<rect width="20" height="32" fill="white" transform="translate(0.537109)"/>
</clipPath>
</defs>
</svg>
