<svg width="21" height="32" viewBox="0 0 21 32" fill="none" xmlns="http://www.w3.org/2000/svg">
<g clip-path="url(#clip0_198_2939)">
<path opacity="0.4" d="M20.5371 21.5C20.5371 26.1863 16.7234 30 12.0371 30H7.01211C4.11586 30 1.55523 28.1544 0.693359 25.4075C0.343734 24.3594 0.911109 23.2275 1.95898 22.8781C3.00586 22.5276 4.13961 23.0959 4.48836 24.1437C4.85848 25.2544 5.89336 26 7.06523 26H12.0371C14.5184 26 16.5371 23.9813 16.5371 21.5C16.5371 19.0187 14.5184 17 12.0371 17H5.53711C4.71211 17 3.97148 16.4941 3.67273 15.7244C3.37398 14.9563 3.57836 14.0812 4.18586 13.525L12.3984 6H2.53711C1.43273 6 0.537109 5.10437 0.537109 4C0.537109 2.89562 1.43273 2 2.53711 2H17.5371C18.3621 2 19.1027 2.50587 19.4015 3.27562C19.7003 4.04437 19.4962 4.9175 18.8888 5.475L10.6763 13H12.0371C16.6684 13 20.5371 16.8125 20.5371 21.5Z" fill="white"/>
</g>
<defs>
<clipPath id="clip0_198_2939">
<rect width="20" height="32" fill="white" transform="translate(0.537109)"/>
</clipPath>
</defs>
</svg>
