<svg width="38" height="38" viewBox="0 0 38 38" fill="none" xmlns="http://www.w3.org/2000/svg">
<path d="M34.83 21.06H2.43L0 17.82L3.24 14.58H34.02L37.26 17.82L34.83 21.06Z" fill="#0E512B"/>
<path d="M32.4002 37.26H4.86023C3.96518 37.26 3.24023 36.535 3.24023 35.64V1.62C3.24023 0.72495 3.96518 0 4.86023 0H24.3002L34.0202 9.72V35.64C34.0202 36.535 33.2953 37.26 32.4002 37.26Z" fill="#E6E6E6"/>
<path d="M24.2998 0V8.1C24.2998 8.99505 25.0248 9.72 25.9198 9.72H34.0198L24.2998 0Z" fill="#B3B3B3"/>
<path d="M35.64 28.3999H1.62C0.72495 28.3999 0 27.8739 0 27.2244V17.8199H37.26V27.2244C37.26 27.8739 36.535 28.3999 35.64 28.3999Z" fill="#1B7343"/>
</svg>
