<svg width="233" height="220" viewBox="0 0 233 220" fill="none" xmlns="http://www.w3.org/2000/svg">
<g clip-path="url(#clip0_56_921)">
<path d="M34.4491 41.1036C25.7712 52.2405 20.0949 65.8252 18.6233 80.6395L7.63867 79.0543C9.40229 62.1537 15.9662 46.6808 25.9347 34.0053L34.4491 41.1036Z" stroke="#808080" stroke-width="0.859375" stroke-linecap="round" stroke-linejoin="round"/>
<path d="M130.402 169.053C119.651 173.704 107.797 176.291 95.3346 176.291C72.8923 176.291 52.4121 167.928 36.8491 154.14L44.2014 145.864C57.8081 157.905 75.7187 165.219 95.3346 165.219C106.232 165.219 116.597 162.963 125.993 158.895L130.402 169.053Z" stroke="#808080" stroke-width="0.859375" stroke-linecap="round" stroke-linejoin="round"/>
<path d="M95.3349 88.2914V0.291443C71.2575 0.291443 49.44 9.92482 33.5266 25.5317L41.0833 33.644L44.266 37.065L49.8313 43.0443L89.6061 85.768L91.9537 88.2914L92.2632 88.6236L93.3202 89.7542L93.6823 90.1447L94.2429 90.745L95.1247 91.6949L93.6297 92.132L69.3712 146.943C63.257 144.25 57.6508 140.631 52.722 136.26L91.323 92.8022L87.7023 93.857L34.6362 109.324L26.7758 111.614L22.285 112.92L11.6274 116.026C16.5679 130.887 25.3743 143.988 36.8495 154.14L44.2018 145.864C57.8085 157.905 75.7191 165.219 95.3349 165.219C106.232 165.219 116.598 162.963 125.994 158.895L124.131 154.612L120.884 147.123C115.068 149.647 108.801 151.331 102.238 152.03L95.3349 88.2914ZM95.3349 88.2914L88.4323 24.5526C76.9104 25.7765 66.2995 30.0483 57.423 36.5404L95.3349 88.2914Z" stroke="#808080" stroke-width="0.859375" stroke-linecap="round" stroke-linejoin="round"/>
<path d="M38.0408 44.0991C34.4786 48.6856 31.4594 53.715 29.0768 59.0882C26.0167 65.9942 24.0078 73.4713 23.2545 81.3097L18.6235 80.6395C20.0952 65.8252 25.7714 52.2405 34.4494 41.1036L38.0408 44.0991Z" stroke="#808080" stroke-width="0.859375" stroke-linecap="round" stroke-linejoin="round"/>
<path d="M91.3287 92.8021L92.631 91.3335L93.5128 90.3428L93.688 90.1446L95.3348 88.2914H91.9594H91.0484H71.5727H31.0972" stroke="#808080" stroke-width="0.859375" stroke-linecap="round" stroke-linejoin="round"/>
<path d="M22.9212 88.2914H18.2493H0.72998" stroke="#808080" stroke-width="0.859375" stroke-linecap="round" stroke-linejoin="round"/>
<path d="M36.8493 154.14L27.0093 165.219" stroke="#808080" stroke-width="0.859375" stroke-linecap="round" stroke-linejoin="round"/>
<path d="M44.2017 145.864L47.3026 142.374L52.7277 136.26" stroke="#808080" stroke-width="0.859375" stroke-linecap="round" stroke-linejoin="round"/>
<path d="M172.42 88.2915C172.42 119.902 153.312 147.065 125.993 158.895L124.13 154.612C129.088 152.467 133.76 149.781 138.07 146.634C148.26 139.192 156.424 129.15 161.593 117.495C165.546 108.566 167.748 98.6825 167.748 88.2915C167.748 85.669 167.608 83.0756 167.333 80.523C165.949 67.5678 161.125 55.6324 153.796 45.6435C149.977 40.4335 145.475 35.7596 140.418 31.7442L143.332 28.0901C161.055 42.1876 172.42 63.9137 172.42 88.2915Z" stroke="#808080" stroke-width="0.859375" stroke-linecap="round" stroke-linejoin="round"/>
<path d="M140.418 31.7442L135.326 38.1256C131.057 34.728 126.35 31.8666 121.293 29.6403L124.598 22.1691C130.298 24.6867 135.606 27.9153 140.418 31.7442Z" stroke="#808080" stroke-width="0.859375" stroke-linecap="round" stroke-linejoin="round"/>
<path d="M143.332 28.0901L158.988 8.45038H176.508" stroke="#808080" stroke-width="0.859375" stroke-linecap="round" stroke-linejoin="round"/>
<path d="M135.326 38.1255L95.3354 88.2914" stroke="#808080" stroke-width="0.859375" stroke-linecap="round" stroke-linejoin="round"/>
<path d="M89.729 36.5288L88.4326 24.5526C76.9107 25.7765 66.2998 30.0482 57.4233 36.5404L64.5479 46.2612C71.76 40.9929 80.3737 37.5253 89.729 36.5288Z" stroke="#808080" stroke-width="0.859375" stroke-linecap="round" stroke-linejoin="round"/>
<path d="M101.145 141.954L102.237 152.03C108.801 151.331 115.067 149.647 120.883 147.123L116.784 137.682C111.919 139.868 106.664 141.336 101.145 141.954Z" stroke="#808080" stroke-width="0.859375" stroke-linecap="round" stroke-linejoin="round"/>
<path d="M102.237 152.03C99.9716 152.275 97.6649 152.397 95.3348 152.397C86.0963 152.397 77.3132 150.451 69.377 146.943L93.6354 92.1319L91.3287 92.8021L52.7277 136.26C49.2939 133.23 46.1872 129.826 43.4775 126.126C39.74 121.044 36.7442 115.391 34.6361 109.324C33.0652 104.819 31.9907 100.081 31.4651 95.1799C31.2198 92.9187 31.0972 90.6167 31.0972 88.2914C31.0972 86.3333 31.1848 84.3926 31.3658 82.4811C31.9965 75.3828 33.7951 68.6225 36.5632 62.3868C38.6305 57.7129 41.2409 53.3362 44.3184 49.3325C46.0178 47.1179 47.8632 45.014 49.8312 43.0442C52.1846 40.684 54.7249 38.5044 57.4229 36.5404L95.3348 88.2914L102.237 152.03Z" stroke="#009FDC" stroke-width="0.859375" stroke-linecap="round" stroke-linejoin="round"/>
<path d="M126.285 18.3577L124.598 22.1691" stroke="#808080" stroke-width="0.859375" stroke-linecap="round" stroke-linejoin="round"/>
<path d="M121.293 29.6403L95.3354 88.2914" stroke="#808080" stroke-width="0.859375" stroke-linecap="round" stroke-linejoin="round"/>
<path d="M87.1006 12.285L87.5503 16.4403L88.4321 24.5526" stroke="#808080" stroke-width="0.859375" stroke-linecap="round" stroke-linejoin="round"/>
<path d="M95.3343 88.2914L25.2568 57.404" stroke="#808080" stroke-width="0.859375" stroke-linecap="round" stroke-linejoin="round"/>
<path d="M31.4645 95.1799L23.3355 96.0599C23.0611 93.5073 22.9209 90.9139 22.9209 88.2914H31.0966C31.0966 90.6167 31.2192 92.9187 31.4645 95.1799Z" stroke="#808080" stroke-width="0.859375" stroke-linecap="round" stroke-linejoin="round"/>
<path d="M23.3361 96.0599L19.1724 96.5087" stroke="#808080" stroke-width="0.859375" stroke-linecap="round" stroke-linejoin="round"/>
<path d="M95.335 88.2914L33.4917 133.41" stroke="#808080" stroke-width="0.859375" stroke-linecap="round" stroke-linejoin="round"/>
<path d="M64.3843 158.225L66.072 154.414L69.3773 146.943" stroke="#808080" stroke-width="0.859375" stroke-linecap="round" stroke-linejoin="round"/>
<path d="M93.6357 92.1319L93.9044 91.52L94.1788 90.9022L94.2489 90.7449L95.3351 88.2914" stroke="#808080" stroke-width="0.859375" stroke-linecap="round" stroke-linejoin="round"/>
<path d="M104.164 174.613L103.119 160.143L102.237 152.03" stroke="#808080" stroke-width="0.859375" stroke-linecap="round" stroke-linejoin="round"/>
<path d="M140.546 150.008L138.07 146.634L133.247 140.042" stroke="#808080" stroke-width="0.859375" stroke-linecap="round" stroke-linejoin="round"/>
<path d="M95.3354 88.2914L165.413 119.179" stroke="#808080" stroke-width="0.859375" stroke-linecap="round" stroke-linejoin="round"/>
<path d="M95.3354 88.2914L171.498 80.0742" stroke="#808080" stroke-width="0.859375" stroke-linecap="round" stroke-linejoin="round"/>
<path d="M157.178 43.1725L153.797 45.6435" stroke="#808080" stroke-width="0.859375" stroke-linecap="round" stroke-linejoin="round"/>
<path d="M147.193 50.4572L95.3354 88.2914" stroke="#808080" stroke-width="0.859375" stroke-linecap="round" stroke-linejoin="round"/>
<path d="M95.3343 39.9031C88.163 46.5759 69.8086 53.307 48.4058 67.5969C48.4058 67.5969 49.7431 115.88 95.3343 142.269V39.9031Z" fill="black" stroke="black" stroke-width="0.859375" stroke-linecap="round" stroke-linejoin="round"/>
<path d="M95.3345 39.9031C102.506 46.5759 120.86 53.307 142.263 67.5969C142.263 67.5969 140.926 115.88 95.3345 142.269V39.9031Z" fill="black" stroke="black" stroke-width="0.859375" stroke-linecap="round" stroke-linejoin="round"/>
<path d="M95.3341 44.0175C86.6796 50.0143 71.6771 55.7256 51.8511 68.9664C51.8511 68.9664 53.0891 113.707 95.3341 138.16C137.579 113.707 138.823 68.9664 138.823 68.9664C118.991 55.7256 104.059 50.0143 95.3341 44.0175Z" fill="#009FDC" stroke="black" stroke-width="0.859375" stroke-linecap="round" stroke-linejoin="round"/>
<path d="M138.818 68.9664C118.986 55.7256 104.054 50.0143 95.3291 44.0175V138.16C137.574 113.707 138.818 68.9664 138.818 68.9664Z" fill="#009FDC" stroke="black" stroke-width="0.859375" stroke-linecap="round" stroke-linejoin="round"/>
<path d="M111.803 89.1247H79.3918C77.9027 89.1247 76.6997 87.9475 76.6997 86.4906V71.5772C76.6997 61.396 85.1791 53.1147 95.5973 53.1147C106.015 53.1147 114.495 61.396 114.495 71.5772V86.4906C114.495 87.9417 113.292 89.1247 111.803 89.1247ZM82.084 83.8622H109.105V71.5772C109.105 64.2983 103.043 58.3772 95.5914 58.3772C88.1399 58.3772 82.0782 64.2983 82.0782 71.5772V83.8622H82.084Z" fill="white" stroke="black" stroke-width="0.859375" stroke-linecap="round" stroke-linejoin="round"/>
<path d="M115.967 81.9391H74.7026V116.003H115.967V81.9391Z" fill="white" stroke="black" stroke-width="0.859375" stroke-linecap="round" stroke-linejoin="round"/>
<path d="M99.6212 96.0832C99.6212 93.6588 97.6123 91.6948 95.1304 91.6948C92.6485 91.6948 90.6396 93.6588 90.6396 96.0832C90.6396 97.7499 91.5915 99.2069 92.9989 99.947L92.2456 107.686H98.0211L97.2678 99.947C98.6752 99.2069 99.6271 97.7558 99.6271 96.0832H99.6212Z" fill="black" stroke="black" stroke-width="0.859375" stroke-linecap="round" stroke-linejoin="round"/>
<path d="M197.28 15.6419H209.006V8.4504H202.203L201.508 6.69623H197.28V15.6419Z" fill="black" stroke="black" stroke-width="0.859375" stroke-miterlimit="10"/>
<path d="M197.28 27.2626H209.006V20.0711H202.203L201.508 18.3169H197.28V27.2626Z" fill="black" stroke="black" stroke-width="0.859375" stroke-miterlimit="10"/>
<path d="M197.28 38.8891H209.006V31.6976H202.203L201.508 29.9376H197.28V38.8891Z" fill="black" stroke="black" stroke-width="0.859375" stroke-miterlimit="10"/>
<path d="M197.28 111.801H209.006V104.609H202.203L201.508 102.855H197.28V111.801Z" fill="black" stroke="black" stroke-width="0.859375" stroke-miterlimit="10"/>
<path d="M197.28 123.422H209.006V116.23H202.203L201.508 114.476H197.28V123.422Z" fill="black" stroke="black" stroke-width="0.859375" stroke-miterlimit="10"/>
<path d="M197.28 135.048H209.006V127.856H202.203L201.508 126.096H197.28V135.048Z" fill="black" stroke="black" stroke-width="0.859375" stroke-miterlimit="10"/>
<path d="M197.28 147.351H209.006V140.159H202.203L201.508 138.405H197.28V147.351Z" fill="black" stroke="black" stroke-width="0.859375" stroke-miterlimit="10"/>
<path d="M197.28 158.971H209.006V151.78H202.203L201.508 150.026H197.28V158.971Z" fill="black" stroke="black" stroke-width="0.859375" stroke-miterlimit="10"/>
<path d="M197.28 170.598H209.006V163.406H202.203L201.508 161.646H197.28V170.598Z" fill="black" stroke="black" stroke-width="0.859375" stroke-miterlimit="10"/>
<path d="M179.866 73.378C179.767 72.2183 179.773 71.0469 179.843 69.8813" stroke="black" stroke-width="0.859375" stroke-linecap="round" stroke-linejoin="round"/>
<path d="M183.669 73.0809C183.581 72.096 183.587 71.1111 183.645 70.1262" stroke="black" stroke-width="0.859375" stroke-linecap="round" stroke-linejoin="round"/>
<path d="M179.791 71.6297L183.604 71.6005" stroke="black" stroke-width="0.859375" stroke-linecap="round" stroke-linejoin="round"/>
<path d="M179.873 69.4268C179.972 68.267 180.153 67.1073 180.41 65.9709" stroke="black" stroke-width="0.859375" stroke-linecap="round" stroke-linejoin="round"/>
<path d="M183.674 69.7414C183.761 68.7565 183.913 67.7833 184.129 66.8217" stroke="black" stroke-width="0.859375" stroke-linecap="round" stroke-linejoin="round"/>
<path d="M180.083 67.6901L183.849 68.2728" stroke="black" stroke-width="0.859375" stroke-linecap="round" stroke-linejoin="round"/>
<path d="M180.515 65.5279C180.801 64.3973 181.151 63.2784 181.601 62.2003" stroke="black" stroke-width="0.859375" stroke-linecap="round" stroke-linejoin="round"/>
<path d="M184.217 66.4488C184.457 65.493 184.755 64.5489 185.134 63.6398" stroke="black" stroke-width="0.859375" stroke-linecap="round" stroke-linejoin="round"/>
<path d="M180.999 63.8437L184.626 65.0267" stroke="black" stroke-width="0.859375" stroke-linecap="round" stroke-linejoin="round"/>
<path d="M181.776 61.7807C182.231 60.7025 182.786 59.671 183.388 58.6744" stroke="black" stroke-width="0.859375" stroke-linecap="round" stroke-linejoin="round"/>
<path d="M185.28 63.2843C185.665 62.3751 186.132 61.5068 186.64 60.6617" stroke="black" stroke-width="0.859375" stroke-linecap="round" stroke-linejoin="round"/>
<path d="M182.529 60.2014L185.916 61.9497" stroke="black" stroke-width="0.859375" stroke-linecap="round" stroke-linejoin="round"/>
<path d="M183.633 58.2898C183.943 57.7944 184.276 57.3166 184.632 56.8503L185.73 55.4866" stroke="black" stroke-width="0.859375" stroke-linecap="round" stroke-linejoin="round"/>
<path d="M186.851 60.3354C187.114 59.9158 187.394 59.5079 187.698 59.1174L188.626 57.9635" stroke="black" stroke-width="0.859375" stroke-linecap="round" stroke-linejoin="round"/>
<path d="M184.626 56.8503L187.692 59.1173" stroke="black" stroke-width="0.859375" stroke-linecap="round" stroke-linejoin="round"/>
<path d="M186.016 55.137C186.413 54.7115 186.833 54.3036 187.242 53.884C187.452 53.68 187.645 53.4644 187.867 53.2721L188.538 52.7126" stroke="black" stroke-width="0.859375" stroke-linecap="round" stroke-linejoin="round"/>
<path d="M188.865 57.6662L189.905 56.6114C190.08 56.4366 190.243 56.2559 190.43 56.0927L191.003 55.6207" stroke="black" stroke-width="0.859375" stroke-linecap="round" stroke-linejoin="round"/>
<path d="M187.242 53.884L189.905 56.6114" stroke="black" stroke-width="0.859375" stroke-linecap="round" stroke-linejoin="round"/>
<path d="M188.889 52.4212C189.332 52.0424 189.788 51.6753 190.284 51.3664C190.769 51.04 191.248 50.7079 191.744 50.399" stroke="black" stroke-width="0.859375" stroke-linecap="round" stroke-linejoin="round"/>
<path d="M191.295 55.3701C191.669 55.0496 192.048 54.7349 192.475 54.4785C192.889 54.2046 193.286 53.919 193.707 53.6567" stroke="black" stroke-width="0.859375" stroke-linecap="round" stroke-linejoin="round"/>
<path d="M190.284 51.3605L192.474 54.4784" stroke="black" stroke-width="0.859375" stroke-linecap="round" stroke-linejoin="round"/>
<path d="M192.147 50.1775L193.695 49.3499C194.226 49.111 194.77 48.8895 195.307 48.6622" stroke="black" stroke-width="0.859375" stroke-linecap="round" stroke-linejoin="round"/>
<path d="M194.045 53.4761L195.348 52.7767L196.714 52.1998" stroke="black" stroke-width="0.859375" stroke-linecap="round" stroke-linejoin="round"/>
<path d="M193.695 49.3441L195.348 52.7767" stroke="black" stroke-width="0.859375" stroke-linecap="round" stroke-linejoin="round"/>
<path d="M195.727 48.4816C196.27 48.2659 196.837 48.1203 197.391 47.9396L198.226 47.6832L199.085 47.5025" stroke="black" stroke-width="0.859375" stroke-linecap="round" stroke-linejoin="round"/>
<path d="M197.07 52.0482C197.526 51.8617 198.011 51.7451 198.478 51.5936L199.184 51.3722L199.908 51.2206" stroke="black" stroke-width="0.859375" stroke-linecap="round" stroke-linejoin="round"/>
<path d="M197.391 47.9396L198.477 51.5936" stroke="black" stroke-width="0.859375" stroke-linecap="round" stroke-linejoin="round"/>
<path d="M199.535 47.4092C200.107 47.281 200.679 47.1644 201.263 47.1237C201.841 47.0654 202.425 46.9838 203.004 46.943" stroke="black" stroke-width="0.859375" stroke-linecap="round" stroke-linejoin="round"/>
<path d="M200.288 51.1449C200.772 51.04 201.251 50.9351 201.748 50.9001C202.238 50.8535 202.729 50.7777 203.219 50.7486" stroke="black" stroke-width="0.859375" stroke-linecap="round" stroke-linejoin="round"/>
<path d="M201.263 47.1237L201.753 50.9001" stroke="black" stroke-width="0.859375" stroke-linecap="round" stroke-linejoin="round"/>
<path d="M203.465 46.9373L205.217 46.9139L206.963 47.0538" stroke="black" stroke-width="0.859375" stroke-linecap="round" stroke-linejoin="round"/>
<path d="M203.611 50.7428L205.094 50.7195L206.572 50.8419" stroke="black" stroke-width="0.859375" stroke-linecap="round" stroke-linejoin="round"/>
<path d="M205.217 46.9139L205.094 50.7195" stroke="black" stroke-width="0.859375" stroke-linecap="round" stroke-linejoin="round"/>
<path d="M207.419 47.0887C207.997 47.1587 208.569 47.2811 209.148 47.3801C209.434 47.4326 209.726 47.4792 210.012 47.5433L210.859 47.7823" stroke="black" stroke-width="0.859375" stroke-linecap="round" stroke-linejoin="round"/>
<path d="M206.957 50.871C207.448 50.9292 207.932 51.04 208.417 51.1216C208.662 51.1682 208.902 51.2032 209.147 51.2556L209.859 51.4596" stroke="black" stroke-width="0.859375" stroke-linecap="round" stroke-linejoin="round"/>
<path d="M209.147 47.3802L208.417 51.1158" stroke="black" stroke-width="0.859375" stroke-linecap="round" stroke-linejoin="round"/>
<path d="M211.296 47.9046C212.435 48.1785 213.497 48.6797 214.59 49.0993" stroke="black" stroke-width="0.859375" stroke-linecap="round" stroke-linejoin="round"/>
<path d="M210.228 51.5587C211.191 51.7801 212.085 52.223 213.007 52.5669" stroke="black" stroke-width="0.859375" stroke-linecap="round" stroke-linejoin="round"/>
<path d="M212.96 48.4525L211.629 52.0249" stroke="black" stroke-width="0.859375" stroke-linecap="round" stroke-linejoin="round"/>
<path d="M214.999 49.3149L216.558 50.1192C217.066 50.4047 217.545 50.7428 218.035 51.0516" stroke="black" stroke-width="0.859375" stroke-linecap="round" stroke-linejoin="round"/>
<path d="M213.352 52.7476L214.671 53.4236C215.104 53.6625 215.501 53.9539 215.921 54.2162" stroke="black" stroke-width="0.859375" stroke-linecap="round" stroke-linejoin="round"/>
<path d="M216.557 50.1133L214.665 53.4235" stroke="black" stroke-width="0.859375" stroke-linecap="round" stroke-linejoin="round"/>
<path d="M218.415 51.2964C218.917 51.5937 219.349 51.9958 219.811 52.3513C220.255 52.7301 220.745 53.0564 221.142 53.4819" stroke="black" stroke-width="0.859375" stroke-linecap="round" stroke-linejoin="round"/>
<path d="M216.243 54.426C216.675 54.6708 217.031 55.0205 217.422 55.3177C217.796 55.6382 218.217 55.9063 218.549 56.2734" stroke="black" stroke-width="0.859375" stroke-linecap="round" stroke-linejoin="round"/>
<path d="M219.81 52.3513L217.422 55.3177" stroke="black" stroke-width="0.859375" stroke-linecap="round" stroke-linejoin="round"/>
<path d="M221.469 53.8082C221.878 54.222 222.316 54.6125 222.701 55.0554L223.822 56.4016" stroke="black" stroke-width="0.859375" stroke-linecap="round" stroke-linejoin="round"/>
<path d="M218.823 56.5472C219.168 56.8969 219.542 57.2233 219.863 57.5962L220.809 58.7327" stroke="black" stroke-width="0.859375" stroke-linecap="round" stroke-linejoin="round"/>
<path d="M222.701 55.0495L219.869 57.5963" stroke="black" stroke-width="0.859375" stroke-linecap="round" stroke-linejoin="round"/>
<path d="M224.114 56.7513C224.757 57.7245 225.469 58.657 225.983 59.7118" stroke="black" stroke-width="0.859375" stroke-linecap="round" stroke-linejoin="round"/>
<path d="M221.06 59.0299C221.591 59.8575 222.21 60.6384 222.637 61.53" stroke="black" stroke-width="0.859375" stroke-linecap="round" stroke-linejoin="round"/>
<path d="M225.096 58.2024L221.884 60.2596" stroke="black" stroke-width="0.859375" stroke-linecap="round" stroke-linejoin="round"/>
<path d="M226.199 60.1139L226.608 60.889L226.947 61.6932C227.163 62.2352 227.42 62.7597 227.601 63.3192" stroke="black" stroke-width="0.859375" stroke-linecap="round" stroke-linejoin="round"/>
<path d="M222.818 61.868L223.169 62.5207L223.455 63.2025C223.636 63.6629 223.864 64.1 224.01 64.5721" stroke="black" stroke-width="0.859375" stroke-linecap="round" stroke-linejoin="round"/>
<path d="M226.953 61.6874L223.455 63.2026" stroke="black" stroke-width="0.859375" stroke-linecap="round" stroke-linejoin="round"/>
<path d="M227.741 63.7505C227.911 64.31 228.097 64.8636 228.249 65.4231L228.605 67.1364" stroke="black" stroke-width="0.859375" stroke-linecap="round" stroke-linejoin="round"/>
<path d="M224.12 64.9452C224.26 65.4172 224.424 65.8835 224.552 66.3613L224.856 67.8125" stroke="black" stroke-width="0.859375" stroke-linecap="round" stroke-linejoin="round"/>
<path d="M228.249 65.4231L224.553 66.3555" stroke="black" stroke-width="0.859375" stroke-linecap="round" stroke-linejoin="round"/>
<path d="M228.698 67.5851C228.821 68.7449 229.008 69.8988 228.979 71.0702" stroke="black" stroke-width="0.859375" stroke-linecap="round" stroke-linejoin="round"/>
<path d="M224.932 68.1854C225.026 69.1645 225.201 70.1436 225.166 71.1343" stroke="black" stroke-width="0.859375" stroke-linecap="round" stroke-linejoin="round"/>
<path d="M228.897 69.3218L225.095 69.654" stroke="black" stroke-width="0.859375" stroke-linecap="round" stroke-linejoin="round"/>
<path d="M228.991 71.5248C228.991 71.8162 229.008 72.1076 228.991 72.399L228.921 73.2731C228.862 73.8501 228.857 74.4387 228.746 75.0156" stroke="black" stroke-width="0.859375" stroke-linecap="round" stroke-linejoin="round"/>
<path d="M225.171 71.5131C225.171 71.7579 225.189 72.0085 225.171 72.2533L225.107 72.9876C225.054 73.4771 225.06 73.9725 224.961 74.4562" stroke="black" stroke-width="0.859375" stroke-linecap="round" stroke-linejoin="round"/>
<path d="M228.92 73.2673L225.119 72.9933" stroke="black" stroke-width="0.859375" stroke-linecap="round" stroke-linejoin="round"/>
<path d="M228.664 75.4586C228.553 76.0297 228.471 76.6125 228.337 77.1778L227.858 78.862" stroke="black" stroke-width="0.859375" stroke-linecap="round" stroke-linejoin="round"/>
<path d="M224.897 74.8408C224.804 75.3245 224.739 75.8141 224.623 76.2919L224.22 77.7139" stroke="black" stroke-width="0.859375" stroke-linecap="round" stroke-linejoin="round"/>
<path d="M228.331 77.1778L224.623 76.2919" stroke="black" stroke-width="0.859375" stroke-linecap="round" stroke-linejoin="round"/>
<path d="M227.729 79.2991C227.291 80.3772 226.929 81.4962 226.351 82.516" stroke="black" stroke-width="0.859375" stroke-linecap="round" stroke-linejoin="round"/>
<path d="M224.114 78.0869C223.729 78.9961 223.443 79.946 222.946 80.7968" stroke="black" stroke-width="0.859375" stroke-linecap="round" stroke-linejoin="round"/>
<path d="M227.087 80.9309L223.571 79.4564" stroke="black" stroke-width="0.859375" stroke-linecap="round" stroke-linejoin="round"/>
<path d="M226.141 82.924L225.738 83.6991C225.592 83.9496 225.423 84.1886 225.271 84.4392L224.313 85.902" stroke="black" stroke-width="0.859375" stroke-linecap="round" stroke-linejoin="round"/>
<path d="M222.765 81.1406L222.427 81.7992C222.304 82.0148 222.158 82.2129 222.03 82.4227L221.218 83.6641" stroke="black" stroke-width="0.859375" stroke-linecap="round" stroke-linejoin="round"/>
<path d="M225.265 84.4392L222.03 82.4228" stroke="black" stroke-width="0.859375" stroke-linecap="round" stroke-linejoin="round"/>
<path d="M224.021 86.2574L222.923 87.6212C222.555 88.0757 222.117 88.4662 221.714 88.8858" stroke="black" stroke-width="0.859375" stroke-linecap="round" stroke-linejoin="round"/>
<path d="M220.978 83.9613L220.05 85.1152C219.74 85.4998 219.367 85.8262 219.028 86.1817" stroke="black" stroke-width="0.859375" stroke-linecap="round" stroke-linejoin="round"/>
<path d="M222.923 87.6153L220.05 85.1152" stroke="black" stroke-width="0.859375" stroke-linecap="round" stroke-linejoin="round"/>
<path d="M221.393 89.2065C220.996 89.6377 220.523 89.9874 220.079 90.3662C219.623 90.7275 219.197 91.1355 218.695 91.4385" stroke="black" stroke-width="0.859375" stroke-linecap="round" stroke-linejoin="round"/>
<path d="M218.753 86.4557C218.426 86.8228 218.017 87.1084 217.644 87.4348C217.258 87.7378 216.902 88.0875 216.476 88.3439" stroke="black" stroke-width="0.859375" stroke-linecap="round" stroke-linejoin="round"/>
<path d="M220.079 90.3661L217.644 87.4348" stroke="black" stroke-width="0.859375" stroke-linecap="round" stroke-linejoin="round"/>
<path d="M218.315 91.6948C217.825 92.0095 217.357 92.3709 216.843 92.6448L215.302 93.4781" stroke="black" stroke-width="0.859375" stroke-linecap="round" stroke-linejoin="round"/>
<path d="M216.155 88.5536C215.74 88.8159 215.349 89.1306 214.911 89.3579L213.608 90.0572" stroke="black" stroke-width="0.859375" stroke-linecap="round" stroke-linejoin="round"/>
<path d="M216.844 92.6448L214.917 89.3579" stroke="black" stroke-width="0.859375" stroke-linecap="round" stroke-linejoin="round"/>
<path d="M214.893 93.6763C213.819 94.1308 212.75 94.6145 211.617 94.9176" stroke="black" stroke-width="0.859375" stroke-linecap="round" stroke-linejoin="round"/>
<path d="M213.27 90.2321C212.359 90.605 211.459 91.0246 210.501 91.2752" stroke="black" stroke-width="0.859375" stroke-linecap="round" stroke-linejoin="round"/>
<path d="M213.276 94.3581L211.897 90.8032" stroke="black" stroke-width="0.859375" stroke-linecap="round" stroke-linejoin="round"/>
<path d="M211.179 95.0517C210.625 95.244 210.052 95.3431 209.48 95.4655C208.908 95.5762 208.341 95.7335 207.757 95.7743" stroke="black" stroke-width="0.859375" stroke-linecap="round" stroke-linejoin="round"/>
<path d="M210.128 91.3918C209.661 91.5609 209.17 91.6366 208.691 91.7415C208.207 91.8289 207.728 91.9746 207.231 92.0038" stroke="black" stroke-width="0.859375" stroke-linecap="round" stroke-linejoin="round"/>
<path d="M209.479 95.4713L208.691 91.7415" stroke="black" stroke-width="0.859375" stroke-linecap="round" stroke-linejoin="round"/>
<path d="M207.301 95.8268C206.717 95.8793 206.139 95.9842 205.555 95.9842L203.803 96.0075" stroke="black" stroke-width="0.859375" stroke-linecap="round" stroke-linejoin="round"/>
<path d="M206.847 92.0446C206.356 92.0854 205.865 92.1844 205.369 92.1786L203.886 92.2019" stroke="black" stroke-width="0.859375" stroke-linecap="round" stroke-linejoin="round"/>
<path d="M205.556 95.9842L205.375 92.1786" stroke="black" stroke-width="0.859375" stroke-linecap="round" stroke-linejoin="round"/>
<path d="M203.348 95.9957C202.18 95.9083 201.012 95.8326 199.867 95.582" stroke="black" stroke-width="0.859375" stroke-linecap="round" stroke-linejoin="round"/>
<path d="M203.505 92.1902C202.518 92.1086 201.531 92.0561 200.568 91.8405" stroke="black" stroke-width="0.859375" stroke-linecap="round" stroke-linejoin="round"/>
<path d="M201.596 95.8559L202.028 92.0678" stroke="black" stroke-width="0.859375" stroke-linecap="round" stroke-linejoin="round"/>
<path d="M199.418 95.5004C198.84 95.4188 198.279 95.2323 197.719 95.0808C197.158 94.9118 196.586 94.7894 196.048 94.5563" stroke="black" stroke-width="0.859375" stroke-linecap="round" stroke-linejoin="round"/>
<path d="M200.189 91.7706C199.698 91.7065 199.231 91.5434 198.752 91.4151C198.279 91.2694 197.794 91.1762 197.339 90.9722" stroke="black" stroke-width="0.859375" stroke-linecap="round" stroke-linejoin="round"/>
<path d="M197.713 95.0808L198.752 91.4151" stroke="black" stroke-width="0.859375" stroke-linecap="round" stroke-linejoin="round"/>
<path d="M195.616 94.3872C195.079 94.1599 194.518 93.9851 193.999 93.717L192.439 92.9128" stroke="black" stroke-width="0.859375" stroke-linecap="round" stroke-linejoin="round"/>
<path d="M196.983 90.8323C196.528 90.64 196.055 90.4943 195.617 90.267L194.303 89.5909" stroke="black" stroke-width="0.859375" stroke-linecap="round" stroke-linejoin="round"/>
<path d="M193.999 93.717L195.617 90.267" stroke="black" stroke-width="0.859375" stroke-linecap="round" stroke-linejoin="round"/>
<path d="M192.037 92.703C191.067 92.0561 190.045 91.4733 189.146 90.7332" stroke="black" stroke-width="0.859375" stroke-linecap="round" stroke-linejoin="round"/>
<path d="M193.958 89.4103C193.14 88.8508 192.27 88.373 191.511 87.7377" stroke="black" stroke-width="0.859375" stroke-linecap="round" stroke-linejoin="round"/>
<path d="M190.565 91.7472L192.714 88.6002" stroke="black" stroke-width="0.859375" stroke-linecap="round" stroke-linejoin="round"/>
<path d="M188.783 90.4477C187.896 89.6959 187.02 88.915 186.243 88.0408" stroke="black" stroke-width="0.859375" stroke-linecap="round" stroke-linejoin="round"/>
<path d="M191.201 87.5047C190.448 86.8636 189.706 86.2109 189.052 85.4708" stroke="black" stroke-width="0.859375" stroke-linecap="round" stroke-linejoin="round"/>
<path d="M187.475 89.288L190.091 86.5198" stroke="black" stroke-width="0.859375" stroke-linecap="round" stroke-linejoin="round"/>
<path d="M185.934 87.7086C185.18 86.817 184.439 85.9078 183.814 84.9229" stroke="black" stroke-width="0.859375" stroke-linecap="round" stroke-linejoin="round"/>
<path d="M188.789 85.1852C188.153 84.4334 187.528 83.67 187.002 82.8307" stroke="black" stroke-width="0.859375" stroke-linecap="round" stroke-linejoin="round"/>
<path d="M184.824 86.3507L187.855 84.0429" stroke="black" stroke-width="0.859375" stroke-linecap="round" stroke-linejoin="round"/>
<path d="M183.557 84.5383C182.955 83.5418 182.372 82.5219 181.916 81.4496" stroke="black" stroke-width="0.859375" stroke-linecap="round" stroke-linejoin="round"/>
<path d="M186.786 82.516C186.284 81.671 185.788 80.8143 185.402 79.9052" stroke="black" stroke-width="0.859375" stroke-linecap="round" stroke-linejoin="round"/>
<path d="M182.687 83.023L186.051 81.2339" stroke="black" stroke-width="0.859375" stroke-linecap="round" stroke-linejoin="round"/>
<path d="M181.729 81.0299C181.291 79.9518 180.894 78.8503 180.602 77.7197" stroke="black" stroke-width="0.859375" stroke-linecap="round" stroke-linejoin="round"/>
<path d="M185.244 79.5497C184.876 78.6347 184.538 77.7081 184.292 76.7523" stroke="black" stroke-width="0.859375" stroke-linecap="round" stroke-linejoin="round"/>
<path d="M181.11 79.3981L184.725 78.1685" stroke="black" stroke-width="0.859375" stroke-linecap="round" stroke-linejoin="round"/>
<path d="M180.491 77.2827C180.223 76.1463 180.018 74.9982 179.907 73.8384" stroke="black" stroke-width="0.859375" stroke-linecap="round" stroke-linejoin="round"/>
<path d="M184.194 76.3794C183.966 75.4178 183.797 74.4445 183.703 73.4655" stroke="black" stroke-width="0.859375" stroke-linecap="round" stroke-linejoin="round"/>
<path d="M180.141 75.5693L183.902 74.9282" stroke="black" stroke-width="0.859375" stroke-linecap="round" stroke-linejoin="round"/>
<path d="M204.574 56.6114C207.552 56.6405 210.542 57.5613 213.135 59.4379C217.731 62.7656 219.862 68.2262 219.144 73.4771" stroke="black" stroke-width="1.71875" stroke-miterlimit="10"/>
<path d="M190.506 66.1282C190.961 64.951 191.575 63.8145 192.351 62.7422C195.294 58.6919 199.908 56.5589 204.568 56.6114" stroke="black" stroke-width="4.29688" stroke-miterlimit="10"/>
<path d="M207.08 86.071C203.22 86.7762 199.091 85.9661 195.663 83.4835C190.08 79.4448 188.141 72.2591 190.506 66.1282" stroke="black" stroke-width="1.71875" stroke-miterlimit="10"/>
<path d="M219.144 73.4771C218.823 75.8257 217.935 78.1276 216.446 80.179C214.104 83.396 210.711 85.4066 207.079 86.0651" stroke="black" stroke-width="4.29688" stroke-miterlimit="10"/>
<path d="M80.4019 160.143H92.1281V152.951H85.3248L84.6299 151.191H80.4019V160.143Z" fill="black" stroke="black" stroke-width="0.859375" stroke-miterlimit="10"/>
<path d="M80.4019 171.763H92.1281V164.572H85.3248L84.6299 162.818H80.4019V171.763Z" fill="black" stroke="black" stroke-width="0.859375" stroke-miterlimit="10"/>
<path d="M80.4019 183.384H92.1281V176.192H85.3248L84.6299 174.438H80.4019V183.384Z" fill="black" stroke="black" stroke-width="0.859375" stroke-miterlimit="10"/>
<path d="M99.0894 160.143H110.816V152.951H104.012L103.317 151.191H99.0894V160.143Z" fill="black" stroke="black" stroke-width="0.859375" stroke-miterlimit="10"/>
<path d="M99.0894 171.763H110.816V164.572H104.012L103.317 162.818H99.0894V171.763Z" fill="black" stroke="black" stroke-width="0.859375" stroke-miterlimit="10"/>
<path d="M99.0894 183.384H110.816V176.192H104.012L103.317 174.438H99.0894V183.384Z" fill="black" stroke="black" stroke-width="0.859375" stroke-miterlimit="10"/>
<path d="M80.4019 13.8644H92.1281V6.67284H85.3248L84.6299 4.91284H80.4019V13.8644Z" fill="black" stroke="black" stroke-width="0.859375" stroke-miterlimit="10"/>
<path d="M80.4019 25.485H92.1281V18.2935H85.3248L84.6299 16.5393H80.4019V25.485Z" fill="black" stroke="black" stroke-width="0.859375" stroke-miterlimit="10"/>
<path d="M80.4019 37.1057H92.1281V29.9142H85.3248L84.6299 28.16H80.4019V37.1057Z" fill="black" stroke="black" stroke-width="0.859375" stroke-miterlimit="10"/>
<path d="M99.0894 13.8644H110.816V6.67284H104.012L103.317 4.91284H99.0894V13.8644Z" fill="black" stroke="black" stroke-width="0.859375" stroke-miterlimit="10"/>
<path d="M99.0894 25.485H110.816V18.2935H104.012L103.317 16.5393H99.0894V25.485Z" fill="black" stroke="black" stroke-width="0.859375" stroke-miterlimit="10"/>
<path d="M99.0894 37.1057H110.816V29.9142H104.012L103.317 28.16H99.0894V37.1057Z" fill="black" stroke="black" stroke-width="0.859375" stroke-miterlimit="10"/>
<path d="M164.781 220C182.52 220 196.9 217.782 196.9 215.046C196.9 212.311 182.52 210.093 164.781 210.093C147.042 210.093 132.662 212.311 132.662 215.046C132.662 217.782 147.042 220 164.781 220Z" fill="black"/>
<path d="M158.819 208.234C158.819 208.234 152.687 212.167 149.329 212.896C145.971 213.624 144.949 214.644 147.723 215.956C150.497 217.267 158.965 217.704 162.907 216.83C166.849 215.956 168.309 217.121 168.747 215.373C169.185 213.624 168.893 211.73 168.601 210.419C168.309 209.108 161.155 207.068 158.819 208.234Z" fill="white" stroke="black" stroke-width="0.859375" stroke-linecap="round" stroke-linejoin="round"/>
<path d="M150.789 129.558C150.789 129.558 151.519 140.922 153.562 149.81C155.606 158.697 156.628 170.644 157.65 177.201C158.672 183.757 159.402 194.538 159.548 199.346C159.694 204.154 159.986 205.611 159.694 206.048C159.402 206.485 158.672 206.631 158.672 207.214C158.672 207.797 158.526 209.108 158.526 209.108C158.526 209.108 159.84 210.273 163.344 211.585C166.848 212.896 169.184 213.624 169.184 213.624C169.184 213.624 170.644 212.459 171.082 209.836C171.52 207.214 170.206 204.154 170.206 202.406C170.206 200.657 174.002 185.359 172.688 179.095C171.374 172.83 168.746 165.691 168.746 161.903C168.746 158.114 170.206 146.896 170.206 146.896C170.206 146.896 174.002 140.631 174.148 136.114C174.294 131.598 174.002 128.101 174.002 128.101C174.002 128.101 156.774 130.578 150.789 129.558Z" fill="black" stroke="black" stroke-width="0.859375" stroke-linecap="round" stroke-linejoin="round"/>
<path d="M153.79 88.9908C153.79 88.9908 151.653 94.4224 151.653 100.285C151.653 106.148 150.8 118.823 149.942 124.366C149.089 129.908 148.447 130.228 149.942 131.079C151.437 131.93 155.816 132.892 162.328 132.466C168.839 132.041 175.783 129.908 176.098 128.952C176.419 127.991 176.203 126.714 175.882 125.438C175.561 124.162 177.056 110.734 173.856 99.545C170.655 88.3556 168.413 82.7084 166.918 81.2165L165.423 79.7246L153.784 88.9967L153.79 88.9908Z" fill="#009FDC" stroke="black" stroke-width="0.859375" stroke-linecap="round" stroke-linejoin="round"/>
<path d="M143.758 60.6442C143.758 60.6442 143.542 64.5839 144.079 65.9709C144.616 67.3579 144.827 68.9547 144.295 70.0212C143.764 71.0877 142.695 72.364 143.443 73.005C144.19 73.6461 145.043 74.0715 145.043 74.0715C145.043 74.0715 147.18 77.9062 148.243 80.0392C149.312 82.1722 149.843 82.7025 150.912 82.2771C151.98 81.8517 153.154 81.1057 153.154 81.1057C153.154 81.1057 156.144 84.515 156.57 85.3658C156.997 86.2167 158.065 86.9627 158.065 86.9627L165.324 79.0776C165.324 79.0776 163.508 77.2652 162.761 74.1764C162.013 71.0877 161.797 70.6623 162.544 69.2752C163.292 67.8882 164.787 67.7833 163.934 64.3741C163.082 60.9648 164.256 59.8983 161.16 57.7653C158.065 55.6323 152.191 55.3176 150.485 55.3176C148.78 55.3176 147.495 55.848 146.643 56.489C145.79 57.1301 143.758 60.6442 143.758 60.6442Z" fill="white" stroke="black" stroke-width="0.859375" stroke-linecap="round" stroke-linejoin="round"/>
<path d="M150.695 52.7592C150.695 52.7592 143.01 55.2069 141.942 56.1685C140.873 57.1301 143.542 62.987 143.542 62.987L148.879 59.8983L146.637 62.5616C146.637 62.5616 145.463 62.8821 149.627 62.6665C153.79 62.4509 155.817 60.959 155.817 60.959C155.817 60.959 153.148 63.9428 153.364 64.7937C153.58 65.6445 155.075 67.0316 155.501 67.6726C155.928 68.3137 156.57 67.457 156.57 67.457C156.57 67.457 157.213 70.1203 157.423 69.4792C157.639 68.8382 157.849 66.6003 157.849 66.6003C157.849 66.6003 158.813 64.4673 160.197 65.0035C161.587 65.5338 162.334 68.9431 161.37 70.5457C160.407 72.1484 158.702 72.4631 158.702 72.4631C158.702 72.4631 160.944 74.9108 161.587 74.3804C162.229 73.8501 162.439 72.7836 162.865 72.2474C163.292 71.7171 168.629 67.1306 169.272 63.8321C169.914 60.5277 165.108 52.5378 161.37 51.7918C157.633 51.0459 150.695 52.7534 150.695 52.7534V52.7592Z" fill="black" stroke="black" stroke-width="0.859375" stroke-linecap="round" stroke-linejoin="round"/>
<path d="M144.336 66.5478L145.206 70.0503C145.299 70.4233 145.615 70.6972 146 70.7322C146.981 70.8196 148.762 70.9128 148.99 70.4524C149.311 69.8114 148.885 65.6561 148.348 65.0209C147.694 64.2341 146.199 64.8636 145.48 65.2074C145.282 65.3006 144.92 65.5512 144.634 65.7494C144.377 65.93 144.26 66.2447 144.336 66.5478Z" fill="white" stroke="black" stroke-width="0.859375" stroke-linecap="round" stroke-linejoin="round"/>
<path d="M149.095 66.7168L157.954 65.866L149.136 67.6784L149.095 66.7168Z" fill="black" stroke="black" stroke-width="0.859375" stroke-linecap="round" stroke-linejoin="round"/>
<path d="M158.17 72.4747C158.17 72.4747 159.449 76.2045 158.596 77.271C157.744 78.3375 154.964 80.0392 154.964 80.0392" fill="white"/>
<path d="M158.17 72.4747C158.17 72.4747 159.449 76.2045 158.596 77.271C157.744 78.3375 154.964 80.0392 154.964 80.0392" stroke="black" stroke-width="0.859375" stroke-linecap="round" stroke-linejoin="round"/>
<path d="M165.324 76.9505C165.324 76.9505 151.659 89.4162 151.98 89.7367C152.301 90.0573 154.737 93.7579 154.737 93.7579C154.737 93.7579 158.281 88.5012 160.769 85.7272C163.426 82.7725 167.888 78.9728 167.888 78.9728L165.324 76.9505Z" fill="black" stroke="black" stroke-width="0.859375" stroke-linecap="round" stroke-linejoin="round"/>
<path d="M133.188 110.402C133.188 110.402 129.345 110.402 128.598 111.253C127.85 112.104 129.877 112.961 130.624 113.065C131.372 113.17 133.398 112.745 133.398 112.745L133.182 110.402H133.188Z" fill="white" stroke="black" stroke-width="0.859375" stroke-linecap="round" stroke-linejoin="round"/>
<path d="M134.893 109.446C134.893 109.446 133.182 108.805 132.756 110.192C132.33 111.579 133.398 115.735 134.035 115.839C134.677 115.944 134.998 115.519 134.998 114.243C134.998 112.966 134.893 109.446 134.893 109.446Z" fill="white" stroke="black" stroke-width="0.859375" stroke-linecap="round" stroke-linejoin="round"/>
<path d="M137.883 109.231C137.883 109.231 135.641 107.954 134.788 108.91C133.935 109.872 134.893 115.519 134.893 115.519C135.536 115.839 136.604 112.11 137.562 110.938C138.526 109.767 138.736 109.341 138.736 109.341L137.883 109.237V109.231Z" fill="white" stroke="black" stroke-width="0.859375" stroke-linecap="round" stroke-linejoin="round"/>
<path d="M151.764 109.336C151.764 109.336 146.211 114.452 145.253 114.452C144.295 114.452 140.342 109.872 139.378 109.336C138.415 108.805 137.136 111.783 136.814 112.745C136.493 113.707 136.388 115.939 136.388 115.939C136.388 115.939 136.92 116.58 137.457 115.834C137.988 115.088 139.273 112.319 139.273 112.319L139.915 113.17" fill="white"/>
<path d="M151.764 109.336C151.764 109.336 146.211 114.452 145.253 114.452C144.295 114.452 140.342 109.872 139.378 109.336C138.415 108.805 137.136 111.783 136.814 112.745C136.493 113.707 136.388 115.939 136.388 115.939C136.388 115.939 136.92 116.58 137.457 115.834C137.988 115.088 139.273 112.319 139.273 112.319L139.915 113.17" stroke="black" stroke-width="0.859375" stroke-linecap="round" stroke-linejoin="round"/>
<path d="M142.905 112.961C142.905 112.961 139.594 113.491 139.063 114.452C138.531 115.414 138.42 115.519 139.594 115.624C140.768 115.729 143.542 116.049 143.974 115.519C144.4 114.989 143.332 113.071 142.905 112.961Z" fill="white" stroke="black" stroke-width="0.859375" stroke-linecap="round" stroke-linejoin="round"/>
<path d="M123.687 119.459L110.448 90.5875L118.559 91.013L129.982 118.077L123.687 119.459Z" fill="#7D7D7D" stroke="black" stroke-width="0.859375" stroke-linecap="round" stroke-linejoin="round"/>
<path d="M129.234 116.049L123.365 118.608H155.502L151.122 115.84L129.234 116.049Z" fill="#7D7D7D" stroke="black" stroke-width="0.859375" stroke-linecap="round" stroke-linejoin="round"/>
<path d="M164.039 88.7751C164.039 88.7751 159.981 89.5211 159.344 93.146C158.702 96.7709 160.518 110.618 160.518 110.938V113.497C160.518 114.138 163.082 113.922 166.072 115.309C169.062 116.696 170.878 118.934 170.878 117.227C170.878 115.519 170.451 95.0634 170.451 95.0634" fill="black"/>
<path d="M164.039 88.7751C164.039 88.7751 159.981 89.5211 159.344 93.146C158.702 96.7709 160.518 110.618 160.518 110.938V113.497C160.518 114.138 163.082 113.922 166.072 115.309C169.062 116.696 170.878 118.934 170.878 117.227C170.878 115.519 170.451 95.0634 170.451 95.0634" stroke="black" stroke-width="0.859375" stroke-linecap="round" stroke-linejoin="round"/>
<path d="M170.662 103.263L172.367 97.4062" stroke="black" stroke-width="0.859375" stroke-linecap="round" stroke-linejoin="round"/>
<path d="M158.492 111.789L159.023 116.37C159.023 116.37 170.662 123.188 170.983 122.979C171.304 122.763 171.625 122.128 171.625 121.061C171.625 119.995 173.336 114.453 171.304 113.176C169.278 111.9 161.803 111.684 161.803 111.684C161.803 111.684 159.665 111.259 158.492 111.789Z" fill="black" stroke="black" stroke-width="0.859375" stroke-linecap="round" stroke-linejoin="round"/>
<path d="M159.875 116.16C159.875 116.16 148.879 120.1 141.725 120.531C134.572 120.956 133.719 120.531 133.719 120.531C133.719 120.531 133.077 117.972 132.008 117.337C130.939 116.696 127.523 117.232 126.881 116.807C126.238 116.382 126.238 114.994 125.812 114.569C125.386 114.144 123.464 114.353 123.464 114.353C123.464 114.353 122.501 114.884 122.501 115.63C122.501 116.376 121.858 121.172 122.717 121.597C123.575 122.023 134.677 124.156 138.841 124.156C143.004 124.156 155.28 125.327 161.581 124.371C167.882 123.41 170.229 122.664 170.013 120.962C169.797 119.255 161.902 115.74 159.87 116.166L159.875 116.16Z" fill="white" stroke="black" stroke-width="0.859375" stroke-linecap="round" stroke-linejoin="round"/>
<path d="M122.939 114.983L123.149 120.63" stroke="black" stroke-width="0.859375" stroke-linecap="round" stroke-linejoin="round"/>
<path d="M124.644 114.452L124.965 119.995" stroke="black" stroke-width="0.859375" stroke-linecap="round" stroke-linejoin="round"/>
<path d="M126.887 116.795C126.887 116.795 126.46 118.072 127.208 118.608C127.955 119.138 130.84 119.569 130.84 119.569" fill="white"/>
<path d="M126.887 116.795C126.887 116.795 126.46 118.072 127.208 118.608C127.955 119.138 130.84 119.569 130.84 119.569" stroke="black" stroke-width="0.859375" stroke-linecap="round" stroke-linejoin="round"/>
<path d="M158.707 101.136H153.58V109.551H158.707V101.136Z" fill="white" stroke="black" stroke-width="0.859375" stroke-linecap="round" stroke-linejoin="round"/>
</g>
<defs>
<clipPath id="clip0_56_921">
<rect width="232.891" height="220" fill="white"/>
</clipPath>
</defs>
</svg>
