<svg width="358" height="339" viewBox="0 0 358 339" fill="none" xmlns="http://www.w3.org/2000/svg">
<path d="M22.1104 155.202L36.1629 290.515" stroke="black" stroke-width="2" stroke-miterlimit="10"/>
<path d="M33.9006 264.614L27.5332 257.854" stroke="black" stroke-width="2" stroke-miterlimit="10"/>
<path d="M29.468 259.883C29.468 259.883 29.6508 256.889 26.9317 254.455C25.2941 252.985 16.695 249.348 15.8801 252.395C14.9889 255.71 23.8013 262.21 29.468 259.883Z" fill="black" stroke="black" stroke-miterlimit="10"/>
<path d="M29.4679 259.883L21.2725 254.753" stroke="black" stroke-width="0.5" stroke-miterlimit="10"/>
<path d="M35.4929 280.003L29.1255 273.243" stroke="black" stroke-width="2" stroke-miterlimit="10"/>
<path d="M31.0602 275.271C31.0602 275.271 31.243 272.278 28.5239 269.843C26.8864 268.373 18.2873 264.737 17.4724 267.784C16.5812 271.099 25.3935 277.599 31.0602 275.271Z" fill="black" stroke="black" stroke-miterlimit="10"/>
<path d="M31.0603 275.271L22.8726 270.142" stroke="black" stroke-width="0.5" stroke-miterlimit="10"/>
<path d="M30.0012 227.069L23.6338 220.309" stroke="black" stroke-width="2" stroke-miterlimit="10"/>
<path d="M25.5686 222.33C25.5686 222.33 25.7513 219.337 23.0322 216.902C21.3947 215.432 12.7956 211.796 11.9807 214.843C11.0895 218.158 19.9018 224.658 25.5686 222.33Z" fill="black" stroke="black" stroke-miterlimit="10"/>
<path d="M25.5684 222.33L17.373 217.201" stroke="black" stroke-width="0.5" stroke-miterlimit="10"/>
<path d="M31.6006 242.458L25.2256 235.698" stroke="black" stroke-width="2" stroke-miterlimit="10"/>
<path d="M27.1603 237.719C27.1603 237.719 27.3431 234.725 24.624 232.291C22.9865 230.821 14.3874 227.184 13.5724 230.231C12.6813 233.546 21.4936 240.046 27.1603 237.719Z" fill="black" stroke="black" stroke-miterlimit="10"/>
<path d="M27.1604 237.719L18.9727 232.589" stroke="black" stroke-width="0.5" stroke-miterlimit="10"/>
<path d="M27.404 202.072L21.0366 195.312" stroke="black" stroke-width="2" stroke-miterlimit="10"/>
<path d="M22.9714 197.333C22.9714 197.333 23.1542 194.34 20.4351 191.905C18.7975 190.435 10.1985 186.799 9.38348 189.846C8.49235 193.161 17.3047 199.661 22.9714 197.333Z" fill="black" stroke="black" stroke-miterlimit="10"/>
<path d="M22.9715 197.333L14.7837 192.204" stroke="black" stroke-width="0.5" stroke-miterlimit="10"/>
<path d="M24.7991 176.961L18.4316 170.201" stroke="black" stroke-width="2" stroke-miterlimit="10"/>
<path d="M20.3664 172.229C20.3664 172.229 20.5492 169.236 17.8301 166.801C16.1925 165.331 7.59347 161.695 6.7785 164.742C5.88737 168.057 14.6997 174.557 20.3664 172.229Z" fill="black" stroke="black" stroke-miterlimit="10"/>
<path d="M20.3663 172.229L12.1709 167.1" stroke="black" stroke-width="0.5" stroke-miterlimit="10"/>
<path d="M32.8271 255.511L37.6713 247.572" stroke="black" stroke-width="2" stroke-miterlimit="10"/>
<path d="M36.1934 249.961C36.1934 249.961 35.4013 247.074 37.5568 244.119C38.8516 242.343 46.5291 236.999 47.9534 239.809C49.4995 242.864 42.2257 251.056 36.1934 249.961Z" fill="black" stroke="black" stroke-miterlimit="10"/>
<path d="M36.1938 249.961L43.5667 242.871" stroke="black" stroke-width="0.5" stroke-miterlimit="10"/>
<path d="M28.6226 215.019L33.4667 207.08" stroke="black" stroke-width="2" stroke-miterlimit="10"/>
<path d="M31.9888 209.468C31.9888 209.468 31.1967 206.582 33.3522 203.627C34.647 201.85 42.3245 196.507 43.7488 199.316C45.2949 202.371 38.0211 210.563 31.9888 209.468Z" fill="black" stroke="black" stroke-miterlimit="10"/>
<path d="M31.9893 209.468L39.3621 202.379" stroke="black" stroke-width="0.5" stroke-miterlimit="10"/>
<path d="M26.7793 197.219L31.6158 189.287" stroke="black" stroke-width="2" stroke-miterlimit="10"/>
<path d="M30.1382 191.668C30.1382 191.668 29.3461 188.782 31.5016 185.826C32.7964 184.05 40.4739 178.706 41.8982 181.516C43.4443 184.571 36.1705 192.763 30.1382 191.668Z" fill="black" stroke="black" stroke-miterlimit="10"/>
<path d="M30.1382 191.668L37.5186 184.586" stroke="black" stroke-width="0.5" stroke-miterlimit="10"/>
<path d="M24.0684 171.135L28.9125 163.195" stroke="black" stroke-width="2" stroke-miterlimit="10"/>
<path d="M27.4346 165.576C27.4346 165.576 26.6425 162.69 28.798 159.735C30.0928 157.959 37.7703 152.615 39.1946 155.424C40.7407 158.479 33.4669 166.671 27.4346 165.576Z" fill="black" stroke="black" stroke-miterlimit="10"/>
<path d="M27.4346 165.576L34.8074 158.495" stroke="black" stroke-width="0.5" stroke-miterlimit="10"/>
<path d="M21.9966 154.452C21.9966 154.452 21.2045 151.566 23.36 148.611C24.6548 146.834 32.3323 141.491 33.7566 144.3C35.3027 147.355 28.0289 155.547 21.9966 154.452Z" fill="black" stroke="black" stroke-miterlimit="10"/>
<path d="M21.9966 154.452L29.3694 147.37" stroke="black" stroke-width="0.5" stroke-miterlimit="10"/>
<path d="M22.423 154.758C22.423 154.758 19.483 155.248 16.7868 152.783C15.1644 151.298 10.6859 143.068 13.6107 141.942C16.7944 140.717 24.1367 148.848 22.4154 154.758H22.423Z" fill="black" stroke="black" stroke-miterlimit="10"/>
<path d="M22.423 154.758L16.1851 146.643" stroke="black" stroke-width="0.5" stroke-miterlimit="10"/>
<path d="M59.165 173.837L45.1963 309.157" stroke="black" stroke-width="2" stroke-miterlimit="10"/>
<path d="M48.2887 283.349L43.437 275.409" stroke="black" stroke-width="2" stroke-miterlimit="10"/>
<path d="M44.9145 277.798C44.9145 277.798 45.7066 274.912 43.5435 271.956C42.2411 270.18 34.5713 264.844 33.147 267.654C31.6008 270.708 38.8822 278.9 44.9069 277.798H44.9145Z" fill="black" stroke="black" stroke-miterlimit="10"/>
<path d="M44.9146 277.798L37.9531 271.076" stroke="black" stroke-width="0.5" stroke-miterlimit="10"/>
<path d="M52.1657 245.796L47.314 237.857" stroke="black" stroke-width="2" stroke-miterlimit="10"/>
<path d="M48.7915 240.245C48.7915 240.245 49.5836 237.359 47.4205 234.404C46.1181 232.628 38.4482 227.291 37.0239 230.101C35.4778 233.156 42.7592 241.348 48.7839 240.245H48.7915Z" fill="black" stroke="black" stroke-miterlimit="10"/>
<path d="M48.7916 240.245L41.8301 233.523" stroke="black" stroke-width="0.5" stroke-miterlimit="10"/>
<path d="M50.5736 261.184L45.7295 253.245" stroke="black" stroke-width="2" stroke-miterlimit="10"/>
<path d="M47.207 255.634C47.207 255.634 47.9991 252.747 45.836 249.792C44.5336 248.016 36.8637 242.68 35.4395 245.49C33.8933 248.544 41.1747 256.736 47.1994 255.634H47.207Z" fill="black" stroke="black" stroke-miterlimit="10"/>
<path d="M47.2071 255.634L40.2456 248.919" stroke="black" stroke-width="0.5" stroke-miterlimit="10"/>
<path d="M54.7477 220.791L49.896 212.86" stroke="black" stroke-width="2" stroke-miterlimit="10"/>
<path d="M51.3735 215.241C51.3735 215.241 52.1656 212.354 50.0025 209.399C48.7001 207.623 41.0302 202.287 39.606 205.097C38.0598 208.151 45.3412 216.343 51.3659 215.241H51.3735Z" fill="black" stroke="black" stroke-miterlimit="10"/>
<path d="M51.3736 215.241L44.4121 208.526" stroke="black" stroke-width="0.5" stroke-miterlimit="10"/>
<path d="M57.3371 195.687L52.4854 187.756" stroke="black" stroke-width="2" stroke-miterlimit="10"/>
<path d="M53.9707 190.137C53.9707 190.137 54.7628 187.25 52.5997 184.295C51.2973 182.519 43.6274 177.183 42.2031 179.993C40.657 183.047 47.9384 191.239 53.9631 190.137H53.9707Z" fill="black" stroke="black" stroke-miterlimit="10"/>
<path d="M53.9706 190.137L47.0015 183.422" stroke="black" stroke-width="0.5" stroke-miterlimit="10"/>
<path d="M49.1035 274.215L55.4709 267.447" stroke="black" stroke-width="2" stroke-miterlimit="10"/>
<path d="M53.5364 269.476C53.5364 269.476 53.3536 266.482 56.0651 264.048C57.7027 262.578 66.3017 258.934 67.1167 261.981C68.0078 265.296 59.2031 271.803 53.5288 269.476H53.5364Z" fill="black" stroke="black" stroke-miterlimit="10"/>
<path d="M53.5361 269.476L62.2037 264.071" stroke="black" stroke-width="0.5" stroke-miterlimit="10"/>
<path d="M53.2852 233.715L59.6526 226.954" stroke="black" stroke-width="2" stroke-miterlimit="10"/>
<path d="M57.7181 228.983C57.7181 228.983 57.5353 225.99 60.2468 223.555C61.8843 222.085 70.4834 218.441 71.2984 221.488C72.1895 224.803 63.3848 231.311 57.7104 228.983H57.7181Z" fill="black" stroke="black" stroke-miterlimit="10"/>
<path d="M57.7178 228.983L66.3854 223.57" stroke="black" stroke-width="0.5" stroke-miterlimit="10"/>
<path d="M55.1206 215.922L61.488 209.154" stroke="black" stroke-width="2" stroke-miterlimit="10"/>
<path d="M59.5535 211.183C59.5535 211.183 59.3707 208.19 62.0822 205.755C63.7198 204.285 72.3188 200.641 73.1338 203.688C74.0249 207.003 65.2202 213.51 59.5459 211.183H59.5535Z" fill="black" stroke="black" stroke-miterlimit="10"/>
<path d="M59.5532 211.183L68.2208 205.778" stroke="black" stroke-width="0.5" stroke-miterlimit="10"/>
<path d="M57.8169 189.83L64.1767 183.063" stroke="black" stroke-width="2" stroke-miterlimit="10"/>
<path d="M62.2498 185.091C62.2498 185.091 62.067 182.098 64.7785 179.663C66.4161 178.193 75.0151 174.549 75.8301 177.596C76.7212 180.911 67.9165 187.419 62.2422 185.091H62.2498Z" fill="black" stroke="black" stroke-miterlimit="10"/>
<path d="M62.25 185.091L70.9176 179.686" stroke="black" stroke-width="0.5" stroke-miterlimit="10"/>
<path d="M59.2034 173.079C59.2034 173.079 59.0206 170.086 61.7321 167.651C63.3697 166.181 71.9687 162.537 72.7837 165.584C73.6748 168.899 64.8701 175.407 59.1958 173.079H59.2034Z" fill="black" stroke="black" stroke-miterlimit="10"/>
<path d="M59.2031 173.079L67.8707 167.674" stroke="black" stroke-width="0.5" stroke-miterlimit="10"/>
<path d="M59.5613 173.47C59.5613 173.47 56.5832 173.339 54.4506 170.369C53.171 168.585 50.4672 159.605 53.5671 159.099C56.9336 158.556 62.4556 168.042 59.5613 173.462V173.47Z" fill="black" stroke="black" stroke-miterlimit="10"/>
<path d="M59.5615 173.47L55.1211 164.236" stroke="black" stroke-width="0.5" stroke-miterlimit="10"/>
<path d="M43.1626 118.737V289.856" stroke="black" stroke-width="2" stroke-miterlimit="10"/>
<path d="M43.292 264.124L37.6558 256.736" stroke="black" stroke-width="2" stroke-miterlimit="10"/>
<path d="M39.3773 258.949C39.3773 258.949 39.8648 255.994 37.4198 253.283C35.9422 251.653 27.7621 247.136 26.6348 250.083C25.4086 253.283 33.4973 260.671 39.3773 258.949Z" fill="black" stroke="black" stroke-miterlimit="10"/>
<path d="M39.3773 258.949L31.7607 252.992" stroke="black" stroke-width="0.5" stroke-miterlimit="10"/>
<path d="M43.292 231.969L37.6558 224.581" stroke="black" stroke-width="2" stroke-miterlimit="10"/>
<path d="M39.3773 226.794C39.3773 226.794 39.8648 223.838 37.4198 221.128C35.9422 219.497 27.7621 214.98 26.6348 217.928C25.4086 221.128 33.4973 228.516 39.3773 226.794Z" fill="black" stroke="black" stroke-miterlimit="10"/>
<path d="M39.3773 226.794L31.7607 220.837" stroke="black" stroke-width="0.5" stroke-miterlimit="10"/>
<path d="M43.292 194.21L37.6558 186.822" stroke="black" stroke-width="2" stroke-miterlimit="10"/>
<path d="M39.3773 189.042C39.3773 189.042 39.8648 186.087 37.4198 183.376C35.9422 181.746 27.7621 177.229 26.6348 180.176C25.4086 183.376 33.4973 190.764 39.3773 189.042Z" fill="black" stroke="black" stroke-miterlimit="10"/>
<path d="M39.3773 189.042L31.7607 183.086" stroke="black" stroke-width="0.5" stroke-miterlimit="10"/>
<path d="M43.292 169.083L37.6558 161.687" stroke="black" stroke-width="2" stroke-miterlimit="10"/>
<path d="M39.3773 163.907C39.3773 163.907 39.8648 160.952 37.4198 158.242C35.9422 156.611 27.7621 152.094 26.6348 155.042C25.4086 158.242 33.4973 165.63 39.3773 163.907Z" fill="black" stroke="black" stroke-miterlimit="10"/>
<path d="M39.3773 163.907L31.7607 157.951" stroke="black" stroke-width="0.5" stroke-miterlimit="10"/>
<path d="M43.292 143.841L37.6558 136.445" stroke="black" stroke-width="2" stroke-miterlimit="10"/>
<path d="M39.3773 138.665C39.3773 138.665 39.8648 135.71 37.4198 133C35.9422 131.369 27.7621 126.852 26.6348 129.8C25.4086 133 33.4973 140.388 39.3773 138.665Z" fill="black" stroke="black" stroke-miterlimit="10"/>
<path d="M39.3773 138.665L31.7607 132.709" stroke="black" stroke-width="0.5" stroke-miterlimit="10"/>
<path d="M43.1704 273.947L48.8066 266.551" stroke="black" stroke-width="2" stroke-miterlimit="10"/>
<path d="M47.0928 268.771C47.0928 268.771 46.6054 265.816 49.0503 263.106C50.5279 261.475 58.7081 256.958 59.8353 259.906C61.0616 263.106 52.9728 270.494 47.0928 268.771Z" fill="black" stroke="black" stroke-miterlimit="10"/>
<path d="M47.0928 268.772L55.1587 262.494" stroke="black" stroke-width="0.5" stroke-miterlimit="10"/>
<path d="M43.1704 222.797L48.8066 215.409" stroke="black" stroke-width="2" stroke-miterlimit="10"/>
<path d="M47.0928 217.629C47.0928 217.629 46.6054 214.674 49.0503 211.964C50.5279 210.333 58.7081 205.816 59.8353 208.764C61.0616 211.964 52.9728 219.352 47.0928 217.629Z" fill="black" stroke="black" stroke-miterlimit="10"/>
<path d="M47.0928 217.629L55.1587 211.352" stroke="black" stroke-width="0.5" stroke-miterlimit="10"/>
<path d="M43.1704 197.555L48.8066 190.167" stroke="black" stroke-width="2" stroke-miterlimit="10"/>
<path d="M47.0928 192.388C47.0928 192.388 46.6054 189.432 49.0503 186.722C50.5279 185.091 58.7081 180.574 59.8353 183.522C61.0616 186.722 52.9728 194.11 47.0928 192.388Z" fill="black" stroke="black" stroke-miterlimit="10"/>
<path d="M47.0928 192.388L55.1587 186.11" stroke="black" stroke-width="0.5" stroke-miterlimit="10"/>
<path d="M43.1704 164.191L48.8066 156.802" stroke="black" stroke-width="2" stroke-miterlimit="10"/>
<path d="M47.0928 159.023C47.0928 159.023 46.6054 156.068 49.0503 153.357C50.5279 151.727 58.7081 147.21 59.8353 150.157C61.0616 153.357 52.9728 160.745 47.0928 159.023Z" fill="black" stroke="black" stroke-miterlimit="10"/>
<path d="M47.0928 159.023L55.1587 152.745" stroke="black" stroke-width="0.5" stroke-miterlimit="10"/>
<path d="M43.1699 137.961L48.8062 130.573" stroke="black" stroke-width="2" stroke-miterlimit="10"/>
<path d="M47.0928 132.793C47.0928 132.793 46.6054 129.838 49.0503 127.128C50.5279 125.497 58.7081 120.98 59.8353 123.928C61.0616 127.128 52.9728 134.516 47.0928 132.793Z" fill="black" stroke="black" stroke-miterlimit="10"/>
<path d="M47.0928 132.793L55.1587 126.515" stroke="black" stroke-width="0.5" stroke-miterlimit="10"/>
<path d="M42.835 121.156C42.835 121.156 42.3476 118.201 44.7925 115.491C46.2701 113.86 54.4502 109.343 55.5775 112.291C56.8038 115.491 48.715 122.879 42.835 121.156Z" fill="black" stroke="black" stroke-miterlimit="10"/>
<path d="M42.835 121.156L50.9009 114.878" stroke="black" stroke-width="0.5" stroke-miterlimit="10"/>
<path d="M43.2234 121.508C43.2234 121.508 40.2453 121.692 37.8233 118.951C36.3685 117.305 32.7583 108.654 35.7897 107.835C39.0876 106.947 45.5465 115.805 43.2234 121.501V121.508Z" fill="black" stroke="black" stroke-miterlimit="10"/>
<path d="M43.2234 121.508L37.8613 112.781" stroke="black" stroke-width="0.5" stroke-miterlimit="10"/>
<path d="M50.1622 334.23H32.1339L29.8794 288.463H52.4167L50.1622 334.23Z" fill="black" stroke="black" stroke-miterlimit="10"/>
<path d="M273.981 227.705C273.981 227.705 274.08 225.201 275.132 223.463C276.183 221.733 280.021 220.477 282.032 221.343C284.043 222.208 285.003 222.79 285.003 222.79C285.003 222.79 282.032 223.655 279.351 225.484C276.67 227.314 273.981 227.697 273.981 227.697V227.705Z" fill="black"/>
<path d="M269.96 228.96C269.96 228.96 272.26 226.748 272.641 223.662C273.022 220.577 269.77 224.949 269.77 224.949C269.77 224.949 268.14 218.747 267.18 222.215C266.22 225.683 269.96 228.96 269.96 228.96Z" fill="black"/>
<path d="M265.55 227.996C265.55 227.996 266.121 225.109 265.07 223.08C264.019 221.059 261.239 221.251 258.459 222.116C255.679 222.981 254.818 222.981 254.818 222.981C254.818 222.981 258.078 225.194 260.858 226.35C263.638 227.506 265.55 227.988 265.55 227.988V227.996Z" fill="black"/>
<path d="M269.93 238.377C270.067 238.377 270.181 238.262 270.181 238.124V224.351C270.181 224.214 270.067 224.099 269.93 224.099C269.792 224.099 269.678 224.214 269.678 224.351V238.124C269.678 238.262 269.792 238.377 269.93 238.377Z" fill="black"/>
<path d="M268.78 238.377C268.78 238.377 268.802 238.377 268.818 238.377C268.955 238.362 269.046 238.232 269.031 238.094C268.985 237.749 267.828 229.588 263.897 225.056C263.806 224.949 263.654 224.941 263.547 225.033C263.44 225.125 263.433 225.278 263.524 225.385C267.355 229.802 268.536 238.079 268.544 238.163C268.559 238.285 268.665 238.377 268.787 238.377H268.78Z" fill="black"/>
<path d="M271.08 238.186C271.217 238.186 271.324 238.071 271.324 237.933C271.324 237.857 271.285 230.017 275.924 226.281C276.031 226.196 276.046 226.036 275.962 225.929C275.878 225.821 275.718 225.806 275.612 225.89C270.783 229.772 270.821 237.604 270.821 237.933C270.821 238.071 270.935 238.178 271.072 238.178L271.08 238.186Z" fill="black"/>
<path d="M267.249 238.086C267.249 238.086 267.295 238.086 267.31 238.079C267.439 238.04 267.523 237.902 267.485 237.772C267.455 237.665 266.784 235.2 265.246 233.064C265.162 232.949 265.01 232.926 264.903 233.01C264.789 233.095 264.766 233.248 264.85 233.355C266.335 235.414 267.005 237.872 267.013 237.895C267.043 238.01 267.142 238.079 267.249 238.079V238.086Z" fill="black"/>
<path d="M265.741 234.258C265.741 234.258 265.84 231.563 264.69 231.173C263.54 230.782 262.488 231.747 261.62 232.329C260.759 232.903 259.8 233.485 259.8 235.215C259.8 236.945 260.47 240.13 260.47 240.13C260.47 240.13 261.43 237.145 263.06 235.797C264.69 234.45 265.741 234.258 265.741 234.258Z" fill="black"/>
<path d="M272.808 238.186C272.915 238.186 273.014 238.117 273.045 238.01C273.045 237.987 273.814 235.652 275.55 234.274C275.657 234.189 275.68 234.029 275.588 233.921C275.505 233.814 275.345 233.799 275.238 233.883C273.38 235.361 272.603 237.757 272.565 237.857C272.527 237.987 272.595 238.125 272.725 238.17C272.747 238.178 272.778 238.186 272.801 238.186H272.808Z" fill="black"/>
<path d="M273.981 235.123C273.981 235.123 273.601 233.393 274.553 232.138C275.512 230.882 277.813 231.173 278.963 232.52C280.113 233.868 281.743 237.918 281.743 237.918C281.743 237.918 279.443 236.088 276.762 236.088C274.08 236.088 273.981 235.123 273.981 235.123Z" fill="black"/>
<path d="M266.35 252.947H273.997L277.82 240.238H262.526L266.35 252.947Z" fill="black" stroke="black" stroke-linecap="round" stroke-linejoin="round"/>
<path d="M262.481 240.238H277.858V238.132H262.481V240.238Z" fill="black" stroke="black" stroke-linecap="round" stroke-linejoin="round"/>
<g opacity="0.2">
<path d="M276.214 200.197C275.696 200.028 275.536 199.638 275.681 199.224L275.719 199.117C275.886 198.681 276.237 198.535 276.709 198.681C277.166 198.849 277.905 199.224 278.461 199.615C278.278 198.972 278.133 198.099 278.133 197.578C278.133 197.104 278.4 196.767 278.88 196.767H278.986C279.459 196.767 279.733 197.096 279.733 197.578C279.733 198.099 279.588 198.972 279.405 199.615C279.984 199.217 280.708 198.849 281.165 198.681C281.622 198.535 282.01 198.681 282.155 199.14L282.178 199.201C282.322 199.676 282.178 200.028 281.66 200.197C281.187 200.342 280.38 200.465 279.695 200.488C280.213 200.886 280.852 201.46 281.165 201.881C281.431 202.256 281.393 202.693 281.043 202.961L280.959 203.022C280.563 203.313 280.174 203.229 279.862 202.815C279.573 202.402 279.222 201.713 278.956 201.008C278.666 201.713 278.316 202.402 278.027 202.815C277.714 203.229 277.326 203.313 276.93 203.022L276.846 202.961C276.473 202.693 276.45 202.256 276.724 201.881C277.036 201.468 277.676 200.886 278.194 200.472C277.532 200.472 276.709 200.35 276.229 200.204L276.214 200.197Z" fill="black"/>
<path d="M283.937 200.197C283.419 200.028 283.259 199.638 283.404 199.224L283.442 199.117C283.61 198.681 283.96 198.535 284.432 198.681C284.889 198.849 285.628 199.224 286.184 199.615C286.001 198.972 285.856 198.099 285.856 197.578C285.856 197.104 286.123 196.767 286.603 196.767H286.709C287.182 196.767 287.456 197.096 287.456 197.578C287.456 198.099 287.311 198.972 287.128 199.615C287.707 199.217 288.431 198.849 288.888 198.681C289.345 198.535 289.733 198.681 289.878 199.14L289.901 199.201C290.046 199.676 289.901 200.028 289.383 200.197C288.911 200.342 288.103 200.465 287.418 200.488C287.936 200.886 288.576 201.46 288.888 201.881C289.154 202.256 289.116 202.693 288.766 202.961L288.682 203.022C288.286 203.313 287.898 203.229 287.585 202.815C287.296 202.402 286.946 201.713 286.679 201.008C286.39 201.713 286.039 202.402 285.75 202.815C285.438 203.229 285.049 203.313 284.653 203.022L284.569 202.961C284.196 202.693 284.173 202.256 284.447 201.881C284.76 201.468 285.399 200.886 285.917 200.472C285.255 200.472 284.432 200.35 283.952 200.204L283.937 200.197Z" fill="black"/>
<path d="M291.66 200.197C291.142 200.028 290.982 199.638 291.127 199.224L291.165 199.117C291.333 198.681 291.683 198.535 292.155 198.681C292.612 198.849 293.351 199.224 293.915 199.615C293.732 198.972 293.587 198.099 293.587 197.578C293.587 197.104 293.854 196.767 294.334 196.767H294.44C294.912 196.767 295.187 197.096 295.187 197.578C295.187 198.099 295.042 198.972 294.859 199.615C295.438 199.217 296.162 198.849 296.619 198.681C297.076 198.535 297.464 198.681 297.609 199.14L297.632 199.201C297.776 199.676 297.632 200.028 297.114 200.197C296.641 200.342 295.834 200.465 295.149 200.488C295.666 200.886 296.306 201.46 296.619 201.881C296.885 202.256 296.847 202.693 296.497 202.961L296.413 203.022C296.017 203.313 295.628 203.229 295.316 202.815C295.027 202.402 294.676 201.713 294.41 201.008C294.12 201.713 293.77 202.402 293.481 202.815C293.168 203.229 292.78 203.313 292.384 203.022L292.3 202.961C291.927 202.693 291.904 202.256 292.178 201.881C292.49 201.468 293.13 200.886 293.648 200.472C292.985 200.472 292.163 200.35 291.683 200.204L291.66 200.197Z" fill="black"/>
<path d="M299.383 200.197C298.865 200.028 298.705 199.638 298.85 199.224L298.888 199.117C299.056 198.681 299.406 198.535 299.878 198.681C300.335 198.849 301.074 199.224 301.63 199.615C301.447 198.972 301.303 198.099 301.303 197.578C301.303 197.104 301.569 196.767 302.049 196.767H302.156C302.628 196.767 302.902 197.096 302.902 197.578C302.902 198.099 302.757 198.972 302.575 199.615C303.154 199.217 303.877 198.849 304.334 198.681C304.791 198.535 305.18 198.681 305.324 199.14L305.347 199.201C305.492 199.676 305.347 200.028 304.829 200.197C304.357 200.342 303.55 200.465 302.864 200.488C303.382 200.886 304.022 201.46 304.334 201.881C304.601 202.256 304.563 202.693 304.212 202.961L304.128 203.022C303.732 203.313 303.344 203.229 303.032 202.815C302.742 202.402 302.392 201.713 302.125 201.008C301.836 201.713 301.486 202.402 301.196 202.815C300.884 203.229 300.495 203.313 300.099 203.022L300.016 202.961C299.642 202.693 299.619 202.256 299.894 201.881C300.206 201.468 300.846 200.886 301.364 200.472C300.701 200.472 299.878 200.35 299.399 200.204L299.383 200.197Z" fill="black"/>
<path d="M307.106 200.197C306.589 200.028 306.429 199.638 306.573 199.224L306.611 199.117C306.779 198.681 307.129 198.535 307.602 198.681C308.059 198.849 308.797 199.224 309.353 199.615C309.171 198.972 309.026 198.099 309.026 197.578C309.026 197.104 309.292 196.767 309.772 196.767H309.879C310.351 196.767 310.625 197.096 310.625 197.578C310.625 198.099 310.481 198.972 310.298 199.615C310.877 199.217 311.6 198.849 312.05 198.681C312.507 198.535 312.895 198.681 313.04 199.14L313.063 199.201C313.207 199.676 313.063 200.028 312.545 200.197C312.072 200.342 311.265 200.465 310.58 200.488C311.098 200.886 311.737 201.46 312.05 201.881C312.316 202.256 312.278 202.693 311.928 202.961L311.844 203.022C311.448 203.313 311.059 203.229 310.747 202.815C310.458 202.402 310.107 201.713 309.841 201.008C309.551 201.713 309.201 202.402 308.912 202.815C308.599 203.229 308.211 203.313 307.815 203.022L307.731 202.961C307.358 202.693 307.335 202.256 307.609 201.881C307.921 201.468 308.561 200.886 309.079 200.472C308.417 200.472 307.594 200.35 307.114 200.204L307.106 200.197Z" fill="black"/>
<path d="M314.83 200.197C314.312 200.028 314.152 199.638 314.289 199.224L314.327 199.117C314.495 198.681 314.845 198.535 315.317 198.681C315.774 198.849 316.513 199.224 317.069 199.615C316.886 198.972 316.741 198.099 316.741 197.578C316.741 197.104 317.008 196.767 317.488 196.767H317.594C318.067 196.767 318.341 197.096 318.341 197.578C318.341 198.099 318.196 198.972 318.013 199.615C318.592 199.217 319.316 198.849 319.765 198.681C320.222 198.535 320.611 198.681 320.755 199.14L320.778 199.201C320.923 199.676 320.778 200.028 320.26 200.197C319.788 200.342 318.981 200.465 318.295 200.488C318.813 200.886 319.453 201.46 319.758 201.881C320.024 202.256 319.986 202.693 319.636 202.961L319.552 203.022C319.156 203.313 318.767 203.229 318.455 202.815C318.166 202.402 317.815 201.713 317.549 201.008C317.259 201.713 316.909 202.402 316.62 202.815C316.307 203.229 315.919 203.313 315.523 203.022L315.439 202.961C315.066 202.693 315.043 202.256 315.317 201.881C315.629 201.468 316.269 200.886 316.787 200.472C316.125 200.472 315.302 200.35 314.822 200.204L314.83 200.197Z" fill="black"/>
<path d="M322.553 200.197C322.035 200.028 321.875 199.638 322.012 199.224L322.05 199.117C322.218 198.681 322.568 198.535 323.04 198.681C323.497 198.849 324.236 199.224 324.792 199.615C324.609 198.972 324.465 198.099 324.465 197.578C324.465 197.104 324.731 196.767 325.211 196.767H325.318C325.79 196.767 326.064 197.096 326.064 197.578C326.064 198.099 325.919 198.972 325.737 199.615C326.315 199.217 327.039 198.849 327.488 198.681C327.945 198.535 328.334 198.681 328.478 199.14L328.501 199.201C328.646 199.676 328.501 200.028 327.983 200.197C327.511 200.342 326.704 200.465 326.018 200.488C326.536 200.886 327.176 201.46 327.488 201.881C327.755 202.256 327.717 202.693 327.366 202.961L327.283 203.022C326.887 203.313 326.498 203.229 326.186 202.815C325.897 202.402 325.546 201.713 325.28 201.008C324.99 201.713 324.64 202.402 324.35 202.815C324.038 203.229 323.65 203.313 323.254 203.022L323.17 202.961C322.797 202.693 322.774 202.256 323.048 201.881C323.36 201.468 324 200.886 324.518 200.472C323.855 200.472 323.033 200.35 322.553 200.204V200.197Z" fill="black"/>
<path d="M330.276 200.197C329.758 200.028 329.598 199.638 329.735 199.224L329.773 199.117C329.941 198.681 330.291 198.535 330.763 198.681C331.22 198.849 331.959 199.224 332.515 199.615C332.332 198.972 332.188 198.099 332.188 197.578C332.188 197.104 332.454 196.767 332.934 196.767H333.041C333.513 196.767 333.787 197.096 333.787 197.578C333.787 198.099 333.642 198.972 333.46 199.615C334.039 199.217 334.762 198.849 335.211 198.681C335.668 198.535 336.057 198.681 336.202 199.14L336.224 199.201C336.369 199.676 336.224 200.028 335.707 200.197C335.234 200.342 334.427 200.465 333.741 200.488C334.259 200.886 334.899 201.46 335.211 201.881C335.478 202.256 335.44 202.693 335.09 202.961L335.006 203.022C334.61 203.313 334.221 203.229 333.909 202.815C333.62 202.402 333.269 201.713 333.003 201.008C332.713 201.713 332.363 202.402 332.073 202.815C331.761 203.229 331.373 203.313 330.977 203.022L330.893 202.961C330.52 202.693 330.497 202.256 330.771 201.881C331.083 201.468 331.723 200.886 332.241 200.472C331.578 200.472 330.756 200.35 330.276 200.204V200.197Z" fill="black"/>
</g>
<g opacity="0.2">
<path d="M124.279 28.3119C123.761 28.1435 123.601 27.753 123.746 27.3396L123.784 27.2324C123.951 26.796 124.302 26.6506 124.774 26.796C125.231 26.9645 125.97 27.3396 126.526 27.7301C126.343 27.0869 126.198 26.2142 126.198 25.6936C126.198 25.2189 126.465 24.882 126.945 24.882H127.051C127.523 24.882 127.798 25.2112 127.798 25.6936C127.798 26.2142 127.653 27.0869 127.47 27.7301C128.049 27.3319 128.773 26.9645 129.23 26.796C129.687 26.6506 130.075 26.796 130.22 27.2554L130.243 27.3166C130.387 27.7913 130.243 28.1435 129.725 28.3119C129.252 28.4574 128.445 28.5799 127.76 28.6028C128.278 29.0009 128.917 29.5751 129.23 29.9962C129.496 30.3714 129.458 30.8078 129.108 31.0757L129.024 31.137C128.628 31.4279 128.239 31.3437 127.927 30.9303C127.638 30.5168 127.287 29.8278 127.021 29.1234C126.731 29.8278 126.381 30.5168 126.092 30.9303C125.779 31.3437 125.391 31.4279 124.995 31.137L124.911 31.0757C124.538 30.8078 124.515 30.3714 124.789 29.9962C125.101 29.5828 125.741 29.0009 126.259 28.5875C125.597 28.5875 124.774 28.465 124.294 28.3196L124.279 28.3119Z" fill="black"/>
<path d="M132.002 28.3119C131.484 28.1435 131.324 27.753 131.469 27.3396L131.507 27.2324C131.674 26.796 132.025 26.6506 132.497 26.796C132.954 26.9645 133.693 27.3396 134.249 27.7301C134.066 27.0869 133.921 26.2142 133.921 25.6936C133.921 25.2189 134.188 24.882 134.668 24.882H134.774C135.247 24.882 135.521 25.2112 135.521 25.6936C135.521 26.2142 135.376 27.0869 135.193 27.7301C135.772 27.3319 136.496 26.9645 136.953 26.796C137.41 26.6506 137.798 26.796 137.943 27.2554L137.966 27.3166C138.11 27.7913 137.966 28.1435 137.448 28.3119C136.976 28.4574 136.168 28.5799 135.483 28.6028C136.001 29.0009 136.64 29.5751 136.953 29.9962C137.219 30.3714 137.181 30.8078 136.831 31.0757L136.747 31.137C136.351 31.4279 135.963 31.3437 135.65 30.9303C135.361 30.5168 135.011 29.8278 134.744 29.1234C134.455 29.8278 134.104 30.5168 133.815 30.9303C133.502 31.3437 133.114 31.4279 132.718 31.137L132.634 31.0757C132.261 30.8078 132.238 30.3714 132.512 29.9962C132.825 29.5828 133.464 29.0009 133.982 28.5875C133.32 28.5875 132.497 28.465 132.017 28.3196L132.002 28.3119Z" fill="black"/>
<path d="M139.725 28.3119C139.207 28.1435 139.047 27.753 139.192 27.3396L139.23 27.2324C139.398 26.796 139.748 26.6506 140.22 26.796C140.677 26.9645 141.416 27.3396 141.98 27.7301C141.797 27.0869 141.652 26.2142 141.652 25.6936C141.652 25.2189 141.919 24.882 142.399 24.882H142.505C142.977 24.882 143.252 25.2112 143.252 25.6936C143.252 26.2142 143.107 27.0869 142.924 27.7301C143.503 27.3319 144.227 26.9645 144.684 26.796C145.14 26.6506 145.529 26.796 145.674 27.2554L145.696 27.3166C145.841 27.7913 145.696 28.1435 145.179 28.3119C144.706 28.4574 143.899 28.5799 143.214 28.6028C143.731 29.0009 144.371 29.5751 144.684 29.9962C144.95 30.3714 144.912 30.8078 144.562 31.0757L144.478 31.137C144.082 31.4279 143.693 31.3437 143.381 30.9303C143.092 30.5168 142.741 29.8278 142.475 29.1234C142.185 29.8278 141.835 30.5168 141.545 30.9303C141.233 31.3437 140.845 31.4279 140.449 31.137L140.365 31.0757C139.992 30.8078 139.969 30.3714 140.243 29.9962C140.555 29.5828 141.195 29.0009 141.713 28.5875C141.05 28.5875 140.228 28.465 139.748 28.3196L139.725 28.3119Z" fill="black"/>
<path d="M147.448 28.3119C146.93 28.1435 146.77 27.753 146.915 27.3396L146.953 27.2324C147.121 26.796 147.471 26.6506 147.943 26.796C148.4 26.9645 149.139 27.3396 149.695 27.7301C149.512 27.0869 149.368 26.2142 149.368 25.6936C149.368 25.2189 149.634 24.882 150.114 24.882H150.221C150.693 24.882 150.967 25.2112 150.967 25.6936C150.967 26.2142 150.822 27.0869 150.64 27.7301C151.218 27.3319 151.942 26.9645 152.399 26.796C152.856 26.6506 153.244 26.796 153.389 27.2554L153.412 27.3166C153.557 27.7913 153.412 28.1435 152.894 28.3119C152.422 28.4574 151.615 28.5799 150.929 28.6028C151.447 29.0009 152.087 29.5751 152.399 29.9962C152.666 30.3714 152.628 30.8078 152.277 31.0757L152.193 31.137C151.797 31.4279 151.409 31.3437 151.097 30.9303C150.807 30.5168 150.457 29.8278 150.19 29.1234C149.901 29.8278 149.55 30.5168 149.261 30.9303C148.949 31.3437 148.56 31.4279 148.164 31.137L148.08 31.0757C147.707 30.8078 147.684 30.3714 147.959 29.9962C148.271 29.5828 148.911 29.0009 149.429 28.5875C148.766 28.5875 147.943 28.465 147.464 28.3196L147.448 28.3119Z" fill="black"/>
<path d="M155.171 28.3119C154.653 28.1435 154.494 27.753 154.638 27.3396L154.676 27.2324C154.844 26.796 155.194 26.6506 155.667 26.796C156.123 26.9645 156.862 27.3396 157.418 27.7301C157.235 27.0869 157.091 26.2142 157.091 25.6936C157.091 25.2189 157.357 24.882 157.837 24.882H157.944C158.416 24.882 158.69 25.2112 158.69 25.6936C158.69 26.2142 158.546 27.0869 158.363 27.7301C158.942 27.3319 159.665 26.9645 160.115 26.796C160.572 26.6506 160.96 26.796 161.105 27.2554L161.128 27.3166C161.272 27.7913 161.128 28.1435 160.61 28.3119C160.137 28.4574 159.33 28.5799 158.645 28.6028C159.162 29.0009 159.802 29.5751 160.115 29.9962C160.381 30.3714 160.343 30.8078 159.993 31.0757L159.909 31.137C159.513 31.4279 159.124 31.3437 158.812 30.9303C158.523 30.5168 158.172 29.8278 157.906 29.1234C157.616 29.8278 157.266 30.5168 156.977 30.9303C156.664 31.3437 156.276 31.4279 155.88 31.137L155.796 31.0757C155.423 30.8078 155.4 30.3714 155.674 29.9962C155.986 29.5828 156.626 29.0009 157.144 28.5875C156.481 28.5875 155.659 28.465 155.179 28.3196L155.171 28.3119Z" fill="black"/>
<path d="M162.895 28.3119C162.377 28.1435 162.217 27.753 162.354 27.3396L162.392 27.2324C162.56 26.796 162.91 26.6506 163.382 26.796C163.839 26.9645 164.578 27.3396 165.134 27.7301C164.951 27.0869 164.806 26.2142 164.806 25.6936C164.806 25.2189 165.073 24.882 165.553 24.882H165.659C166.132 24.882 166.406 25.2112 166.406 25.6936C166.406 26.2142 166.261 27.0869 166.078 27.7301C166.657 27.3319 167.381 26.9645 167.83 26.796C168.287 26.6506 168.676 26.796 168.82 27.2554L168.843 27.3166C168.988 27.7913 168.843 28.1435 168.325 28.3119C167.853 28.4574 167.046 28.5799 166.36 28.6028C166.878 29.0009 167.518 29.5751 167.823 29.9962C168.089 30.3714 168.051 30.8078 167.701 31.0757L167.617 31.137C167.221 31.4279 166.832 31.3437 166.52 30.9303C166.231 30.5168 165.88 29.8278 165.614 29.1234C165.324 29.8278 164.974 30.5168 164.685 30.9303C164.372 31.3437 163.984 31.4279 163.588 31.137L163.504 31.0757C163.131 30.8078 163.108 30.3714 163.382 29.9962C163.694 29.5828 164.334 29.0009 164.852 28.5875C164.189 28.5875 163.367 28.465 162.887 28.3196L162.895 28.3119Z" fill="black"/>
<path d="M170.618 28.3119C170.1 28.1435 169.94 27.753 170.077 27.3396L170.115 27.2324C170.283 26.796 170.633 26.6506 171.105 26.796C171.562 26.9645 172.301 27.3396 172.857 27.7301C172.674 27.0869 172.53 26.2142 172.53 25.6936C172.53 25.2189 172.796 24.882 173.276 24.882H173.383C173.855 24.882 174.129 25.2112 174.129 25.6936C174.129 26.2142 173.984 27.0869 173.801 27.7301C174.38 27.3319 175.104 26.9645 175.553 26.796C176.01 26.6506 176.399 26.796 176.543 27.2554L176.566 27.3166C176.711 27.7913 176.566 28.1435 176.048 28.3119C175.576 28.4574 174.769 28.5799 174.083 28.6028C174.601 29.0009 175.241 29.5751 175.553 29.9962C175.82 30.3714 175.782 30.8078 175.431 31.0757L175.348 31.137C174.952 31.4279 174.563 31.3437 174.251 30.9303C173.961 30.5168 173.611 29.8278 173.344 29.1234C173.055 29.8278 172.705 30.5168 172.415 30.9303C172.103 31.3437 171.715 31.4279 171.318 31.137L171.235 31.0757C170.862 30.8078 170.839 30.3714 171.113 29.9962C171.425 29.5828 172.065 29.0009 172.583 28.5875C171.92 28.5875 171.098 28.465 170.618 28.3196V28.3119Z" fill="black"/>
<path d="M178.341 28.3119C177.823 28.1435 177.663 27.753 177.8 27.3396L177.838 27.2324C178.006 26.796 178.356 26.6506 178.828 26.796C179.285 26.9645 180.024 27.3396 180.58 27.7301C180.397 27.0869 180.253 26.2142 180.253 25.6936C180.253 25.2189 180.519 24.882 180.999 24.882H181.106C181.578 24.882 181.852 25.2112 181.852 25.6936C181.852 26.2142 181.707 27.0869 181.525 27.7301C182.103 27.3319 182.827 26.9645 183.276 26.796C183.733 26.6506 184.122 26.796 184.267 27.2554L184.289 27.3166C184.434 27.7913 184.289 28.1435 183.772 28.3119C183.299 28.4574 182.492 28.5799 181.806 28.6028C182.324 29.0009 182.964 29.5751 183.276 29.9962C183.543 30.3714 183.505 30.8078 183.155 31.0757L183.071 31.137C182.675 31.4279 182.286 31.3437 181.974 30.9303C181.685 30.5168 181.334 29.8278 181.068 29.1234C180.778 29.8278 180.428 30.5168 180.138 30.9303C179.826 31.3437 179.438 31.4279 179.042 31.137L178.958 31.0757C178.585 30.8078 178.562 30.3714 178.836 29.9962C179.148 29.5828 179.788 29.0009 180.306 28.5875C179.643 28.5875 178.821 28.465 178.341 28.3196V28.3119Z" fill="black"/>
</g>
<g opacity="0.2">
<path d="M188.928 270.701C188.41 270.532 188.25 270.142 188.395 269.729L188.433 269.621C188.601 269.185 188.951 269.039 189.423 269.185C189.88 269.353 190.619 269.729 191.175 270.119C190.992 269.476 190.848 268.603 190.848 268.082C190.848 267.608 191.114 267.271 191.594 267.271H191.701C192.173 267.271 192.447 267.6 192.447 268.082C192.447 268.603 192.302 269.476 192.12 270.119C192.698 269.721 193.422 269.353 193.879 269.185C194.336 269.039 194.724 269.185 194.869 269.644L194.892 269.706C195.037 270.18 194.892 270.532 194.374 270.701C193.902 270.846 193.094 270.969 192.409 270.992C192.927 271.39 193.567 271.964 193.879 272.385C194.146 272.76 194.107 273.197 193.757 273.465L193.673 273.526C193.277 273.817 192.889 273.733 192.577 273.319C192.287 272.906 191.937 272.217 191.67 271.512C191.381 272.217 191.03 272.906 190.741 273.319C190.429 273.733 190.04 273.817 189.644 273.526L189.56 273.465C189.187 273.197 189.164 272.76 189.439 272.385C189.751 271.972 190.391 271.39 190.909 270.976C190.246 270.976 189.423 270.854 188.943 270.708L188.928 270.701Z" fill="black"/>
<path d="M196.651 270.701C196.133 270.532 195.974 270.142 196.118 269.729L196.156 269.621C196.324 269.185 196.674 269.039 197.146 269.185C197.603 269.353 198.342 269.729 198.898 270.119C198.715 269.476 198.571 268.603 198.571 268.082C198.571 267.608 198.837 267.271 199.317 267.271H199.424C199.896 267.271 200.17 267.6 200.17 268.082C200.17 268.603 200.026 269.476 199.843 270.119C200.422 269.721 201.145 269.353 201.602 269.185C202.059 269.039 202.448 269.185 202.592 269.644L202.615 269.706C202.76 270.18 202.615 270.532 202.097 270.701C201.625 270.846 200.818 270.969 200.132 270.992C200.65 271.39 201.29 271.964 201.602 272.385C201.869 272.76 201.831 273.197 201.48 273.465L201.397 273.526C201 273.817 200.612 273.733 200.3 273.319C200.01 272.906 199.66 272.217 199.393 271.512C199.104 272.217 198.754 272.906 198.464 273.319C198.152 273.733 197.763 273.817 197.367 273.526L197.284 273.465C196.91 273.197 196.888 272.76 197.162 272.385C197.474 271.972 198.114 271.39 198.632 270.976C197.969 270.976 197.146 270.854 196.667 270.708L196.651 270.701Z" fill="black"/>
<path d="M204.375 270.701C203.857 270.532 203.697 270.142 203.841 269.729L203.879 269.621C204.047 269.185 204.397 269.039 204.87 269.185C205.327 269.353 206.065 269.729 206.629 270.119C206.446 269.476 206.302 268.603 206.302 268.082C206.302 267.608 206.568 267.271 207.048 267.271H207.155C207.627 267.271 207.901 267.6 207.901 268.082C207.901 268.603 207.756 269.476 207.573 270.119C208.152 269.721 208.876 269.353 209.333 269.185C209.79 269.039 210.178 269.185 210.323 269.644L210.346 269.706C210.491 270.18 210.346 270.532 209.828 270.701C209.356 270.846 208.548 270.969 207.863 270.992C208.381 271.39 209.021 271.964 209.333 272.385C209.599 272.76 209.561 273.197 209.211 273.465L209.127 273.526C208.731 273.817 208.343 273.733 208.03 273.319C207.741 272.906 207.391 272.217 207.124 271.512C206.835 272.217 206.484 272.906 206.195 273.319C205.883 273.733 205.494 273.817 205.098 273.526L205.014 273.465C204.641 273.197 204.618 272.76 204.892 272.385C205.205 271.972 205.845 271.39 206.362 270.976C205.7 270.976 204.877 270.854 204.397 270.708L204.375 270.701Z" fill="black"/>
<path d="M212.098 270.701C211.58 270.532 211.42 270.142 211.565 269.729L211.603 269.621C211.77 269.185 212.121 269.039 212.593 269.185C213.05 269.353 213.789 269.729 214.345 270.119C214.162 269.476 214.017 268.603 214.017 268.082C214.017 267.608 214.284 267.271 214.763 267.271H214.87C215.342 267.271 215.617 267.6 215.617 268.082C215.617 268.603 215.472 269.476 215.289 270.119C215.868 269.721 216.591 269.353 217.048 269.185C217.505 269.039 217.894 269.185 218.039 269.644L218.061 269.706C218.206 270.18 218.061 270.532 217.544 270.701C217.071 270.846 216.264 270.969 215.578 270.992C216.096 271.39 216.736 271.964 217.048 272.385C217.315 272.76 217.277 273.197 216.927 273.465L216.843 273.526C216.447 273.817 216.058 273.733 215.746 273.319C215.457 272.906 215.106 272.217 214.84 271.512C214.55 272.217 214.2 272.906 213.91 273.319C213.598 273.733 213.21 273.817 212.814 273.526L212.73 273.465C212.357 273.197 212.334 272.76 212.608 272.385C212.92 271.972 213.56 271.39 214.078 270.976C213.415 270.976 212.593 270.854 212.113 270.708L212.098 270.701Z" fill="black"/>
<path d="M219.821 270.701C219.303 270.532 219.143 270.142 219.288 269.729L219.326 269.621C219.493 269.185 219.844 269.039 220.316 269.185C220.773 269.353 221.512 269.729 222.068 270.119C221.885 269.476 221.74 268.603 221.74 268.082C221.74 267.608 222.007 267.271 222.487 267.271H222.593C223.065 267.271 223.34 267.6 223.34 268.082C223.34 268.603 223.195 269.476 223.012 270.119C223.591 269.721 224.315 269.353 224.764 269.185C225.221 269.039 225.609 269.185 225.754 269.644L225.777 269.706C225.922 270.18 225.777 270.532 225.259 270.701C224.787 270.846 223.979 270.969 223.294 270.992C223.812 271.39 224.452 271.964 224.764 272.385C225.031 272.76 224.992 273.197 224.642 273.465L224.558 273.526C224.162 273.817 223.774 273.733 223.462 273.319C223.172 272.906 222.822 272.217 222.555 271.512C222.266 272.217 221.915 272.906 221.626 273.319C221.314 273.733 220.925 273.817 220.529 273.526L220.445 273.465C220.072 273.197 220.049 272.76 220.324 272.385C220.636 271.972 221.276 271.39 221.794 270.976C221.131 270.976 220.308 270.854 219.828 270.708L219.821 270.701Z" fill="black"/>
<path d="M227.544 270.701C227.026 270.532 226.866 270.142 227.003 269.729L227.041 269.621C227.209 269.185 227.559 269.039 228.032 269.185C228.489 269.353 229.227 269.729 229.783 270.119C229.601 269.476 229.456 268.603 229.456 268.082C229.456 267.608 229.722 267.271 230.202 267.271H230.309C230.781 267.271 231.055 267.6 231.055 268.082C231.055 268.603 230.911 269.476 230.728 270.119C231.307 269.721 232.03 269.353 232.48 269.185C232.937 269.039 233.325 269.185 233.47 269.644L233.493 269.706C233.637 270.18 233.493 270.532 232.975 270.701C232.502 270.846 231.695 270.969 231.01 270.992C231.527 271.39 232.167 271.964 232.472 272.385C232.739 272.76 232.7 273.197 232.35 273.465L232.266 273.526C231.87 273.817 231.482 273.733 231.17 273.319C230.88 272.906 230.53 272.217 230.263 271.512C229.974 272.217 229.623 272.906 229.334 273.319C229.022 273.733 228.633 273.817 228.237 273.526L228.153 273.465C227.78 273.197 227.757 272.76 228.032 272.385C228.344 271.972 228.984 271.39 229.501 270.976C228.839 270.976 228.016 270.854 227.536 270.708L227.544 270.701Z" fill="black"/>
<path d="M235.267 270.701C234.749 270.532 234.589 270.142 234.726 269.729L234.765 269.621C234.932 269.185 235.282 269.039 235.755 269.185C236.212 269.353 236.95 269.729 237.506 270.119C237.324 269.476 237.179 268.603 237.179 268.082C237.179 267.608 237.446 267.271 237.925 267.271H238.032C238.504 267.271 238.778 267.6 238.778 268.082C238.778 268.603 238.634 269.476 238.451 270.119C239.03 269.721 239.753 269.353 240.203 269.185C240.66 269.039 241.048 269.185 241.193 269.644L241.216 269.706C241.36 270.18 241.216 270.532 240.698 270.701C240.226 270.846 239.418 270.969 238.733 270.992C239.251 271.39 239.89 271.964 240.203 272.385C240.469 272.76 240.431 273.197 240.081 273.465L239.997 273.526C239.601 273.817 239.213 273.733 238.9 273.319C238.611 272.906 238.26 272.217 237.994 271.512C237.704 272.217 237.354 272.906 237.065 273.319C236.752 273.733 236.364 273.817 235.968 273.526L235.884 273.465C235.511 273.197 235.488 272.76 235.762 272.385C236.075 271.972 236.714 271.39 237.232 270.976C236.57 270.976 235.747 270.854 235.267 270.708V270.701Z" fill="black"/>
<path d="M242.99 270.701C242.472 270.532 242.312 270.142 242.45 269.729L242.488 269.621C242.655 269.185 243.006 269.039 243.478 269.185C243.935 269.353 244.674 269.729 245.23 270.119C245.047 269.476 244.902 268.603 244.902 268.082C244.902 267.608 245.169 267.271 245.648 267.271H245.755C246.227 267.271 246.502 267.6 246.502 268.082C246.502 268.603 246.357 269.476 246.174 270.119C246.753 269.721 247.476 269.353 247.926 269.185C248.383 269.039 248.771 269.185 248.916 269.644L248.939 269.706C249.084 270.18 248.939 270.532 248.421 270.701C247.949 270.846 247.141 270.969 246.456 270.992C246.974 271.39 247.614 271.964 247.926 272.385C248.192 272.76 248.154 273.197 247.804 273.465L247.72 273.526C247.324 273.817 246.936 273.733 246.623 273.319C246.334 272.906 245.984 272.217 245.717 271.512C245.428 272.217 245.077 272.906 244.788 273.319C244.476 273.733 244.087 273.817 243.691 273.526L243.607 273.465C243.234 273.197 243.211 272.76 243.485 272.385C243.798 271.972 244.437 271.39 244.955 270.976C244.293 270.976 243.47 270.854 242.99 270.708V270.701Z" fill="black"/>
</g>
<g opacity="0.2">
<path d="M312.118 233.033V227.582C312.118 224.221 314.898 221.488 318.31 221.488C321.722 221.488 324.502 224.221 324.502 227.582V232.995H326.97V227.582C326.97 222.881 323.085 219.061 318.31 219.061C313.534 219.061 309.65 222.881 309.65 227.582V233.033H312.118Z" stroke="black" stroke-miterlimit="10"/>
<path d="M327.64 233.049H308.729V248.774H327.64V233.049Z" stroke="black" stroke-miterlimit="10"/>
<path d="M320.153 239.579C320.153 238.461 319.232 237.55 318.097 237.55C316.962 237.55 316.041 238.454 316.041 239.579C316.041 240.352 316.475 241.019 317.122 241.363L316.779 244.938H319.43L319.087 241.363C319.735 241.019 320.169 240.352 320.169 239.579H320.153Z" stroke="black" stroke-miterlimit="10"/>
</g>
<g opacity="0.2">
<path d="M44.1758 61.9983V56.5472C44.1758 53.1862 46.9558 50.453 50.368 50.453C53.7802 50.453 56.5603 53.1862 56.5603 56.5472V61.96H59.028V56.5472C59.028 51.8464 55.1436 48.0261 50.368 48.0261C45.5924 48.0261 41.708 51.8464 41.708 56.5472V61.9983H44.1758Z" stroke="black" stroke-miterlimit="10"/>
<path d="M59.6985 62.0135H40.7866V77.739H59.6985V62.0135Z" stroke="black" stroke-miterlimit="10"/>
<path d="M52.2116 68.5442C52.2116 67.4264 51.29 66.5153 50.1551 66.5153C49.0202 66.5153 48.0986 67.4187 48.0986 68.5442C48.0986 69.3174 48.5328 69.9835 49.1802 70.328L48.8374 73.9034H51.488L51.1452 70.328C51.7927 69.9835 52.2268 69.3174 52.2268 68.5442H52.2116Z" stroke="black" stroke-miterlimit="10"/>
</g>
<g opacity="0.2">
<path d="M280.296 20.8013V17.226C280.296 15.0211 282.116 13.2296 284.363 13.2296C286.61 13.2296 288.431 15.0211 288.431 17.226V20.7784H290.053V17.226C290.053 14.1406 287.501 11.6295 284.371 11.6295C281.24 11.6295 278.689 14.1406 278.689 17.226V20.8013H280.311H280.296Z" stroke="black" stroke-miterlimit="10"/>
<path d="M290.48 20.809H278.072V31.1293H290.48V20.809Z" stroke="black" stroke-miterlimit="10"/>
<path d="M285.567 25.0964C285.567 24.3614 284.965 23.7642 284.219 23.7642C283.472 23.7642 282.871 24.3614 282.871 25.0964C282.871 25.6017 283.16 26.0457 283.579 26.2677L283.35 28.6105H285.087L284.859 26.2677C285.277 26.0457 285.567 25.6017 285.567 25.0964Z" stroke="black" stroke-miterlimit="10"/>
</g>
<path d="M316.718 52.5355H74.2993V181.952H316.718V52.5355Z" fill="white" stroke="black" stroke-linecap="round" stroke-linejoin="round"/>
<path d="M316.718 52.5355H116.548V64.6702H316.718V52.5355Z" fill="#D9D9D9" stroke="black" stroke-linecap="round" stroke-linejoin="round"/>
<path d="M316.711 52.5355H158.995V64.6702H316.711V52.5355Z" fill="#A8A8A8" stroke="black" stroke-linecap="round" stroke-linejoin="round"/>
<path d="M316.718 40.6763H74.1011V52.8111H316.718V40.6763Z" fill="black" stroke="black" stroke-linecap="round" stroke-linejoin="round"/>
<path d="M242.541 49.1439H84.7873C83.3478 49.1439 82.1748 47.9725 82.1748 46.5179C82.1748 45.0709 83.3401 43.8918 84.7873 43.8918H242.533C243.973 43.8918 245.146 45.0632 245.146 46.5179C245.146 47.9648 243.98 49.1439 242.533 49.1439H242.541Z" fill="#A8A8A8" stroke="black" stroke-linecap="round" stroke-linejoin="round"/>
<path d="M290.152 49.075C291.363 49.075 292.345 48.0878 292.345 46.87C292.345 45.6523 291.363 44.6651 290.152 44.6651C288.94 44.6651 287.958 45.6523 287.958 46.87C287.958 48.0878 288.94 49.075 290.152 49.075Z" fill="white" stroke="black" stroke-linecap="round" stroke-linejoin="round"/>
<path d="M301.493 46.87C301.493 45.6527 300.51 44.6651 299.299 44.6651C298.088 44.6651 297.105 45.6527 297.105 46.87C297.105 48.0873 298.088 49.075 299.299 49.075C300.51 49.075 301.493 48.0873 301.493 46.87Z" fill="white" stroke="black" stroke-linecap="round" stroke-linejoin="round"/>
<path d="M308.446 49.075C309.658 49.075 310.64 48.0878 310.64 46.87C310.64 45.6523 309.658 44.6651 308.446 44.6651C307.235 44.6651 306.253 45.6523 306.253 46.87C306.253 48.0878 307.235 49.075 308.446 49.075Z" fill="white" stroke="black" stroke-linecap="round" stroke-linejoin="round"/>
<path d="M89.9585 104.351H116.913V85.9616H101.269L99.6772 81.4752H89.9585V104.351Z" fill="#D9D9D9" stroke="#069AD9" stroke-miterlimit="10"/>
<path d="M89.9585 139.867H116.913V121.478H101.269L99.6772 116.991H89.9585V139.867Z" fill="#D9D9D9" stroke="#069AD9" stroke-miterlimit="10"/>
<path d="M89.9585 175.384H116.913V156.994H101.269L99.6772 152.508H89.9585V175.384Z" fill="#D9D9D9" stroke="#069AD9" stroke-miterlimit="10"/>
<path d="M127.409 104.351H154.356V85.9616H138.712L137.128 81.4752H127.409V104.351Z" fill="#D9D9D9" stroke="#069AD9" stroke-miterlimit="10"/>
<path d="M127.409 139.867H154.356V121.478H138.712L137.128 116.991H127.409V139.867Z" fill="#D9D9D9" stroke="#069AD9" stroke-miterlimit="10"/>
<path d="M127.409 175.384H154.356V156.994H138.712L137.128 152.508H127.409V175.384Z" fill="#D9D9D9" stroke="#069AD9" stroke-miterlimit="10"/>
<path d="M164.852 104.351H191.807V85.9616H176.163L174.571 81.4752H164.852V104.351Z" fill="#D9D9D9" stroke="#069AD9" stroke-miterlimit="10"/>
<path d="M164.852 139.867H191.807V121.478H176.163L174.571 116.991H164.852V139.867Z" fill="#D9D9D9" stroke="#069AD9" stroke-miterlimit="10"/>
<path d="M164.852 175.384H191.807V156.994H176.163L174.571 152.508H164.852V175.384Z" fill="#D9D9D9" stroke="#069AD9" stroke-miterlimit="10"/>
<path d="M202.302 104.351H229.25V85.9616H213.605L212.021 81.4752H202.302V104.351Z" fill="#D9D9D9" stroke="#069AD9" stroke-miterlimit="10"/>
<path d="M202.302 139.867H229.25V121.478H213.605L212.021 116.991H202.302V139.867Z" fill="#D9D9D9" stroke="#069AD9" stroke-miterlimit="10"/>
<path d="M202.302 175.384H229.25V156.994H213.605L212.021 152.508H202.302V175.384Z" fill="#D9D9D9" stroke="#069AD9" stroke-miterlimit="10"/>
<path d="M239.745 104.351H266.7V85.9616H251.056L249.464 81.4752H239.745V104.351Z" fill="#D9D9D9" stroke="#069AD9" stroke-miterlimit="10"/>
<path d="M239.745 139.867H266.7V121.478H251.056L249.464 116.991H239.745V139.867Z" fill="#D9D9D9" stroke="#069AD9" stroke-miterlimit="10"/>
<path d="M239.745 175.384H266.7V156.994H251.056L249.464 152.508H239.745V175.384Z" fill="#D9D9D9" stroke="#069AD9" stroke-miterlimit="10"/>
<path d="M277.196 104.351H304.143V85.9616H288.499L286.915 81.4752H277.196V104.351Z" fill="#D9D9D9" stroke="#069AD9" stroke-miterlimit="10"/>
<path d="M277.196 139.867H304.143V121.478H288.499L286.915 116.991H277.196V139.867Z" fill="#D9D9D9" stroke="#069AD9" stroke-miterlimit="10"/>
<path d="M277.196 175.384H304.143V156.994H288.499L286.915 152.508H277.196V175.384Z" fill="#D9D9D9" stroke="#069AD9" stroke-miterlimit="10"/>
<path opacity="0.3" d="M240.873 78.0989H143.762V164.229H240.873V78.0989Z" fill="black"/>
<path d="M243.303 73.6967H146.192V159.827H243.303V73.6967Z" fill="white" stroke="black" stroke-linecap="round" stroke-linejoin="round"/>
<path d="M243.303 73.6967H146.192V79.8521H243.303V73.6967Z" fill="black" stroke="black" stroke-linecap="round" stroke-linejoin="round"/>
<path d="M188.677 110.583V101.503C188.677 98.1423 191.457 95.4091 194.869 95.4091C198.282 95.4091 201.062 98.1423 201.062 101.503V106.809H203.529V101.503C203.529 96.8025 199.645 92.9821 194.869 92.9821C190.094 92.9821 186.209 96.8025 186.209 101.503V110.583H188.677Z" fill="white" stroke="black" stroke-linecap="round" stroke-linejoin="round"/>
<path d="M204.207 109.695H185.295V125.421H204.207V109.695Z" fill="black" stroke="black" stroke-linecap="round" stroke-linejoin="round"/>
<path d="M206.903 103.93L208.13 101.113" stroke="black" stroke-linecap="round" stroke-linejoin="round"/>
<path d="M207.079 107.268H211.633" stroke="black" stroke-linecap="round" stroke-linejoin="round"/>
<path d="M206.553 110.438L209.006 113.079" stroke="black" stroke-linecap="round" stroke-linejoin="round"/>
<path d="M196.713 116.226C196.713 115.108 195.791 114.197 194.656 114.197C193.521 114.197 192.6 115.108 192.6 116.226C192.6 116.999 193.034 117.665 193.681 118.01L193.338 121.585H195.989L195.646 118.01C196.294 117.665 196.728 116.999 196.728 116.226H196.713Z" fill="black" stroke="black" stroke-linecap="round" stroke-linejoin="round"/>
<path d="M228.61 131.829H160.892C159.209 131.829 157.845 133.2 157.845 134.891V142.157C157.845 143.848 159.209 145.219 160.892 145.219H228.61C230.293 145.219 231.657 143.848 231.657 142.157V134.891C231.657 133.2 230.293 131.829 228.61 131.829Z" fill="white" stroke="black" stroke-linecap="round" stroke-linejoin="round"/>
<path d="M165.012 138.949C164.494 138.78 164.334 138.39 164.479 137.976L164.517 137.869C164.685 137.433 165.035 137.287 165.507 137.433C165.964 137.601 166.703 137.976 167.259 138.367C167.076 137.724 166.932 136.851 166.932 136.33C166.932 135.856 167.198 135.519 167.678 135.519H167.785C168.257 135.519 168.531 135.848 168.531 136.33C168.531 136.851 168.386 137.724 168.204 138.367C168.782 137.969 169.506 137.601 169.963 137.433C170.42 137.287 170.808 137.433 170.953 137.892L170.976 137.953C171.121 138.428 170.976 138.78 170.458 138.949C169.986 139.094 169.178 139.217 168.493 139.24C169.011 139.638 169.651 140.212 169.963 140.633C170.23 141.008 170.191 141.445 169.841 141.713L169.757 141.774C169.361 142.065 168.973 141.981 168.661 141.567C168.371 141.154 168.021 140.465 167.754 139.76C167.465 140.465 167.114 141.154 166.825 141.567C166.513 141.981 166.124 142.065 165.728 141.774L165.644 141.713C165.271 141.445 165.248 141.008 165.523 140.633C165.835 140.22 166.475 139.638 166.993 139.224C166.33 139.224 165.507 139.102 165.027 138.956L165.012 138.949Z" fill="black"/>
<path d="M172.735 138.949C172.217 138.78 172.058 138.39 172.202 137.976L172.24 137.869C172.408 137.433 172.758 137.287 173.23 137.433C173.687 137.601 174.426 137.976 174.982 138.367C174.799 137.724 174.655 136.851 174.655 136.33C174.655 135.856 174.921 135.519 175.401 135.519H175.508C175.98 135.519 176.254 135.848 176.254 136.33C176.254 136.851 176.11 137.724 175.927 138.367C176.506 137.969 177.229 137.601 177.686 137.433C178.143 137.287 178.532 137.433 178.676 137.892L178.699 137.953C178.844 138.428 178.699 138.78 178.181 138.949C177.709 139.094 176.902 139.217 176.216 139.24C176.734 139.638 177.374 140.212 177.686 140.633C177.953 141.008 177.915 141.445 177.564 141.713L177.48 141.774C177.084 142.065 176.696 141.981 176.384 141.567C176.094 141.154 175.744 140.465 175.477 139.76C175.188 140.465 174.838 141.154 174.548 141.567C174.236 141.981 173.847 142.065 173.451 141.774L173.368 141.713C172.994 141.445 172.972 141.008 173.246 140.633C173.558 140.22 174.198 139.638 174.716 139.224C174.053 139.224 173.23 139.102 172.751 138.956L172.735 138.949Z" fill="black"/>
<path d="M180.459 138.949C179.941 138.78 179.781 138.39 179.925 137.976L179.963 137.869C180.131 137.433 180.481 137.287 180.954 137.433C181.411 137.601 182.149 137.976 182.713 138.367C182.53 137.724 182.386 136.851 182.386 136.33C182.386 135.856 182.652 135.519 183.132 135.519H183.239C183.711 135.519 183.985 135.848 183.985 136.33C183.985 136.851 183.84 137.724 183.657 138.367C184.236 137.969 184.96 137.601 185.417 137.433C185.874 137.287 186.262 137.433 186.407 137.892L186.43 137.953C186.575 138.428 186.43 138.78 185.912 138.949C185.44 139.094 184.632 139.217 183.947 139.24C184.465 139.638 185.105 140.212 185.417 140.633C185.683 141.008 185.645 141.445 185.295 141.713L185.211 141.774C184.815 142.065 184.427 141.981 184.114 141.567C183.825 141.154 183.475 140.465 183.208 139.76C182.919 140.465 182.568 141.154 182.279 141.567C181.967 141.981 181.578 142.065 181.182 141.774L181.098 141.713C180.725 141.445 180.702 141.008 180.976 140.633C181.289 140.22 181.929 139.638 182.446 139.224C181.784 139.224 180.961 139.102 180.481 138.956L180.459 138.949Z" fill="black"/>
<path d="M188.182 138.949C187.664 138.78 187.504 138.39 187.649 137.976L187.687 137.869C187.854 137.433 188.205 137.287 188.677 137.433C189.134 137.601 189.873 137.976 190.429 138.367C190.246 137.724 190.101 136.851 190.101 136.33C190.101 135.856 190.368 135.519 190.847 135.519H190.954C191.426 135.519 191.701 135.848 191.701 136.33C191.701 136.851 191.556 137.724 191.373 138.367C191.952 137.969 192.675 137.601 193.132 137.433C193.589 137.287 193.978 137.433 194.123 137.892L194.145 137.953C194.29 138.428 194.145 138.78 193.628 138.949C193.155 139.094 192.348 139.217 191.662 139.24C192.18 139.638 192.82 140.212 193.132 140.633C193.399 141.008 193.361 141.445 193.011 141.713L192.927 141.774C192.531 142.065 192.142 141.981 191.83 141.567C191.541 141.154 191.19 140.465 190.924 139.76C190.634 140.465 190.284 141.154 189.994 141.567C189.682 141.981 189.294 142.065 188.898 141.774L188.814 141.713C188.441 141.445 188.418 141.008 188.692 140.633C189.004 140.22 189.644 139.638 190.162 139.224C189.499 139.224 188.677 139.102 188.197 138.956L188.182 138.949Z" fill="black"/>
<path d="M195.905 138.949C195.387 138.78 195.227 138.39 195.372 137.976L195.41 137.869C195.577 137.433 195.928 137.287 196.4 137.433C196.857 137.601 197.596 137.976 198.152 138.367C197.969 137.724 197.824 136.851 197.824 136.33C197.824 135.856 198.091 135.519 198.571 135.519H198.677C199.149 135.519 199.424 135.848 199.424 136.33C199.424 136.851 199.279 137.724 199.096 138.367C199.675 137.969 200.399 137.601 200.848 137.433C201.305 137.287 201.693 137.433 201.838 137.892L201.861 137.953C202.006 138.428 201.861 138.78 201.343 138.949C200.871 139.094 200.063 139.217 199.378 139.24C199.896 139.638 200.536 140.212 200.848 140.633C201.115 141.008 201.076 141.445 200.726 141.713L200.642 141.774C200.246 142.065 199.858 141.981 199.546 141.567C199.256 141.154 198.906 140.465 198.639 139.76C198.35 140.465 197.999 141.154 197.71 141.567C197.398 141.981 197.009 142.065 196.613 141.774L196.529 141.713C196.156 141.445 196.133 141.008 196.408 140.633C196.72 140.22 197.36 139.638 197.877 139.224C197.215 139.224 196.392 139.102 195.912 138.956L195.905 138.949Z" fill="black"/>
<path d="M203.628 138.949C203.11 138.78 202.95 138.39 203.087 137.976L203.125 137.869C203.293 137.433 203.643 137.287 204.115 137.433C204.572 137.601 205.311 137.976 205.867 138.367C205.684 137.724 205.54 136.851 205.54 136.33C205.54 135.856 205.806 135.519 206.286 135.519H206.393C206.865 135.519 207.139 135.848 207.139 136.33C207.139 136.851 206.995 137.724 206.812 138.367C207.391 137.969 208.114 137.601 208.564 137.433C209.021 137.287 209.409 137.433 209.554 137.892L209.577 137.953C209.721 138.428 209.577 138.78 209.059 138.949C208.586 139.094 207.779 139.217 207.094 139.24C207.611 139.638 208.251 140.212 208.556 140.633C208.823 141.008 208.784 141.445 208.434 141.713L208.35 141.774C207.954 142.065 207.566 141.981 207.253 141.567C206.964 141.154 206.614 140.465 206.347 139.76C206.058 140.465 205.707 141.154 205.418 141.567C205.106 141.981 204.717 142.065 204.321 141.774L204.237 141.713C203.864 141.445 203.841 141.008 204.115 140.633C204.428 140.22 205.068 139.638 205.585 139.224C204.923 139.224 204.1 139.102 203.62 138.956L203.628 138.949Z" fill="black"/>
<path d="M211.351 138.949C210.833 138.78 210.673 138.39 210.81 137.976L210.848 137.869C211.016 137.433 211.366 137.287 211.839 137.433C212.296 137.601 213.034 137.976 213.59 138.367C213.408 137.724 213.263 136.851 213.263 136.33C213.263 135.856 213.53 135.519 214.009 135.519H214.116C214.588 135.519 214.862 135.848 214.862 136.33C214.862 136.851 214.718 137.724 214.535 138.367C215.114 137.969 215.837 137.601 216.287 137.433C216.744 137.287 217.132 137.433 217.277 137.892L217.3 137.953C217.444 138.428 217.3 138.78 216.782 138.949C216.31 139.094 215.502 139.217 214.817 139.24C215.335 139.638 215.974 140.212 216.287 140.633C216.553 141.008 216.515 141.445 216.165 141.713L216.081 141.774C215.685 142.065 215.297 141.981 214.984 141.567C214.695 141.154 214.344 140.465 214.078 139.76C213.788 140.465 213.438 141.154 213.149 141.567C212.836 141.981 212.448 142.065 212.052 141.774L211.968 141.713C211.595 141.445 211.572 141.008 211.846 140.633C212.159 140.22 212.798 139.638 213.316 139.224C212.654 139.224 211.831 139.102 211.351 138.956V138.949Z" fill="black"/>
<path d="M219.074 138.949C218.556 138.78 218.396 138.39 218.534 137.976L218.572 137.869C218.739 137.433 219.09 137.287 219.562 137.433C220.019 137.601 220.758 137.976 221.314 138.367C221.131 137.724 220.986 136.851 220.986 136.33C220.986 135.856 221.253 135.519 221.732 135.519H221.839C222.311 135.519 222.586 135.848 222.586 136.33C222.586 136.851 222.441 137.724 222.258 138.367C222.837 137.969 223.56 137.601 224.01 137.433C224.467 137.287 224.855 137.433 225 137.892L225.023 137.953C225.168 138.428 225.023 138.78 224.505 138.949C224.033 139.094 223.225 139.217 222.54 139.24C223.058 139.638 223.698 140.212 224.01 140.633C224.276 141.008 224.238 141.445 223.888 141.713L223.804 141.774C223.408 142.065 223.02 141.981 222.707 141.567C222.418 141.154 222.068 140.465 221.801 139.76C221.512 140.465 221.161 141.154 220.872 141.567C220.56 141.981 220.171 142.065 219.775 141.774L219.691 141.713C219.318 141.445 219.295 141.008 219.569 140.633C219.882 140.22 220.521 139.638 221.039 139.224C220.377 139.224 219.554 139.102 219.074 138.956V138.949Z" fill="black"/>
<path d="M98.0477 334.184H100.675C101.033 334.184 101.33 333.901 101.353 333.541L103.44 311.691H95.2905L97.3775 333.541C97.3927 333.901 97.6897 334.184 98.0553 334.184H98.0477Z" fill="white" stroke="black" stroke-linecap="round" stroke-linejoin="round"/>
<path d="M72.6615 334.184H75.2892C75.6472 334.184 75.9442 333.901 75.9671 333.541L78.054 311.691H69.9043L71.9912 333.541C72.0065 333.901 72.3035 334.184 72.6691 334.184H72.6615Z" fill="white" stroke="black" stroke-linecap="round" stroke-linejoin="round"/>
<path d="M114.042 334.184H116.67C117.028 334.184 117.325 333.901 117.348 333.541L119.435 311.691H111.285L113.372 333.541C113.387 333.901 113.684 334.184 114.05 334.184H114.042Z" fill="white" stroke="black" stroke-linecap="round" stroke-linejoin="round"/>
<path d="M140.449 334.184H143.076C143.434 334.184 143.731 333.901 143.754 333.541L145.841 311.691H137.691L139.778 333.541C139.794 333.901 140.091 334.184 140.456 334.184H140.449Z" fill="white" stroke="black" stroke-linecap="round" stroke-linejoin="round"/>
<path d="M102.016 312.587H154.204C154.204 312.587 159.543 294.672 163.694 277.384C167.845 260.097 172.591 238.339 167.548 233.868C162.506 229.397 149.162 237.145 139.078 239.235C128.994 241.325 126.922 238.936 120.097 231.785C113.281 224.635 107.347 213.005 95.7778 205.556C84.2159 198.107 75.6168 196.912 67.6042 201.981C67.6042 201.981 59.5993 208.833 59.0052 220.462C58.4111 232.084 61.6709 246.692 65.822 254.738C69.973 262.784 102.001 312.594 102.001 312.594L102.016 312.587Z" fill="white" stroke="black" stroke-linecap="round" stroke-linejoin="round"/>
<path d="M94.6812 279.788H151.044C151.044 279.788 161.196 269.583 162.72 245.084" stroke="black" stroke-linecap="round" stroke-linejoin="round"/>
<path d="M134.089 180.72L127.707 184.64C127.707 184.64 132.139 209.055 131.073 221.886C130.007 234.718 124.69 247.013 124.69 247.013H141.889C141.889 247.013 148.271 231.686 151.105 220.99C153.938 210.295 148.98 185.168 148.98 185.168L134.089 180.712V180.72Z" fill="#069AD9" fill-opacity="0.47" stroke="black" stroke-linecap="round" stroke-linejoin="round"/>
<path d="M204.839 245.796C204.839 245.796 208.51 244.632 209.485 244.632C210.468 244.632 213.659 247.151 213.659 247.151C213.659 247.151 213.789 248.07 213.065 248.269C212.341 248.46 209.866 246.738 209.866 246.738L205.738 247.963L204.832 245.788L204.839 245.796Z" fill="#D9D9D9" stroke="black" stroke-linecap="round" stroke-linejoin="round"/>
<path d="M205.243 243.445C205.243 243.445 209.043 244.035 209.919 244.471C210.795 244.915 212.555 248.59 212.555 248.59C212.555 248.59 212.265 249.471 211.534 249.325C210.803 249.18 209.341 246.531 209.341 246.531L205.098 245.796L205.243 243.445Z" fill="#D9D9D9" stroke="black" stroke-linecap="round" stroke-linejoin="round"/>
<path d="M201.236 242.274L206.058 243.453L209.127 245.513L210.879 249.777C210.879 249.777 210.292 250.366 209.561 250.221C208.83 250.076 205.761 246.692 205.761 246.692L201.374 243.897L199.911 242.282H201.229L201.236 242.274Z" fill="#D9D9D9" stroke="black" stroke-linecap="round" stroke-linejoin="round"/>
<path d="M190.71 240.957C190.71 240.957 198.167 241.248 199.774 241.248C201.381 241.248 205.624 244.632 206.355 244.923C207.086 245.214 210.155 249.624 210.155 249.624C210.155 249.624 210.3 249.624 209.279 249.915C208.259 250.206 206.644 249.18 206.644 249.18L204.595 246.684L199.622 245.804C199.622 245.804 203.278 247.718 204.154 248.008C205.029 248.299 205.616 249.333 205.327 249.922C205.037 250.512 200.627 248.613 200.627 248.613C200.627 248.613 198.974 249.494 197.223 248.613C195.471 247.733 195.242 247.71 193.376 246.845C191.51 245.98 187.786 243.752 187.786 243.752L190.71 240.957Z" fill="#D9D9D9" stroke="black" stroke-linecap="round" stroke-linejoin="round"/>
<path d="M152.704 188.56C152.704 188.56 155.537 189.095 156.253 190.696C156.961 192.296 161.569 228.654 161.569 228.654L192.028 239.847L191.449 250.573C191.449 250.573 155.362 246.117 152.879 246.653C150.396 247.189 144.371 247.901 141.888 245.941C139.405 243.981 148.827 235.782 150.541 228.241C154.6 210.379 154.098 198.13 154.098 198.13C154.098 198.13 149.162 186.424 152.704 188.56Z" fill="black" stroke="black" stroke-linecap="round" stroke-linejoin="round"/>
<path d="M156.604 209.407C156.604 209.407 152.171 227.23 150.221 232.038C148.271 236.846 144.371 244.869 144.371 244.869L140.114 245.581C140.114 245.581 148.979 226.334 150.571 218.671C152.163 211.007 148.621 191.584 148.446 190.872C148.271 190.16 149.688 185.704 152.346 186.592" fill="black"/>
<path d="M156.604 209.407C156.604 209.407 152.171 227.23 150.221 232.038C148.271 236.846 144.371 244.869 144.371 244.869L140.114 245.581C140.114 245.581 148.979 226.334 150.571 218.671C152.163 211.007 148.621 191.584 148.446 190.872C148.271 190.16 149.688 185.704 152.346 186.592" stroke="black" stroke-linecap="round" stroke-linejoin="round"/>
<path d="M148.621 204.423L143.48 217.43L137.989 203.527L144.547 198.359L148.621 204.423Z" fill="white" stroke="black" stroke-linecap="round" stroke-linejoin="round"/>
<path d="M149.863 193.904L151.813 209.055L143.48 202.639L149.863 193.904Z" fill="white" stroke="black" stroke-linecap="round" stroke-linejoin="round"/>
<path d="M173.093 166.954C173.093 166.954 172.91 177.014 172.103 178.408C171.296 179.801 169.567 181.952 169.491 183.874C169.422 185.796 171.692 189.945 170.328 191.285C168.957 192.625 167.076 191.966 167.076 191.966C167.076 191.966 162.613 197.341 160.13 198.566C157.647 199.799 150.998 196.284 150.998 196.284L144.371 203.175L132.139 180.896L139.139 176.157C139.139 176.157 141.843 162.154 150.518 159.206C159.193 156.259 171.738 163.425 173.093 166.954Z" fill="#D9D9D9" stroke="black" stroke-linecap="round" stroke-linejoin="round"/>
<path d="M148.66 179.633C148.66 179.633 145.979 185.26 148.279 188.828" stroke="black" stroke-linecap="round" stroke-linejoin="round"/>
<path d="M165.766 181.332C165.431 182.098 165.446 182.848 165.804 183.009C166.162 183.17 166.726 182.68 167.061 181.914C167.396 181.149 167.381 180.398 167.023 180.238C166.665 180.077 166.101 180.567 165.766 181.332Z" fill="black"/>
<path d="M164.129 192.418C164.129 192.418 161.448 191.882 161.448 189.723" stroke="black" stroke-linecap="round" stroke-linejoin="round"/>
<path d="M163.954 182.006L165.919 183.805" stroke="black" stroke-linecap="round" stroke-linejoin="round"/>
<path d="M169.399 178.369C169.399 178.369 169.308 175.728 165.042 176.815" stroke="black" stroke-linecap="round" stroke-linejoin="round"/>
<path d="M178.935 159.421C177.062 159.628 175.196 161.09 174.571 159.842C173.947 158.594 174.365 153.993 171.25 153.579C168.135 153.158 168.341 154.621 167.305 154.835C166.269 155.042 165.02 150.241 161.075 150.869C157.144 151.497 154.654 153.151 154.433 153.993C147.624 153.939 143.435 156.718 140.434 162.307C137.136 168.44 139.154 176.165 139.154 176.165C139.154 176.165 136.054 178.584 138.537 179.296C141.02 180.008 148.683 179.64 148.683 179.64L147.875 179.281C147.068 178.921 145.75 176.188 148.431 172.314C151.112 168.44 152.933 171.793 153.169 173.454C153.405 175.116 153.549 176.547 154.517 176.984C155.492 177.42 156.154 176.348 156.406 174.901C156.657 173.454 159.589 173.401 161.768 172.421C163.946 171.441 161.874 169.542 160.077 166.595C158.279 163.647 162.849 162.958 167.099 165.638C169.552 167.184 170.831 168.011 172.042 168.164L172.096 168.202C172.096 168.202 174.175 169.871 175.835 168.409C177.496 166.947 178.539 166.74 179.994 165.071C181.449 163.402 180.824 159.222 178.958 159.429L178.935 159.421Z" fill="black" stroke="black" stroke-linecap="round" stroke-linejoin="round"/>
<path d="M132.848 179.648L144.547 202.463L137.098 210.303C137.098 210.303 130.715 193.015 130.007 188.736C129.298 184.456 128.765 181.432 128.765 181.432L132.84 179.648H132.848Z" fill="white" stroke="black" stroke-linecap="round" stroke-linejoin="round"/>
<path d="M139.619 244.066C139.619 244.066 173.893 242.282 178.212 244.066C182.53 245.849 183.543 250.443 183.033 255.037C182.522 259.63 179.986 286.679 178.973 294.335C177.96 301.991 177.45 311.431 178.212 313.222C178.973 315.014 181.258 318.068 180.496 319.86C179.735 321.644 178.463 322.409 178.463 323.175C178.463 323.941 179.476 325.219 179.476 325.219C179.476 325.219 188.867 329.3 192.173 330.578C195.471 331.857 195.73 332.875 194.968 333.388C194.206 333.901 178.463 333.388 175.675 333.388C172.888 333.388 167.548 331.604 167.548 331.604V332.883H160.693V328.037C160.693 325.487 160.945 323.443 160.945 323.443C160.945 323.443 159.673 320.128 159.932 318.849C160.183 317.571 161.706 314.769 162.217 312.212C162.727 309.662 162.217 306.087 161.965 303.277C161.714 300.467 161.965 298.683 162.217 297.152C162.468 295.621 160.693 267.807 160.693 267.807C160.693 267.807 140.639 273.932 138.606 274.184C136.572 274.437 120.074 280.562 113.22 278.778C106.365 276.994 116.015 255.297 123.631 247.901C131.248 240.498 139.626 244.073 139.626 244.073L139.619 244.066Z" fill="black" stroke="black" stroke-linecap="round" stroke-linejoin="round"/>
<path d="M125.658 241.508C125.658 241.508 148.256 243.292 150.792 245.849C153.329 248.399 152.567 253.505 152.567 256.82C152.567 260.136 149.52 304.288 149.269 306.837C149.018 309.387 151.805 311.944 150.792 313.728C149.779 315.511 149.269 317.556 149.269 318.321C149.269 319.087 156.124 324.699 158.919 326.23C161.714 327.761 169.582 329.545 170.854 330.823C172.126 332.102 171.867 333.12 169.582 333.886C167.297 334.651 148.256 333.886 148.256 333.886C148.256 333.886 145.461 333.886 144.448 333.12C143.435 332.355 142.673 332.102 142.673 332.102L142.422 333.809H132.52C132.52 333.809 131.507 328.021 131.507 325.464C131.507 322.907 132.269 319.087 132.269 319.087C132.269 319.087 130.746 316.79 130.997 314.493C131.248 312.196 133.03 311.178 133.03 309.647C133.03 308.116 131.507 303.522 131.759 300.712C132.01 297.903 132.269 294.588 132.269 294.588L129.984 272.132C129.984 272.132 114.751 280.554 107.386 279.788C100.02 279.023 97.9944 278.005 95.9608 274.429C93.9272 270.854 93.9272 255.802 97.2328 249.93C100.531 244.058 118.81 238.699 125.665 241.508H125.658Z" fill="black" stroke="black" stroke-linecap="round" stroke-linejoin="round"/>
<path d="M128.765 181.432C128.765 181.432 134.081 194.799 134.615 202.815C135.148 210.839 134.439 229.55 132.49 234.894C130.54 240.238 129.656 243.629 129.656 243.629C129.656 243.629 111.925 246.301 109.625 247.197C107.317 248.085 102.534 255.037 101.643 260.916C101.384 262.608 101.208 264.438 101.079 266.184C100.782 270.18 101.178 274.177 101.97 278.104C102.115 278.839 102.145 279.444 101.924 279.666C101.216 280.378 91.7182 276.068 88.5269 265.02C85.3355 253.972 86.935 240.957 89.7684 234.901C92.6017 228.845 103.6 192.663 108.383 187.855C113.174 183.04 128.773 181.439 128.773 181.439L128.765 181.432Z" fill="black" stroke="black" stroke-linecap="round" stroke-linejoin="round"/>
<path d="M188.753 245.635C188.753 245.635 195.448 246.5 197.177 246.937C198.906 247.373 200.079 248.95 200.079 248.95L199.423 249.555L194.579 247.71L188.745 245.635H188.753Z" fill="#D9D9D9" stroke="black" stroke-linecap="round" stroke-linejoin="round"/>
<path d="M191.495 246.707C191.495 246.707 195.585 246.96 196.088 247.465C196.59 247.97 198.761 251.66 198.761 251.66L197.756 252.334L194.999 249.731L191.487 247.802V246.707H191.495Z" fill="#D9D9D9" stroke="black" stroke-linecap="round" stroke-linejoin="round"/>
<path d="M183.97 245.191C183.97 245.191 191.563 245.842 193.079 246.707C194.595 247.572 196.506 251.484 196.506 251.484L195.425 251.921L191.754 248.23L182.675 246.707L183.97 245.183V245.191Z" fill="#D9D9D9" stroke="black" stroke-linecap="round" stroke-linejoin="round"/>
<path d="M183.642 249.057C183.642 249.057 185.729 250.152 186.818 250.152C187.907 250.152 191.327 248.973 191.327 248.973C191.327 248.973 187.9 247.549 187.237 247.465C186.567 247.381 183.65 249.057 183.65 249.057H183.642Z" fill="#D9D9D9" stroke="black" stroke-linecap="round" stroke-linejoin="round"/>
<path d="M174.678 241.715C174.678 241.715 183.756 243.89 184.83 244.54C185.904 245.191 191.099 247.802 191.746 248.23C192.394 248.667 194.336 252.143 194.336 252.143C194.336 252.143 193.041 253.666 192.607 252.579C192.173 251.492 190.231 249.54 190.231 249.54L186.338 248.238C186.338 248.238 184.175 249.325 181.799 249.325C179.423 249.325 176.863 246.967 176.863 246.967L172.507 248.016L174.67 241.715H174.678Z" fill="#D9D9D9" stroke="black" stroke-linecap="round" stroke-linejoin="round"/>
<path d="M120.981 190.818C120.981 190.818 126.366 195.542 126.815 200.87C127.265 206.199 127.189 208.343 127.234 209.238C127.28 210.127 130.433 233.546 130.433 233.546L175.698 240.919L174.83 251.025L123.251 250.03C123.251 250.03 119.74 250.742 117.828 248.162C115.924 245.581 104.91 206.452 104.91 206.452" fill="black"/>
<path d="M120.981 190.818C120.981 190.818 126.366 195.542 126.815 200.87C127.265 206.199 127.189 208.343 127.234 209.238C127.28 210.127 130.433 233.546 130.433 233.546L175.698 240.919L174.83 251.025L123.251 250.03C123.251 250.03 119.74 250.742 117.828 248.162C115.924 245.581 104.91 206.452 104.91 206.452" stroke="black" stroke-linecap="round" stroke-linejoin="round"/>
<path d="M121.56 237.099C121.073 237.52 120.608 238.002 120.197 238.561" stroke="black" stroke-linecap="round" stroke-linejoin="round"/>
<path d="M129.74 234.327C129.74 234.327 126.419 234.212 123.334 235.881" stroke="black" stroke-linecap="round" stroke-linejoin="round"/>
<path d="M126.648 236.272C126.648 236.272 122.283 237.742 121.377 240.819" stroke="black" stroke-linecap="round" stroke-linejoin="round"/>
<path d="M102.016 312.587C102.016 312.587 101.125 280.661 93.1196 259.799C85.1147 238.936 80.3695 236.249 77.1097 237.145C73.8498 238.04 69.1047 243.706 66.1342 239.824C63.1714 235.95 58.7234 225.217 60.498 215.677C62.2803 206.138 65.8372 204.354 67.6119 201.965C69.3941 199.584 59.9039 205.242 55.7529 211.505C51.6019 217.767 51.6019 232.964 53.9706 248.766C56.3394 264.561 62.2727 309.31 64.352 311.094C66.4313 312.885 71.4658 312.885 71.4658 312.885H98.7482L102.008 312.587H102.016Z" fill="white" stroke="black" stroke-linecap="round" stroke-linejoin="round"/>
<path d="M249.967 250.007H180.276V253.069H249.967V250.007Z" fill="white" stroke="black" stroke-linecap="round" stroke-linejoin="round"/>
<path d="M249.967 250.007H216.21V253.069H249.967V250.007Z" fill="#B2B2B2" stroke="black" stroke-linecap="round" stroke-linejoin="round"/>
<path d="M259.678 222.629H225.922L216.21 249.999H249.967L259.678 222.629Z" fill="#D9D9D9" stroke="black" stroke-linecap="round" stroke-linejoin="round"/>
<path d="M224.749 334.23H224.269C223.18 334.23 222.296 333.342 222.296 332.247V254.952H226.714V332.247C226.714 333.342 225.83 334.23 224.741 334.23H224.749Z" fill="#069AD9" stroke="black" stroke-linecap="round" stroke-linejoin="round"/>
<path d="M232.777 334.23H232.297C231.208 334.23 230.324 333.342 230.324 332.247V254.952H234.742V332.247C234.742 333.342 233.858 334.23 232.769 334.23H232.777Z" fill="#069AD9" stroke="black" stroke-linecap="round" stroke-linejoin="round"/>
<path d="M170.252 334.23H169.772C168.683 334.23 167.8 333.342 167.8 332.247V254.952H172.217V332.247C172.217 333.342 171.334 334.23 170.245 334.23H170.252Z" fill="#069AD9" stroke="black" stroke-linecap="round" stroke-linejoin="round"/>
<path d="M280.288 334.23H279.809C278.719 334.23 277.836 333.342 277.836 332.247V254.952H282.253V332.247C282.253 333.342 281.37 334.23 280.281 334.23H280.288Z" fill="#069AD9" stroke="black" stroke-linecap="round" stroke-linejoin="round"/>
<path d="M162.659 256.767H286.42V253.153L162.659 253.153V256.767Z" fill="white" stroke="black" stroke-linecap="round" stroke-linejoin="round"/>
<path d="M162.659 295.07H286.42V291.456H162.659V295.07Z" fill="white" stroke="black" stroke-linecap="round" stroke-linejoin="round"/>
<path d="M217.048 287.774H184.731V291.395H217.048V287.774Z" fill="white" stroke="black" stroke-linecap="round" stroke-linejoin="round"/>
<path d="M217.048 287.774H202.531V291.395H217.048V287.774Z" fill="white" stroke="black" stroke-linecap="round" stroke-linejoin="round"/>
<path d="M266.114 287.774H233.797V291.395H266.114V287.774Z" fill="white" stroke="black" stroke-linecap="round" stroke-linejoin="round"/>
<path d="M266.114 287.774H251.597V291.395H266.114V287.774Z" fill="white" stroke="black" stroke-linecap="round" stroke-linejoin="round"/>
<path d="M214.375 283.984H182.058V287.605H214.375V283.984Z" fill="white" stroke="black" stroke-linecap="round" stroke-linejoin="round"/>
<path d="M214.375 283.984H199.858V287.605H214.375V283.984Z" fill="white" stroke="black" stroke-linecap="round" stroke-linejoin="round"/>
<path d="M13.4658 334.23H347.07" stroke="black" stroke-linecap="round" stroke-linejoin="round"/>
</svg>
