<svg width="603" height="496" viewBox="0 0 603 496" fill="none" xmlns="http://www.w3.org/2000/svg">
<path d="M230.036 354.496L179.11 314.066L128.183 354.496V496H230.036V354.496Z" fill="#069AD9"/>
<path d="M25.7941 313.032C25.7941 309.341 26.4555 306.451 27.7781 304.36C29.1221 302.269 31.3408 301.224 34.4341 301.224C37.5275 301.224 39.7355 302.269 41.0581 304.36C42.4021 306.451 43.0741 309.341 43.0741 313.032C43.0741 316.744 42.4021 319.656 41.0581 321.768C39.7355 323.88 37.5275 324.936 34.4341 324.936C31.3408 324.936 29.1221 323.88 27.7781 321.768C26.4555 319.656 25.7941 316.744 25.7941 313.032ZM38.6581 313.032C38.6581 311.453 38.5515 310.131 38.3381 309.064C38.1461 307.976 37.7408 307.091 37.1221 306.408C36.5248 305.725 35.6288 305.384 34.4341 305.384C33.2395 305.384 32.3328 305.725 31.7141 306.408C31.1168 307.091 30.7115 307.976 30.4981 309.064C30.3061 310.131 30.2101 311.453 30.2101 313.032C30.2101 314.653 30.3061 316.019 30.4981 317.128C30.6901 318.216 31.0955 319.101 31.7141 319.784C32.3328 320.445 33.2395 320.776 34.4341 320.776C35.6288 320.776 36.5355 320.445 37.1541 319.784C37.7728 319.101 38.1781 318.216 38.3701 317.128C38.5621 316.019 38.6581 314.653 38.6581 313.032ZM48.9776 325.224C48.167 325.224 47.495 324.979 46.9616 324.488C46.4496 323.976 46.1936 323.347 46.1936 322.6C46.1936 321.853 46.4496 321.235 46.9616 320.744C47.495 320.232 48.167 319.976 48.9776 319.976C49.767 319.976 50.4176 320.232 50.9296 320.744C51.4416 321.235 51.6976 321.853 51.6976 322.6C51.6976 323.347 51.4416 323.976 50.9296 324.488C50.4176 324.979 49.767 325.224 48.9776 325.224ZM54.8581 307.816C54.9648 305.683 55.7115 304.04 57.0981 302.888C58.5061 301.715 60.3515 301.128 62.6341 301.128C64.1915 301.128 65.5248 301.405 66.6341 301.96C67.7435 302.493 68.5755 303.229 69.1301 304.168C69.7061 305.085 69.9941 306.131 69.9941 307.304C69.9941 308.648 69.6421 309.789 68.9381 310.728C68.2555 311.645 67.4341 312.264 66.4741 312.584V312.712C67.7115 313.096 68.6715 313.779 69.3541 314.76C70.0581 315.741 70.4101 317 70.4101 318.536C70.4101 319.816 70.1115 320.957 69.5141 321.96C68.9381 322.963 68.0741 323.752 66.9221 324.328C65.7915 324.883 64.4261 325.16 62.8261 325.16C60.4155 325.16 58.4528 324.552 56.9381 323.336C55.4235 322.12 54.6235 320.328 54.5381 317.96H58.8901C58.9328 319.005 59.2848 319.848 59.9461 320.488C60.6288 321.107 61.5568 321.416 62.7301 321.416C63.8181 321.416 64.6501 321.117 65.2261 320.52C65.8235 319.901 66.1221 319.112 66.1221 318.152C66.1221 316.872 65.7168 315.955 64.9061 315.4C64.0955 314.845 62.8368 314.568 61.1301 314.568H60.2021V310.888H61.1301C64.1595 310.888 65.6741 309.875 65.6741 307.848C65.6741 306.931 65.3968 306.216 64.8421 305.704C64.3088 305.192 63.5301 304.936 62.5061 304.936C61.5035 304.936 60.7248 305.213 60.1701 305.768C59.6368 306.301 59.3275 306.984 59.2421 307.816H54.8581ZM73.4384 307.4C73.4384 305.779 73.9077 304.509 74.8464 303.592C75.8064 302.675 77.0331 302.216 78.5264 302.216C80.0197 302.216 81.2357 302.675 82.1744 303.592C83.1344 304.509 83.6144 305.779 83.6144 307.4C83.6144 309.043 83.1344 310.323 82.1744 311.24C81.2357 312.157 80.0197 312.616 78.5264 312.616C77.0331 312.616 75.8064 312.157 74.8464 311.24C73.9077 310.323 73.4384 309.043 73.4384 307.4ZM93.9824 302.6L81.4064 325H77.0544L89.5984 302.6H93.9824ZM78.4944 304.904C77.3211 304.904 76.7344 305.736 76.7344 307.4C76.7344 309.085 77.3211 309.928 78.4944 309.928C79.0704 309.928 79.5184 309.725 79.8384 309.32C80.1584 308.893 80.3184 308.253 80.3184 307.4C80.3184 305.736 79.7104 304.904 78.4944 304.904ZM87.4864 320.168C87.4864 318.525 87.9557 317.256 88.8944 316.36C89.8544 315.443 91.0811 314.984 92.5744 314.984C94.0677 314.984 95.2731 315.443 96.1904 316.36C97.1291 317.256 97.5984 318.525 97.5984 320.168C97.5984 321.811 97.1291 323.091 96.1904 324.008C95.2731 324.925 94.0677 325.384 92.5744 325.384C91.0597 325.384 89.8331 324.925 88.8944 324.008C87.9557 323.091 87.4864 321.811 87.4864 320.168ZM92.5424 317.672C91.3264 317.672 90.7184 318.504 90.7184 320.168C90.7184 321.853 91.3264 322.696 92.5424 322.696C93.7371 322.696 94.3344 321.853 94.3344 320.168C94.3344 318.504 93.7371 317.672 92.5424 317.672Z" fill="#161616"/>
<path d="M354.739 314.066L304.202 273.637L252.884 314.066V496H354.739V314.066Z" fill="#069AD9"/>
<path d="M263.046 231.29C263.216 232.229 263.6 232.954 264.198 233.466C264.816 233.957 265.638 234.202 266.662 234.202C267.984 234.202 268.944 233.658 269.542 232.57C270.139 231.461 270.438 229.605 270.438 227.002C269.947 227.685 269.254 228.218 268.358 228.602C267.483 228.986 266.534 229.178 265.51 229.178C264.144 229.178 262.907 228.901 261.798 228.346C260.71 227.77 259.846 226.928 259.206 225.818C258.566 224.688 258.246 223.322 258.246 221.722C258.246 219.354 258.95 217.477 260.358 216.09C261.766 214.682 263.686 213.978 266.118 213.978C269.147 213.978 271.28 214.949 272.518 216.89C273.776 218.832 274.406 221.754 274.406 225.658C274.406 228.432 274.16 230.704 273.67 232.474C273.2 234.245 272.379 235.589 271.206 236.506C270.054 237.424 268.475 237.882 266.47 237.882C264.891 237.882 263.547 237.584 262.438 236.986C261.328 236.368 260.475 235.568 259.878 234.586C259.302 233.584 258.971 232.485 258.886 231.29H263.046ZM266.438 225.53C267.547 225.53 268.422 225.189 269.062 224.506C269.702 223.824 270.022 222.906 270.022 221.754C270.022 220.496 269.68 219.525 268.998 218.842C268.336 218.138 267.43 217.786 266.278 217.786C265.126 217.786 264.208 218.149 263.526 218.874C262.864 219.578 262.534 220.517 262.534 221.69C262.534 222.821 262.854 223.749 263.494 224.474C264.155 225.178 265.136 225.53 266.438 225.53ZM283.077 231.29C283.247 232.229 283.631 232.954 284.229 233.466C284.847 233.957 285.669 234.202 286.693 234.202C288.015 234.202 288.975 233.658 289.573 232.57C290.17 231.461 290.469 229.605 290.469 227.002C289.978 227.685 289.285 228.218 288.389 228.602C287.514 228.986 286.565 229.178 285.541 229.178C284.175 229.178 282.938 228.901 281.829 228.346C280.741 227.77 279.877 226.928 279.237 225.818C278.597 224.688 278.277 223.322 278.277 221.722C278.277 219.354 278.981 217.477 280.389 216.09C281.797 214.682 283.717 213.978 286.149 213.978C289.178 213.978 291.311 214.949 292.549 216.89C293.807 218.832 294.437 221.754 294.437 225.658C294.437 228.432 294.191 230.704 293.701 232.474C293.231 234.245 292.41 235.589 291.237 236.506C290.085 237.424 288.506 237.882 286.501 237.882C284.922 237.882 283.578 237.584 282.469 236.986C281.359 236.368 280.506 235.568 279.909 234.586C279.333 233.584 279.002 232.485 278.917 231.29H283.077ZM286.469 225.53C287.578 225.53 288.453 225.189 289.093 224.506C289.733 223.824 290.053 222.906 290.053 221.754C290.053 220.496 289.711 219.525 289.029 218.842C288.367 218.138 287.461 217.786 286.309 217.786C285.157 217.786 284.239 218.149 283.557 218.874C282.895 219.578 282.565 220.517 282.565 221.69C282.565 222.821 282.885 223.749 283.525 224.474C284.186 225.178 285.167 225.53 286.469 225.53ZM300.42 238.074C299.609 238.074 298.937 237.829 298.404 237.338C297.892 236.826 297.636 236.197 297.636 235.45C297.636 234.704 297.892 234.085 298.404 233.594C298.937 233.082 299.609 232.826 300.42 232.826C301.209 232.826 301.86 233.082 302.372 233.594C302.884 234.085 303.14 234.704 303.14 235.45C303.14 236.197 302.884 236.826 302.372 237.338C301.86 237.829 301.209 238.074 300.42 238.074ZM321.085 217.914L312.573 237.85H308.029L316.605 218.426H305.661V214.586H321.085V217.914ZM323.256 220.25C323.256 218.629 323.725 217.36 324.664 216.442C325.624 215.525 326.85 215.066 328.344 215.066C329.837 215.066 331.053 215.525 331.992 216.442C332.952 217.36 333.432 218.629 333.432 220.25C333.432 221.893 332.952 223.173 331.992 224.09C331.053 225.008 329.837 225.466 328.344 225.466C326.85 225.466 325.624 225.008 324.664 224.09C323.725 223.173 323.256 221.893 323.256 220.25ZM343.8 215.45L331.224 237.85H326.872L339.416 215.45H343.8ZM328.312 217.754C327.138 217.754 326.552 218.586 326.552 220.25C326.552 221.936 327.138 222.778 328.312 222.778C328.888 222.778 329.336 222.576 329.656 222.17C329.976 221.744 330.136 221.104 330.136 220.25C330.136 218.586 329.528 217.754 328.312 217.754ZM337.304 233.018C337.304 231.376 337.773 230.106 338.712 229.21C339.672 228.293 340.898 227.834 342.392 227.834C343.885 227.834 345.09 228.293 346.008 229.21C346.946 230.106 347.416 231.376 347.416 233.018C347.416 234.661 346.946 235.941 346.008 236.858C345.09 237.776 343.885 238.234 342.392 238.234C340.877 238.234 339.65 237.776 338.712 236.858C337.773 235.941 337.304 234.661 337.304 233.018ZM342.36 230.522C341.144 230.522 340.536 231.354 340.536 233.018C340.536 234.704 341.144 235.546 342.36 235.546C343.554 235.546 344.152 234.704 344.152 233.018C344.152 231.354 343.554 230.522 342.36 230.522Z" fill="#161616"/>
<path d="M477.798 253.422L426.871 212.992L375.945 253.422V496H477.798V253.422Z" fill="#069AD9"/>
<path d="M602.5 172.562L551.572 132.132L500.646 172.562V496H602.5V172.562Z" fill="#069AD9"/>
<path d="M505.62 93.2348V89.2748L517.392 72.4268H523.26V88.8428H526.428V93.2348H523.26V98.3468H518.22V93.2348H505.62ZM518.544 77.8268L511.164 88.8428H518.544V77.8268ZM529.637 84.8828C529.637 80.7308 530.381 77.4788 531.869 75.1268C533.381 72.7748 535.877 71.5988 539.357 71.5988C542.837 71.5988 545.321 72.7748 546.809 75.1268C548.321 77.4788 549.077 80.7308 549.077 84.8828C549.077 89.0588 548.321 92.3348 546.809 94.7108C545.321 97.0868 542.837 98.2748 539.357 98.2748C535.877 98.2748 533.381 97.0868 531.869 94.7108C530.381 92.3348 529.637 89.0588 529.637 84.8828ZM544.109 84.8828C544.109 83.1068 543.989 81.6188 543.749 80.4188C543.533 79.1948 543.077 78.1988 542.381 77.4308C541.709 76.6628 540.701 76.2788 539.357 76.2788C538.013 76.2788 536.993 76.6628 536.297 77.4308C535.625 78.1988 535.169 79.1948 534.929 80.4188C534.713 81.6188 534.605 83.1068 534.605 84.8828C534.605 86.7068 534.713 88.2428 534.929 89.4908C535.145 90.7148 535.601 91.7108 536.297 92.4788C536.993 93.2228 538.013 93.5948 539.357 93.5948C540.701 93.5948 541.721 93.2228 542.417 92.4788C543.113 91.7108 543.569 90.7148 543.785 89.4908C544.001 88.2428 544.109 86.7068 544.109 84.8828ZM552.91 84.8828C552.91 80.7308 553.654 77.4788 555.142 75.1268C556.654 72.7748 559.15 71.5988 562.63 71.5988C566.11 71.5988 568.594 72.7748 570.082 75.1268C571.594 77.4788 572.35 80.7308 572.35 84.8828C572.35 89.0588 571.594 92.3348 570.082 94.7108C568.594 97.0868 566.11 98.2748 562.63 98.2748C559.15 98.2748 556.654 97.0868 555.142 94.7108C553.654 92.3348 552.91 89.0588 552.91 84.8828ZM567.382 84.8828C567.382 83.1068 567.262 81.6188 567.022 80.4188C566.806 79.1948 566.35 78.1988 565.654 77.4308C564.982 76.6628 563.974 76.2788 562.63 76.2788C561.286 76.2788 560.266 76.6628 559.57 77.4308C558.898 78.1988 558.442 79.1948 558.202 80.4188C557.986 81.6188 557.878 83.1068 557.878 84.8828C557.878 86.7068 557.986 88.2428 558.202 89.4908C558.418 90.7148 558.874 91.7108 559.57 92.4788C560.266 93.2228 561.286 93.5948 562.63 93.5948C563.974 93.5948 564.994 93.2228 565.69 92.4788C566.386 91.7108 566.842 90.7148 567.058 89.4908C567.274 88.2428 567.382 86.7068 567.382 84.8828ZM588.567 98.3468L581.799 89.8508V98.3468H576.759V71.7068H581.799V86.8628L588.495 78.4028H595.047L586.263 88.4108L595.119 98.3468H588.567Z" fill="#161616"/>
<path d="M1.08203 301.748C1.08203 301.748 56.8564 241.104 173.746 220.889C259.114 206.125 342.106 176.379 427.68 93.9853C470.946 52.3259 510.221 24.7242 544.082 10.3582" stroke="#BDBDBD" stroke-width="2" stroke-miterlimit="10" stroke-linecap="round" stroke-linejoin="round"/>
<path d="M53.5254 273.953C58.5095 273.953 62.5499 269.805 62.5499 264.688C62.5499 259.571 58.5095 255.423 53.5254 255.423C48.5414 255.423 44.501 259.571 44.501 264.688C44.501 269.805 48.5414 273.953 53.5254 273.953Z" fill="#069AD9"/>
<path d="M304.569 189.05C309.553 189.05 313.594 184.902 313.594 179.785C313.594 174.668 309.553 170.52 304.569 170.52C299.585 170.52 295.545 174.668 295.545 179.785C295.545 184.902 299.585 189.05 304.569 189.05Z" fill="#069AD9"/>
<path d="M552.332 18.5303C557.316 18.5303 561.356 14.3821 561.356 9.26514C561.356 4.14814 557.316 0 552.332 0C547.348 0 543.307 4.14814 543.307 9.26514C543.307 14.3821 547.348 18.5303 552.332 18.5303Z" fill="#069AD9"/>
<path d="M103.693 435.355L52.7673 394.926L1.83984 435.355V496H103.693V435.355Z" fill="#069AD9"/>
</svg>
