<svg width="1440" height="849" viewBox="0 0 1440 849" fill="none" xmlns="http://www.w3.org/2000/svg">
<path d="M1440 0H0V848.999H1440V0Z" fill="#009FDC"/>
<path d="M1440 674.446H0V675.465H81.792L64.128 710.444H0V711.802H63.36L45.696 746.781H0V748.139H44.928L27.264 783.118H0V784.476H26.496L8.832 819.455H0V820.813H8.064L0 836.944V840.34L9.792 820.813H129.216L117.312 849H119.04L130.944 820.813H250.368L240.96 849H242.688L252.096 820.813H371.52L364.416 849H365.952L373.056 820.813H492.48L487.68 849H489.216L494.016 820.813H613.44L611.136 849H612.672L614.976 820.813H734.4V849H735.936V820.813H855.36L858.24 849H859.776L857.472 820.813H976.896L981.696 849H983.232L978.432 820.813H1097.86L1104.96 849H1106.5L1099.39 820.813H1218.82L1228.22 849H1229.95L1220.54 820.813H1340.16L1352.06 849H1353.79L1341.89 820.813H1440V819.455H1341.31L1326.53 784.476H1440V783.118H1325.95L1311.17 748.139H1424.45L1440 778.873V775.477L1426.18 748.139H1440V746.781H1425.41L1407.74 711.802H1440V710.444H1406.98L1389.31 675.465H1440V674.446ZM625.92 675.465L623.04 710.444H512.832L518.784 675.465H625.92ZM390.144 746.781H276.864L288.576 711.802H398.784L390.144 746.781ZM400.704 711.802H510.912L504.96 746.781H391.68L400.704 711.802ZM275.328 746.781H162.24L177.024 711.802H287.232L275.328 746.781ZM274.944 748.139L263.232 783.118H146.88L161.664 748.139H274.944ZM276.48 748.139H389.76L380.928 783.118H264.576L276.48 748.139ZM391.488 748.139H504.768L498.816 783.118H382.464L391.488 748.139ZM506.496 748.139H619.776L616.896 783.118H500.544L506.496 748.139ZM506.688 746.781L512.64 711.802H623.04L620.16 746.781H506.688ZM517.056 675.465L511.104 710.444H400.896L409.728 675.465H517.056ZM408.192 675.465L399.36 710.444H289.152L300.864 675.465H408.192ZM299.328 675.465L287.616 710.444H177.408L192.192 675.465H299.328ZM83.52 675.465H190.656L175.872 710.444H65.664L83.52 675.465ZM65.088 711.802H175.296L160.512 746.781H47.424L65.088 711.802ZM46.656 748.139H159.936L145.152 783.118H28.992L46.656 748.139ZM129.792 819.455H10.56L28.224 784.476H144.576L129.792 819.455ZM250.752 819.455H131.52L146.304 784.476H262.656L250.752 819.455ZM371.712 819.455H252.288L264 784.476H380.352L371.712 819.455ZM492.864 819.455H373.44L382.272 784.476H498.624L492.864 819.455ZM613.824 819.455H494.4L500.352 784.476H616.704L613.824 819.455ZM734.784 819.455H615.36L618.24 784.476H734.592V819.455H734.784ZM734.784 783.118H618.432L621.312 748.139H734.784V783.118ZM734.784 746.781H621.504L624.384 711.802H734.784V746.781ZM734.784 710.444H624.576L627.456 675.465H734.784V710.444ZM1278.91 675.465L1293.7 710.444H1183.49L1171.78 675.465H1278.91ZM1079.23 746.781H965.952L960 711.802H1070.21L1079.23 746.781ZM1072.13 711.802H1182.34L1194.05 746.781H1080.77L1072.13 711.802ZM964.416 746.781H851.136L848.256 711.802H958.656L964.416 746.781ZM964.608 748.139L970.56 783.118H854.208L851.328 748.139H964.608ZM966.336 748.139H1079.62L1088.45 783.118H972.096L966.336 748.139ZM1081.15 748.139H1194.43L1206.14 783.118H1089.79L1081.15 748.139ZM1183.87 711.802H1294.08L1308.86 746.781H1195.78L1183.87 711.802ZM1170.05 675.465L1181.76 710.444H1071.55L1062.72 675.465H1170.05ZM1061.18 675.465L1070.02 710.444H959.808L953.856 675.465H1061.18ZM952.32 675.465L958.272 710.444H848.064L845.184 675.465H952.32ZM736.32 675.465H843.648L846.528 710.444H736.32V675.465ZM736.32 711.802H846.72L849.6 746.781H736.32V711.802ZM736.32 748.139H849.6L852.48 783.118H736.128V748.139H736.32ZM736.32 819.455V784.476H852.672L855.552 819.455H736.32ZM857.28 819.455L854.4 784.476H970.752L976.704 819.455H857.28ZM978.24 819.455L972.288 784.476H1088.64L1097.47 819.455H978.24ZM1099.2 819.455L1090.37 784.476H1206.72L1218.43 819.455H1099.2ZM1339.58 819.455H1220.35L1208.64 784.476H1324.8L1339.58 819.455ZM1324.22 783.118H1208.06L1196.35 748.139H1309.63L1324.22 783.118ZM1423.68 746.781H1310.59L1295.81 711.802H1406.02L1423.68 746.781ZM1405.25 710.444H1295.23L1280.45 675.465H1387.58L1405.25 710.444Z" fill="white"/>
<path d="M1440 169.292V170.65C1432.9 170.82 1425.98 170.65 1418.88 170.141C1392.96 168.273 1367.42 162.33 1344.19 152.312C1320.96 142.294 1300.22 128.37 1283.14 111.22C1266.43 94.5798 1253.18 75.2226 1243.97 54.3373C1236.48 37.0177 1231.87 18.6793 1230.53 0.171143H1231.87C1233.22 21.3961 1239.17 42.2815 1248.77 61.8085C1258.75 82.0146 1272.96 100.693 1290.43 116.654C1308.29 132.785 1329.6 145.69 1353.02 154.689C1377.02 163.858 1403.14 168.782 1429.44 169.461C1433.09 169.292 1436.54 169.292 1440 169.292Z" fill="white"/>
<path d="M343.68 0C332.928 24.2814 316.224 46.5251 294.912 64.3541C264 90.1637 223.872 107.144 181.824 112.068C140.352 116.822 91.584 110.54 57.792 137.368C23.232 164.876 19.776 209.023 9.408 246.549C6.912 255.718 3.84 264.718 0 273.378V269.982C6.144 255.888 9.6 240.946 13.056 226.173C21.312 190.855 30.912 149.424 68.352 128.878C85.824 119.199 106.56 115.973 126.912 114.445C148.416 112.747 170.304 112.917 191.616 109.521C233.856 102.729 273.6 83.5415 302.784 55.6943C319.68 39.5633 333.12 20.5458 342.336 0H343.68V0Z" fill="white"/>
<path d="M1440 320.075V321.433C1413.89 333.999 1396.22 358.11 1387.01 382.731C1374.14 417.37 1374.53 454.217 1368.77 489.875C1365.89 507.364 1361.47 524.684 1353.41 540.984C1346.69 554.568 1337.47 567.303 1326.34 578.68C1315.2 589.887 1302.34 599.735 1288.13 607.716C1272.19 616.545 1254.72 622.318 1236.67 627.073C1217.86 631.997 1198.46 636.072 1180.99 644.392C1165.82 651.694 1150.85 661.712 1142.4 675.296C1142.02 675.975 1140.67 675.296 1141.25 674.617C1143.17 671.56 1145.28 668.674 1147.78 666.127C1158.72 654.241 1174.08 645.241 1189.82 639.129C1208.26 631.997 1228.03 628.261 1247.23 622.828C1264.9 617.734 1281.6 610.772 1296.77 601.094C1310.98 591.924 1323.65 580.887 1334.02 568.492C1344.58 555.757 1352.83 541.494 1358.4 526.382C1364.93 508.383 1368 489.705 1370.11 471.027C1374.34 435.709 1375.87 398.862 1393.34 366.091C1402.94 347.073 1419.26 329.923 1440 320.075Z" fill="white"/>
<path d="M299.328 675.124C298.56 671.898 297.6 668.841 296.64 665.785C288.96 640.145 277.056 615.354 261.888 592.431C246.72 569.508 228.096 548.453 206.784 529.945C184.512 510.758 159.168 494.287 131.712 481.382C103.296 467.968 72.96 458.29 41.472 452.347C27.84 449.8 13.824 448.102 0 447.083V445.724C18.048 447.083 35.904 449.63 53.376 453.365C84.864 460.157 115.2 471.025 143.04 485.457C169.728 499.211 194.112 516.191 215.424 536.058C236.352 555.415 254.208 577.149 268.608 600.582C283.008 624.014 293.76 648.975 300.672 674.954C301.056 675.633 299.52 675.973 299.328 675.124Z" fill="white"/>
</svg>
