<svg width="22" height="22" viewBox="0 0 22 22" fill="none" xmlns="http://www.w3.org/2000/svg">
<path d="M22 5.00262V17.7525C22 18.5812 21.329 19.2522 20.5003 19.2522H16.9996V10.7529L11 15.2537L5.00042 10.7529V19.2531H1.49967C1.30265 19.2531 1.10757 19.2143 0.925558 19.1389C0.74355 19.0635 0.578187 18.9529 0.438918 18.8136C0.299649 18.6742 0.189204 18.5088 0.113892 18.3267C0.038581 18.1447 -0.000120145 17.9496 2.80181e-07 17.7525V5.00262C2.80181e-07 3.1482 2.11658 2.08945 3.59975 3.20228L5.00042 4.2537L11 8.7527L16.9996 4.25187L18.4003 3.20228C19.8825 2.09037 22 3.1482 22 5.00262Z" fill="white"/>
</svg>
