<svg width="422" height="324" viewBox="0 0 422 324" fill="none" xmlns="http://www.w3.org/2000/svg">
<g clip-path="url(#clip0_49_214)">
<path d="M394.116 149.737L346.505 157.218L337.636 99.5508L385.247 92.2255L386.959 102.668" stroke="#241814" stroke-width="0.375" stroke-miterlimit="10"/>
<path d="M409.947 99.1577L362.277 106.526L371.152 164.135L418.821 156.767L409.947 99.1577Z" stroke="#241814" stroke-width="0.375" stroke-miterlimit="10"/>
<path d="M415.588 134.307H392.871C389.604 134.307 386.959 136.957 386.959 140.23V144.282H344.482C340.748 144.282 337.636 147.399 337.636 151.14V200.391C337.636 204.132 340.748 207.249 344.482 207.249H414.81C418.544 207.249 421.656 204.132 421.656 200.391V160.959V151.14V140.23C421.5 136.957 418.855 134.307 415.588 134.307Z" fill="#069AD9"/>
<path d="M370.154 176.701V183.402H388.981V176.701" stroke="#F2EEEB" stroke-width="0.375" stroke-miterlimit="10"/>
<path d="M379.49 169.219V178.883" stroke="#F2EEEB" stroke-width="0.375" stroke-miterlimit="10"/>
<path d="M375.444 175.454L379.49 178.883L383.846 175.454" stroke="#F2EEEB" stroke-width="0.375" stroke-miterlimit="10"/>
<path d="M348.838 126.202L365.02 123.709" stroke="#241814" stroke-width="0.375" stroke-miterlimit="10"/>
<path d="M350.239 132.904L365.954 130.567" stroke="#241814" stroke-width="0.375" stroke-miterlimit="10"/>
<path d="M351.483 139.606L367.043 137.268" stroke="#241814" stroke-width="0.375" stroke-miterlimit="10"/>
<path d="M347.593 153.945C347.593 153.945 347.749 153.945 347.593 153.945C347.749 153.945 347.749 153.945 347.593 153.945C347.905 153.945 347.905 154.101 348.06 154.257C347.905 155.348 347.749 156.439 347.593 157.686C347.749 157.218 348.06 156.907 348.216 156.439C348.371 156.127 348.527 156.127 348.838 156.127C348.994 156.127 349.305 156.439 349.149 156.751C348.06 160.18 348.216 164.388 346.037 167.505C345.882 167.661 345.726 167.817 345.571 167.973C344.793 170.934 342.459 173.116 339.347 172.804C339.191 172.96 339.036 173.116 338.725 172.96C336.391 170.934 335.146 168.128 335.613 165.011C336.391 160.959 339.969 159.4 341.992 156.127C341.992 155.971 342.148 155.971 342.303 155.971C342.614 155.971 342.926 156.127 342.77 156.595C342.459 157.998 341.992 159.245 341.37 160.491C343.392 158.933 344.948 157.374 344.793 154.725C344.793 154.413 344.948 154.257 345.259 154.257C345.415 154.257 345.726 154.257 345.726 154.569C345.882 155.504 346.037 156.283 345.882 157.218C346.349 156.283 346.66 155.192 347.127 154.257C347.282 153.945 347.438 153.945 347.593 153.945Z" fill="#EFCCBC"/>
<path d="M122.296 159.712C121.673 158.621 120.429 160.647 119.495 161.894C119.028 161.115 118.25 159.868 117.628 159.245C115.138 156.595 108.137 154.101 108.137 154.101C107.67 153.945 107.514 154.725 107.981 154.88C107.981 154.88 110.782 157.062 112.027 157.998C112.493 158.465 112.804 158.777 113.271 159.245C112.338 158.777 111.093 158.933 110.626 159.868C109.381 159.712 108.603 161.427 108.759 162.518C108.448 162.518 108.137 162.673 107.981 162.985C107.359 163.609 107.514 164.544 107.826 165.167C108.603 168.128 110.937 170.31 113.894 171.09H114.049C116.383 170.934 118.717 170.622 120.584 169.219C120.74 169.219 120.895 169.219 120.895 169.064C121.051 169.064 121.206 168.908 121.206 168.752C121.051 166.726 121.362 164.855 121.829 162.829C121.984 162.206 122.762 160.491 122.296 159.712Z" fill="#EFCCBC"/>
<path d="M260.462 275.67C261.395 274.579 262.329 273.333 263.107 271.774C268.241 261.955 279.755 211.613 278.977 197.43C278.199 183.247 280.066 167.037 244.28 163.92C208.649 160.803 188.889 168.128 183.599 172.96C177.531 178.571 175.508 186.831 177.998 209.119C180.176 228.445 183.91 261.955 195.735 275.67H260.462Z" fill="#0B0D0E"/>
<path d="M182.354 231.407C182.354 231.407 169.751 275.515 158.237 275.671C146.723 275.826 142.678 275.671 142.678 275.671C142.678 275.671 117.939 258.994 112.026 171.713L122.918 167.973C122.918 167.973 145.79 208.496 152.792 235.771C152.792 235.771 156.681 178.415 194.646 167.817L182.354 231.407Z" fill="#0B0D0E"/>
<path d="M274.776 231.407C274.776 231.407 287.379 275.515 298.893 275.671C310.407 275.826 314.452 275.671 314.452 275.671C314.452 275.671 339.191 258.994 345.104 171.713L334.213 167.973C334.213 167.973 311.34 208.496 304.339 235.771C304.339 235.771 300.449 178.415 262.484 167.817L274.776 231.407Z" fill="#0B0D0E"/>
<path d="M218.53 131.684L217.587 149.114L231.414 149.864L232.357 132.434L218.53 131.684Z" fill="#EFCCBC"/>
<path d="M218.607 131.658C218.607 131.658 213.317 143.347 214.251 148.802C214.873 152.543 219.696 153.945 223.275 151.763C224.52 150.984 225.609 149.893 226.231 148.179L218.607 131.658Z" fill="#EFCCBC"/>
<path d="M213.94 163.608C213.94 163.608 210.517 169.219 215.029 172.96C219.541 176.701 230.899 174.83 233.7 163.453C233.856 163.297 217.363 160.803 213.94 163.608Z" fill="#EFCCBC"/>
<path d="M213.939 163.608C213.939 163.608 217.674 156.283 217.362 142.879L231.055 142.412C231.055 142.412 230.899 153.478 233.7 163.453C233.855 163.297 219.23 166.258 213.939 163.608Z" fill="#EFCCBC"/>
<path d="M241.48 272.086H151.703L147.346 208.496H237.123L241.48 272.086Z" fill="#D7D4D4"/>
<path d="M259.217 275.671H151.703V272.086H241.479L259.217 273.333V275.671Z" fill="#D7D4D4"/>
<path d="M241.479 272.086H151.703V273.333H241.479V272.086Z" fill="#BDB8B8"/>
<path d="M241.479 273.333L259.217 274.424V275.671L241.479 275.826V273.333Z" fill="#BDB8B8"/>
<path d="M196.824 237.953C196.824 241.226 194.491 243.876 191.379 243.876C188.422 243.876 185.777 241.382 185.777 238.109C185.777 234.836 188.111 232.186 191.223 232.186C194.179 232.186 196.669 234.836 196.824 237.953Z" fill="#F2EEEB"/>
<path d="M237.123 208.496L238.057 208.807L242.569 272.086H241.48L237.123 208.496Z" fill="#BDB8B8"/>
<path d="M90.5549 171.09L22.0942 177.48V94.7192L90.5549 88.329V171.09Z" fill="white"/>
<path d="M161.349 100.174L102.691 102.824V32.22L161.349 29.4146V100.174Z" fill="white"/>
<path d="M83.8645 250.889L6.37939 252.759V166.258L83.8645 164.388V250.889Z" fill="white"/>
<path d="M84.9535 196.183H60.0587C56.4801 196.183 53.5238 199.144 53.5238 202.729V207.249H7.46844C3.42303 207.249 0 210.522 0 214.73V268.345C0 272.398 3.26744 275.826 7.46844 275.826H84.0199C88.0653 275.826 91.4884 272.553 91.4884 268.345V225.484V214.73V202.729C91.3328 199.144 88.5321 196.183 84.9535 196.183Z" fill="#069AD9"/>
<path d="M33.9189 241.226V249.019H56.3243V241.226" stroke="#241814" stroke-width="0.375" stroke-miterlimit="10"/>
<path d="M45.1216 245.746V234.368" stroke="#241814" stroke-width="0.375" stroke-miterlimit="10"/>
<path d="M40.2983 238.265L45.1217 234.368L50.2563 238.265" stroke="#241814" stroke-width="0.375" stroke-miterlimit="10"/>
<path d="M91.333 275.671H390.537" stroke="#241814" stroke-width="0.375" stroke-miterlimit="10"/>
<path d="M35.6309 197.741L13.2256 198.677V176.389L35.6309 175.454V197.741Z" fill="#EBEDF2"/>
<path d="M76.2402 177.168L40.2983 178.727V175.298L76.2402 173.739V177.168Z" fill="#EBEDF2"/>
<path d="M76.2402 188.078L40.2983 189.637V186.052L76.2402 184.494V188.078Z" fill="#EBEDF2"/>
<path d="M80.9079 102.668L31.7407 107.967V104.382L80.9079 99.239V102.668Z" fill="#EBEDF2"/>
<path d="M153.57 63.8592L110.315 66.1971V62.7682L153.57 60.4303V63.8592Z" fill="#EBEDF2"/>
<path d="M153.57 72.8989L110.315 75.2368V71.6521L153.57 69.3142V72.8989Z" fill="#EBEDF2"/>
<path d="M153.57 81.9387L110.315 84.1208V80.6919L153.57 78.354V81.9387Z" fill="#EBEDF2"/>
<path d="M153.57 90.8227L110.315 93.1605V89.5758L153.57 87.2379V90.8227Z" fill="#EBEDF2"/>
<path d="M80.9079 111.552L31.7407 116.851V113.266L80.9079 107.967V111.552Z" fill="#EBEDF2"/>
<path d="M80.9079 120.436L31.7407 125.579V122.15L80.9079 116.851V120.436Z" fill="#EBEDF2"/>
<path d="M80.9079 129.164L31.7407 134.463V130.878L80.9079 125.579V129.164Z" fill="#EBEDF2"/>
<path d="M217.674 0.58075H190.134V66.9764H217.674V0.58075Z" fill="white"/>
<path d="M245.214 0.58075H190.134V66.9764H245.214V0.58075Z" stroke="#241814" stroke-width="0.375" stroke-miterlimit="10"/>
<path d="M220.163 134.931C220.163 134.931 218.608 136.489 216.585 136.333L216.274 137.113C216.274 137.113 213.784 135.866 213.784 131.969C213.784 128.073 218.296 127.294 220.63 128.852C220.63 128.852 225.454 126.67 229.966 127.605C234.634 128.54 235.1 133.216 234.789 135.398C234.322 137.58 231.833 142.412 231.833 142.879C231.833 142.879 228.099 137.736 227.788 135.71C227.788 135.71 222.186 137.424 220.163 134.931Z" fill="#069AD9"/>
<path d="M215.34 150.984C215.34 150.984 212.695 160.803 208.805 164.388L213.94 163.764C213.94 163.764 216.274 159.868 217.052 152.075C216.896 152.231 216.118 151.919 215.34 150.984Z" fill="#069AD9"/>
<path d="M234.944 135.398C234.944 135.398 232.922 156.751 242.724 163.764C242.724 163.764 235.567 163.453 233.855 163.297C233.855 163.297 227.32 164.699 229.343 153.478C229.343 153.478 226.231 143.035 231.055 141.632C231.055 141.632 230.277 134.775 234.944 135.398Z" fill="#069AD9"/>
<path d="M229.81 137.113C229.81 137.113 231.677 135.554 233.078 137.113C234.322 138.515 233.389 142.1 229.188 141.788C229.188 141.788 228.254 139.606 229.81 137.113Z" fill="#EFCCBC"/>
<path d="M22.0942 163.764L88.221 159.556V171.246L83.8645 171.713V164.388L22.0942 165.79V163.764Z" fill="#F2EEEB"/>
<path d="M62.3926 146.776V150.361L80.9081 148.334V144.75L62.3926 146.776Z" fill="#EBEDF2"/>
<path d="M130.231 39.5453L110.315 40.4805V57.9366L130.231 56.8456V39.5453Z" fill="#EBEDF2"/>
<path d="M217.674 33.1552H195.424V36.7399H217.674V33.1552Z" fill="#EBEDF2"/>
<path d="M217.674 42.3508H195.424V45.9355H217.674V42.3508Z" fill="#EBEDF2"/>
<path d="M204.604 11.335C204.604 13.8287 202.581 16.0107 199.936 16.0107C197.447 16.0107 195.269 13.9846 195.269 11.335C195.269 8.84126 197.291 6.65924 199.936 6.65924C202.426 6.65924 204.604 8.6854 204.604 11.335Z" fill="#EBEDF2"/>
<path d="M204.604 23.6478C204.604 26.1415 202.581 28.3235 199.936 28.3235C197.447 28.3235 195.269 26.2974 195.269 23.6478C195.269 21.1541 197.291 18.972 199.936 18.972C202.426 19.1279 204.604 21.1541 204.604 23.6478Z" fill="#EBEDF2"/>
<path d="M276.177 95.0308L331.256 92.2254V25.8298L276.177 28.4794V95.0308Z" stroke="#241814" stroke-width="0.375" stroke-miterlimit="10"/>
<path d="M281.467 53.2608L325.344 51.0788" stroke="#241814" stroke-width="0.375" stroke-miterlimit="10"/>
<path d="M325.344 43.5976L281.467 45.7797V36.584L325.344 34.5579V43.5976Z" stroke="#241814" stroke-width="0.375" stroke-miterlimit="10"/>
<path d="M281.467 60.742L325.344 58.56" stroke="#241814" stroke-width="0.375" stroke-miterlimit="10"/>
<path d="M281.467 68.0674L325.344 66.0413" stroke="#241814" stroke-width="0.375" stroke-miterlimit="10"/>
<path d="M281.467 75.5486L325.344 73.3666" stroke="#241814" stroke-width="0.375" stroke-miterlimit="10"/>
<path d="M281.467 83.0298L325.344 80.8478" stroke="#241814" stroke-width="0.375" stroke-miterlimit="10"/>
<path d="M376.689 112.019L396.45 109.058" stroke="#241814" stroke-width="0.375" stroke-miterlimit="10"/>
<path d="M346.038 112.955L362.842 110.305" stroke="#241814" stroke-width="0.375" stroke-miterlimit="10"/>
<path d="M377.778 118.877L397.694 115.76" stroke="#241814" stroke-width="0.375" stroke-miterlimit="10"/>
<path d="M347.438 119.656L363.931 117.007" stroke="#241814" stroke-width="0.375" stroke-miterlimit="10"/>
<path d="M217.674 34.8696H238.99" stroke="#241814" stroke-width="0.375" stroke-miterlimit="10"/>
<path d="M217.674 44.0652H238.99" stroke="#241814" stroke-width="0.375" stroke-miterlimit="10"/>
<path d="M159.171 186.831C159.171 170.466 159.171 152.698 159.171 152.543C159.171 141.477 149.68 132.437 137.855 132.437C130.542 132.437 124.007 136.022 120.273 141.321" stroke="#241814" stroke-width="0.375" stroke-miterlimit="10"/>
<path d="M119.962 138.048L120.273 141.165L123.541 141.009" stroke="#241814" stroke-width="0.375" stroke-miterlimit="10"/>
<path d="M63.6374 69.1584L63.9486 65.7295L60.6812 65.262" stroke="#241814" stroke-width="0.375" stroke-miterlimit="10"/>
<path d="M360.197 68.5349L363.464 68.8467L363.931 65.7295" stroke="#241814" stroke-width="0.375" stroke-miterlimit="10"/>
<path d="M158.86 10.8674L161.349 8.52952L159.171 6.19165" stroke="#241814" stroke-width="0.375" stroke-miterlimit="10"/>
<path d="M266.997 10.8674L269.486 8.52952L267.308 6.19165" stroke="#241814" stroke-width="0.375" stroke-miterlimit="10"/>
<path d="M309.162 108.435H259.995C256.572 108.435 253.771 111.24 253.771 114.669V128.696V144.126L262.485 134.775H309.162C312.585 134.775 315.386 131.969 315.386 128.54V114.513C315.386 111.24 312.585 108.435 309.162 108.435Z" fill="#069AD9"/>
<path d="M175.82 119.968C176.421 119.968 176.909 119.48 176.909 118.877C176.909 118.275 176.421 117.786 175.82 117.786C175.218 117.786 174.73 118.275 174.73 118.877C174.73 119.48 175.218 119.968 175.82 119.968Z" stroke="#241814" stroke-width="0.375" stroke-miterlimit="10"/>
<path d="M185.311 118.877C185.311 119.501 184.844 119.968 184.221 119.968C183.599 119.968 183.132 119.501 183.132 118.877C183.132 118.254 183.599 117.786 184.221 117.786C184.688 117.63 185.311 118.254 185.311 118.877Z" stroke="#241814" stroke-width="0.375" stroke-miterlimit="10"/>
<path d="M193.557 118.877C193.557 119.501 193.09 119.968 192.468 119.968C191.846 119.968 191.379 119.501 191.379 118.877C191.379 118.254 191.846 117.786 192.468 117.786C193.09 117.63 193.557 118.254 193.557 118.877Z" stroke="#241814" stroke-width="0.375" stroke-miterlimit="10"/>
<path d="M265.129 118.877H307.139" stroke="#241814" stroke-width="0.375" stroke-miterlimit="10"/>
<path d="M265.129 124.956H307.139" stroke="#241814" stroke-width="0.375" stroke-miterlimit="10"/>
<path d="M378.557 275.826H103.002V279.723H378.557V275.826Z" stroke="#241814" stroke-width="0.375" stroke-miterlimit="10"/>
<path d="M357.863 253.227C357.863 253.227 344.482 249.954 330.79 260.708C320.054 269.28 311.963 282.372 284.734 282.996C284.734 282.996 294.848 308.868 317.564 323.519C317.564 323.519 347.594 317.44 362.219 298.893C371.555 287.048 386.492 288.918 386.492 288.918L357.863 253.227Z" fill="white"/>
<path d="M274.621 230.16C274.621 230.16 273.688 225.017 273.221 223.146C273.221 223.146 269.642 233.589 272.443 240.291L274.621 230.16Z" fill="#069AD9"/>
<path d="M304.339 235.771C304.339 235.771 304.806 238.576 303.405 238.888C303.405 238.888 303.872 231.251 303.716 230.004C303.561 230.16 304.183 233.277 304.339 235.771Z" fill="#069AD9"/>
<path d="M219.852 180.441C220.368 180.441 220.786 180.023 220.786 179.506C220.786 178.99 220.368 178.571 219.852 178.571C219.336 178.571 218.918 178.99 218.918 179.506C218.918 180.023 219.336 180.441 219.852 180.441Z" fill="#F2EEEB"/>
<path d="M219.852 185.74C220.368 185.74 220.786 185.322 220.786 184.805C220.786 184.289 220.368 183.87 219.852 183.87C219.336 183.87 218.918 184.289 218.918 184.805C218.918 185.322 219.336 185.74 219.852 185.74Z" fill="#F2EEEB"/>
<path d="M44.9663 52.9491C44.9663 52.9491 62.8594 40.7922 65.6601 25.5181C68.6164 10.244 50.7232 31.7524 65.6601 39.2336C72.5062 42.6625 77.7963 34.0903 77.7963 34.0903" stroke="#241814" stroke-width="0.375" stroke-miterlimit="10"/>
<path d="M229.654 137.424L229.499 136.645C228.099 136.801 226.231 137.892 225.298 138.515V137.58H220.008V138.671H218.919V137.58H213.628V141.944H218.919V139.45H220.008V141.944H225.298V139.295C225.92 138.983 228.099 137.58 229.654 137.424ZM218.296 141.321H214.406V138.359H218.296V141.321ZM224.52 141.321H220.63V138.359H224.52V141.321Z" fill="#069AD9"/>
<path d="M216.896 152.231C216.896 152.231 220.786 153.634 224.209 151.14C224.209 151.14 225.142 161.115 215.185 160.647C215.185 160.491 216.74 154.569 216.896 152.231Z" fill="#CEA697"/>
<path d="M337.636 99.5508C337.636 99.5508 351.172 86.9263 348.838 80.6919C346.505 74.4576 340.281 90.8227 352.573 91.4462C364.864 91.9137 364.709 75.7045 360.819 73.5225C356.929 71.3404 353.973 89.5759 367.198 88.329" stroke="#241814" stroke-width="0.375" stroke-miterlimit="10"/>
</g>
<defs>
<clipPath id="clip0_49_214">
<rect width="421.5" height="323.25" fill="white" transform="translate(0 0.269043)"/>
</clipPath>
</defs>
</svg>
