<svg width="380" height="383" viewBox="0 0 380 383" fill="none" xmlns="http://www.w3.org/2000/svg">
<g clip-path="url(#clip0_61_218)">
<path d="M217.262 323.716L216.884 323.5L134.722 275.771L216.722 227.825L217.1 228.041L299.262 275.771L217.262 323.716ZM137.639 275.771L217.262 322.039L296.346 275.771L216.722 229.502L137.585 275.771H137.639Z" fill="#E43157"/>
<path d="M121.434 349.096L116.734 346.337L117.49 345.092L121.488 347.419L123.054 346.499L123.81 347.744L121.488 349.096H121.434ZM126.241 346.283L125.485 345.038L126.727 344.28L127.484 345.525L126.241 346.283ZM114.195 344.876L112.953 344.118L113.709 342.873L114.951 343.631L114.249 344.876H114.195ZM130.023 344.064L129.266 342.819L135.532 339.139L136.289 340.384L130.023 344.064ZM110.414 342.711L104.148 339.031L104.904 337.786L111.17 341.466L110.414 342.711ZM138.774 338.923L138.017 337.678L139.26 336.921L140.016 338.165L138.774 338.923ZM101.609 337.57L100.366 336.812L101.069 335.568L102.311 336.325L101.609 337.57ZM142.555 336.704L141.799 335.459L148.065 331.78L148.821 333.024L142.555 336.704ZM97.8275 335.351L91.5614 331.671L92.3176 330.427L98.5838 334.107L97.8275 335.351ZM151.36 331.563L150.604 330.319L151.846 329.561L152.602 330.806L151.36 331.563ZM89.0765 330.264L87.8341 329.507L88.5904 328.262L89.8328 329.02L89.0765 330.264ZM155.141 329.399L154.385 328.154L160.651 324.474L161.407 325.719L155.141 329.399ZM85.2952 328.1L79.0291 324.474L79.7853 323.229L86.0515 326.855L85.2952 328.1ZM163.946 324.258L163.19 323.013L164.432 322.255L165.189 323.5L163.946 324.258ZM76.4902 322.959L75.2478 322.255L75.95 321.011L77.1925 321.714L76.4902 322.959ZM167.727 322.039L166.971 320.794L173.237 317.114L173.994 318.359L167.727 322.039ZM72.7629 320.794L66.4968 317.169L67.253 315.924L73.5192 319.604L72.7629 320.848V320.794ZM176.532 316.898L175.776 315.653L177.019 314.896L177.775 316.14L176.532 316.898ZM63.9579 315.653L62.7155 314.896L63.4718 313.651L64.7142 314.409L63.9579 315.653ZM180.314 314.679L179.558 313.435L185.824 309.755L186.58 310.999L180.314 314.679ZM60.1766 313.435L54.8828 310.35L58.0699 308.51L58.8262 309.755L57.7998 310.35L60.9329 312.136L60.1766 313.381V313.435ZM183.717 309.755L177.451 306.075L178.207 304.83L184.473 308.51L183.717 309.755ZM61.311 308.294L60.5548 307.049L61.7972 306.291L62.5534 307.536L61.311 308.294ZM65.0923 306.075L64.3361 304.83L70.6022 301.151L71.3585 302.395L65.0923 306.075ZM174.966 304.614L173.724 303.856L174.426 302.612L175.668 303.369L174.966 304.614ZM171.185 302.395L164.918 298.769L165.675 297.525L171.941 301.205L171.185 302.449V302.395ZM73.8973 300.88L73.1411 299.635L74.3835 298.878L75.1397 300.122L73.8973 300.88ZM77.6786 298.661L76.9224 297.417L83.1885 293.737L83.9448 294.981L77.6786 298.661ZM162.38 297.254L161.137 296.497L161.839 295.252L163.082 296.01L162.38 297.254ZM158.598 295.09L152.332 291.41L153.088 290.165L159.355 293.845L158.598 295.09ZM86.4296 293.574L85.6734 292.33L86.9158 291.572L87.672 292.817L86.4296 293.574ZM90.2109 291.356L89.4546 290.111L95.7208 286.431L96.4771 287.676L90.2109 291.356ZM149.793 290.003L148.551 289.299L149.307 288.055L150.55 288.758L149.793 290.003ZM146.012 287.838L139.746 284.212L140.502 282.968L146.768 286.594L146.012 287.838ZM98.9619 286.269L98.2057 285.024L99.4481 284.267L100.204 285.511L98.9619 286.269ZM102.743 284.05L101.987 282.805L108.253 279.126L109.009 280.37L102.743 284.05ZM137.207 282.697L135.965 281.94L136.667 280.695L137.909 281.398L137.207 282.643V282.697ZM133.426 280.533L127.16 276.853L127.862 275.608L134.128 279.288L133.372 280.533H133.426ZM111.548 278.909L110.792 277.665L112.034 276.907L112.791 278.152L111.548 278.909ZM115.33 276.69L114.573 275.446L121.055 271.658L121.596 271.982L121.164 272.686L121.434 273.119L115.33 276.69ZM124.675 275.392L123.432 274.634L124.135 273.389L125.377 274.093L124.675 275.338V275.392Z" fill="#069AD9"/>
<path d="M334.698 290.814L333.942 289.57L340.208 285.89L340.965 287.135L334.698 290.814ZM331.457 289.462L330.215 288.758L330.917 287.513L332.16 288.217L331.457 289.462ZM327.676 287.297L321.41 283.671L322.166 282.427L328.432 286.052L327.676 287.297ZM343.504 285.728L342.747 284.483L343.99 283.725L344.746 284.97L343.504 285.728ZM347.285 283.509L346.529 282.264L352.795 278.584L353.551 279.829L347.285 283.509ZM318.925 282.21L317.683 281.507L318.439 280.262L319.681 281.02L318.925 282.264V282.21ZM315.144 280.046L308.878 276.366L309.634 275.121L315.9 278.801L315.144 280.046ZM356.09 278.422L355.334 277.177L356.576 276.42L357.332 277.665L356.09 278.422ZM359.871 276.203L359.115 274.959L365.381 271.279L366.137 272.524L359.871 276.203ZM306.339 274.905L305.096 274.147L305.799 272.902L307.041 273.66L306.339 274.905ZM302.557 272.74L296.291 269.06L297.048 267.816L303.314 271.495L302.557 272.74ZM368.622 271.062L367.866 269.818L369.108 269.06L369.865 270.305L368.622 271.062ZM372.403 268.844L371.647 267.599L377.427 264.244L377.859 263.486L379.75 264.569L372.403 268.844ZM293.752 267.599L292.51 266.842L293.212 265.597L294.455 266.354L293.752 267.599ZM289.971 265.435L288.513 264.569L295.481 260.51L296.237 261.755L290.349 265.218L290.241 265.056L290.025 265.435H289.971ZM374.618 263.27L373.376 262.512L374.132 261.268L375.374 262.025L374.618 263.27ZM370.837 261.051L364.571 257.425L365.327 256.181L371.593 259.807L370.837 261.051ZM298.668 260.239L297.912 258.995L299.154 258.237L299.911 259.482L298.668 260.239ZM302.449 258.021L301.693 256.776L307.959 253.096L308.716 254.341L302.449 258.021ZM362.032 255.91L360.789 255.207L361.546 253.962L362.788 254.666L362.032 255.91ZM358.251 253.692L351.984 250.066L352.741 248.821L359.007 252.447L358.251 253.692ZM311.2 252.88L310.444 251.635L311.687 250.878L312.443 252.122L311.2 252.88ZM314.982 250.661L314.225 249.416L320.492 245.737L321.248 246.981L314.982 250.661ZM349.446 248.551L348.203 247.793L348.959 246.548L350.202 247.306L349.446 248.551ZM345.664 246.386L339.398 242.706L340.154 241.462L346.421 245.087L345.664 246.332V246.386ZM323.787 245.52L323.031 244.275L324.273 243.518L325.029 244.763L323.787 245.52ZM327.568 243.301L326.812 242.057L333.078 238.377L333.834 239.622L327.568 243.301ZM336.913 241.245L335.671 240.487L336.427 239.243L337.67 240L336.913 241.245Z" fill="#069AD9"/>
<path d="M365.165 231.396L365.057 263.811L334.158 281.885L334.266 249.471L365.165 231.396Z" fill="#069AD9"/>
<path d="M334.159 282.589C334.159 282.589 333.889 282.589 333.78 282.481C333.564 282.373 333.402 282.102 333.402 281.831L333.51 249.471C333.51 249.471 333.672 248.984 333.889 248.821L364.787 230.747C364.787 230.747 365.273 230.638 365.489 230.747C365.705 230.855 365.867 231.126 365.867 231.396L365.759 263.757C365.759 263.757 365.597 264.244 365.381 264.406L334.483 282.481C334.483 282.481 334.267 282.589 334.105 282.589H334.159ZM334.969 249.903L334.861 280.587L364.301 263.378L364.409 232.695L334.969 249.903Z" fill="#1A1835"/>
<path d="M334.266 249.471L334.158 281.886L303.098 263.811L303.152 231.396L334.266 249.471Z" fill="black"/>
<path d="M334.158 282.589C334.158 282.589 333.888 282.589 333.78 282.481L302.665 264.406C302.665 264.406 302.287 264.027 302.287 263.757L302.395 231.396C302.395 231.396 302.557 230.909 302.773 230.747C302.989 230.638 303.259 230.638 303.476 230.747L334.59 248.821C334.59 248.821 334.968 249.2 334.968 249.471L334.86 281.831C334.86 281.831 334.698 282.318 334.482 282.481C334.374 282.535 334.266 282.589 334.104 282.589H334.158ZM303.8 263.378L333.456 280.587L333.564 249.903L303.908 232.695L303.8 263.378Z" fill="#1A1835"/>
<path d="M365.165 231.396L334.267 249.47L303.152 231.396L334.05 213.376L365.165 231.396Z" fill="white"/>
<path d="M334.266 250.228C334.266 250.228 333.996 250.228 333.888 250.12L302.773 232.045C302.773 232.045 302.395 231.667 302.395 231.396C302.395 231.125 302.557 230.909 302.773 230.747L333.672 212.672C333.672 212.672 334.158 212.564 334.428 212.672L365.543 230.747C365.543 230.747 365.921 231.125 365.921 231.396C365.921 231.667 365.759 231.883 365.543 232.045L334.644 250.12C334.644 250.12 334.428 250.228 334.266 250.228ZM304.61 231.45L334.266 248.659L363.706 231.45L334.05 214.242L304.61 231.45Z" fill="#1A1835"/>
<path d="M334.051 213.376L365.165 231.45L365.057 263.811L334.159 281.886L303.044 263.811L303.152 231.45L334.051 213.376ZM334.051 209.75C333.402 209.75 332.808 209.912 332.214 210.237L301.315 228.312C300.181 228.961 299.533 230.152 299.533 231.45L299.425 263.811C299.425 265.11 300.127 266.3 301.261 266.95L332.376 285.024C332.916 285.349 333.564 285.511 334.213 285.511C334.861 285.511 335.455 285.349 336.049 285.024L366.948 266.95C368.082 266.3 368.731 265.11 368.731 263.811L368.839 231.45C368.839 230.152 368.136 228.961 367.002 228.312L335.887 210.237C335.347 209.912 334.699 209.75 334.051 209.75Z" fill="#1A1835"/>
<path d="M283.867 195.789L283.651 265.705L217.046 304.668L217.208 234.751L283.867 195.789Z" fill="#E43157" fill-opacity="0.4"/>
<path d="M217.046 305.371C217.046 305.371 216.776 305.371 216.668 305.263C216.452 305.155 216.29 304.884 216.29 304.614L216.506 234.751C216.506 234.751 216.668 234.264 216.884 234.102L283.543 195.139C283.543 195.139 284.029 195.031 284.245 195.139C284.461 195.247 284.623 195.518 284.623 195.788L284.407 265.651C284.407 265.651 284.245 266.138 284.029 266.3L217.37 305.263C217.37 305.263 217.154 305.371 216.992 305.371H217.046ZM217.965 235.184L217.749 303.369L282.949 265.272L283.165 197.087L217.965 235.184Z" fill="#1A1835"/>
<path d="M217.208 234.751L217.046 304.668L149.955 265.705L150.117 195.788L217.208 234.751Z" fill="#069AD9"/>
<path d="M217.046 305.371C217.046 305.371 216.776 305.371 216.668 305.263L149.577 266.3C149.577 266.3 149.199 265.922 149.199 265.651L149.415 195.788C149.415 195.788 149.577 195.301 149.793 195.139C150.009 195.031 150.28 195.031 150.496 195.139L217.587 234.102C217.587 234.102 217.965 234.481 217.965 234.751L217.749 304.614C217.749 304.614 217.587 305.101 217.371 305.263C217.263 305.317 217.154 305.371 216.992 305.371H217.046ZM150.712 265.272L216.344 303.369L216.56 235.184L150.928 197.087L150.712 265.272Z" fill="#1A1835"/>
<path d="M283.867 195.788L217.208 234.751L150.117 195.788L216.776 156.826L283.867 195.788Z" fill="white"/>
<path d="M217.209 235.509C217.209 235.509 216.938 235.509 216.83 235.401L149.739 196.438C149.739 196.438 149.361 196.059 149.361 195.788C149.361 195.518 149.523 195.301 149.739 195.139L216.398 156.176C216.398 156.176 216.884 156.068 217.155 156.176L284.245 195.139C284.245 195.139 284.624 195.518 284.624 195.788C284.624 196.059 284.462 196.275 284.245 196.438L217.587 235.401C217.587 235.401 217.371 235.509 217.209 235.509ZM151.576 195.788L217.209 233.885L282.409 195.788L216.776 157.691L151.576 195.788Z" fill="#1A1835"/>
<path d="M216.776 156.826L283.867 195.788L283.651 265.651L216.992 304.614L149.901 265.651L150.118 195.788L216.776 156.826ZM216.776 153.2C216.128 153.2 215.534 153.362 214.94 153.687L148.281 192.65C147.147 193.299 146.498 194.49 146.498 195.788L146.282 265.651C146.282 266.95 146.984 268.14 148.119 268.79L215.21 307.753C215.75 308.077 216.398 308.24 217.046 308.24C217.695 308.24 218.289 308.077 218.883 307.753L285.542 268.79C286.676 268.14 287.324 266.95 287.324 265.651L287.541 195.788C287.541 194.49 286.838 193.299 285.704 192.65L218.613 153.687C218.073 153.362 217.425 153.2 216.776 153.2Z" fill="#1A1835"/>
<path d="M249.458 87.6666L249.35 127.766L211.104 150.115L211.213 110.016L249.458 87.6666Z" fill="#D5D6E0"/>
<path d="M211.104 150.819C211.104 150.819 210.834 150.819 210.726 150.711C210.51 150.602 210.348 150.332 210.348 150.061L210.456 109.962C210.456 109.962 210.618 109.475 210.834 109.313L249.079 86.963C249.079 86.963 249.566 86.8548 249.836 86.963C250.052 87.0712 250.214 87.3418 250.214 87.6124L250.106 127.712C250.106 127.712 249.944 128.199 249.728 128.361L211.483 150.711C211.483 150.711 211.266 150.819 211.104 150.819ZM211.969 110.395L211.861 148.817L248.647 127.333L248.755 88.9112L211.969 110.395Z" fill="#1A1835"/>
<path d="M211.212 110.016L211.104 150.115L172.643 127.766L172.751 87.6664L211.212 110.016Z" fill="#F2F3F8"/>
<path d="M211.104 150.819C211.104 150.819 210.834 150.819 210.726 150.711L172.265 128.361C172.265 128.361 171.887 127.982 171.887 127.712L171.995 87.6124C171.995 87.6124 172.157 87.1254 172.373 86.963C172.589 86.8548 172.859 86.8548 173.075 86.963L211.536 109.313C211.536 109.313 211.914 109.691 211.914 109.962L211.806 150.061C211.806 150.061 211.644 150.548 211.428 150.711C211.32 150.765 211.212 150.819 211.05 150.819H211.104ZM173.345 127.333L210.402 148.817L210.51 110.395L173.453 88.9112L173.345 127.333Z" fill="#1A1835"/>
<path d="M249.457 87.6665L211.212 110.016L172.751 87.6665L210.996 65.317L249.457 87.6665Z" fill="white"/>
<path d="M211.212 110.719C211.212 110.719 210.942 110.719 210.834 110.611L172.373 88.2617C172.373 88.2617 171.995 87.8829 171.995 87.6123C171.995 87.3418 172.157 87.1253 172.373 86.9629L210.618 64.6134C210.618 64.6134 211.104 64.5052 211.374 64.6134L249.835 86.9629C249.835 86.9629 250.213 87.3418 250.213 87.6123C250.213 87.8829 250.051 88.0994 249.835 88.2617L211.59 110.611C211.59 110.611 211.374 110.719 211.212 110.719ZM174.155 87.6123L211.212 109.15L247.999 87.6664L210.942 66.1286L174.155 87.6123Z" fill="#1A1835"/>
<path d="M121.218 196.546L121.11 221.277L97.5576 235.022L97.6116 210.345L121.218 196.546Z" fill="#E43157" fill-opacity="0.4"/>
<path d="M97.557 235.779C97.557 235.779 97.2869 235.779 97.1789 235.671C96.9628 235.563 96.8008 235.292 96.8008 235.022V210.345C96.8008 210.345 97.0169 209.858 97.2329 209.696L120.785 195.897C120.785 195.897 121.271 195.788 121.487 195.897C121.703 196.005 121.865 196.275 121.865 196.546V221.223C121.865 221.223 121.649 221.71 121.433 221.872L97.8812 235.671C97.8812 235.671 97.6651 235.779 97.503 235.779H97.557ZM98.3673 210.778V233.777L120.407 220.844V197.845L98.3673 210.778Z" fill="#1A1835"/>
<path d="M97.6114 210.345L97.5574 235.022L73.8433 221.277L73.8973 196.546L97.6114 210.345Z" fill="black"/>
<path d="M97.5573 235.78C97.5573 235.78 97.2872 235.78 97.1792 235.671L73.465 221.872C73.465 221.872 73.0869 221.493 73.0869 221.223V196.546C73.0869 196.546 73.303 196.059 73.5191 195.897C73.7351 195.788 74.0052 195.788 74.2213 195.897L97.9354 209.696C97.9354 209.696 98.3136 210.075 98.3136 210.345V235.022C98.3136 235.022 98.0975 235.509 97.8814 235.671C97.7734 235.725 97.6653 235.78 97.5033 235.78H97.5573ZM74.5454 220.844L96.801 233.777V210.778L74.5994 197.845V220.844H74.5454Z" fill="#1A1835"/>
<path d="M121.218 196.546L97.6116 210.345L73.8975 196.546L97.5035 182.801L121.218 196.546Z" fill="white"/>
<path d="M97.611 211.049C97.611 211.049 97.3409 211.049 97.2329 210.941L73.5188 197.141C73.5188 197.141 73.1406 196.763 73.1406 196.492C73.1406 196.221 73.3027 196.005 73.5188 195.843L97.0708 182.043C97.0708 182.043 97.557 181.935 97.8271 182.043L121.541 195.843C121.541 195.843 121.919 196.221 121.919 196.492C121.919 196.763 121.757 196.979 121.541 197.141L97.9891 210.941C97.9891 210.941 97.7731 211.049 97.611 211.049ZM75.3554 196.546L97.611 209.48L119.705 196.546L97.449 183.613L75.3554 196.546Z" fill="#1A1835"/>
<path d="M97.5035 182.801L121.218 196.6V221.277L97.6116 235.076L73.8975 221.277V196.6L97.5035 182.801ZM97.5035 179.175C96.8553 179.175 96.2611 179.337 95.6669 179.662L72.1148 193.461C70.9805 194.111 70.3322 195.301 70.3322 196.6V221.277C70.2782 222.575 70.9264 223.766 72.0608 224.415L95.7749 238.215C96.3151 238.539 96.9633 238.702 97.6116 238.702C98.2598 238.702 98.854 238.539 99.4482 238.215L123 224.415C124.135 223.766 124.783 222.575 124.783 221.277V196.6C124.837 195.301 124.189 194.111 123.054 193.461L99.3402 179.662C98.8 179.337 98.1517 179.175 97.5035 179.175Z" fill="#1A1835"/>
<path d="M328.379 150.873L328.216 195.951L285.218 221.114L285.326 175.982L328.379 150.873Z" fill="#D5D6E0"/>
<path d="M285.217 221.872C285.217 221.872 284.947 221.872 284.839 221.764C284.623 221.655 284.461 221.385 284.461 221.114L284.569 175.982C284.569 175.982 284.731 175.495 284.947 175.333L328 150.169C328 150.169 328.486 150.061 328.702 150.169C328.918 150.278 329.08 150.548 329.08 150.819L328.972 195.951C328.972 195.951 328.81 196.438 328.594 196.6L285.541 221.764C285.541 221.764 285.325 221.872 285.163 221.872H285.217ZM286.081 176.469L285.973 219.924L327.568 195.626L327.676 152.172L286.081 176.469Z" fill="#1A1835"/>
<path d="M285.326 175.982L285.218 221.114L241.895 195.951L242.003 150.873L285.326 175.982Z" fill="#F2F3F8"/>
<path d="M285.217 221.872C285.217 221.872 284.947 221.872 284.839 221.764L241.516 196.6C241.516 196.6 241.138 196.221 241.138 195.951L241.246 150.819C241.246 150.819 241.408 150.332 241.624 150.169C241.84 150.061 242.111 150.061 242.327 150.169L285.649 175.333C285.649 175.333 286.028 175.712 286.028 175.982L285.92 221.114C285.92 221.114 285.757 221.601 285.541 221.764C285.433 221.818 285.325 221.872 285.163 221.872H285.217ZM242.651 195.572L284.515 219.87L284.623 176.415L242.759 152.118L242.651 195.572Z" fill="#1A1835"/>
<path d="M328.379 150.873L285.326 175.982L242.003 150.873L285.056 125.709L328.379 150.873Z" fill="white"/>
<path d="M285.326 176.74C285.326 176.74 285.056 176.74 284.948 176.632L241.625 151.468C241.625 151.468 241.247 151.089 241.247 150.819C241.247 150.548 241.409 150.332 241.625 150.169L284.677 125.006C284.677 125.006 285.164 124.898 285.434 125.006L328.757 150.169C328.757 150.169 329.135 150.548 329.135 150.819C329.135 151.089 328.973 151.306 328.757 151.468L285.704 176.632C285.704 176.632 285.488 176.74 285.326 176.74ZM243.461 150.873L285.326 175.171L326.92 150.873L285.056 126.575L243.461 150.873Z" fill="#1A1835"/>
<path d="M135.694 97.1367L135.532 142.269L92.5332 167.378L92.6412 122.3L135.694 97.1367Z" fill="#00CBF3"/>
<path d="M92.5336 168.136C92.5336 168.136 92.2635 168.136 92.1555 168.027C91.9394 167.919 91.7773 167.649 91.7773 167.378L91.8854 122.246C91.8854 122.246 92.0474 121.759 92.2635 121.597L135.316 96.4331C135.316 96.4331 135.802 96.3249 136.018 96.4331C136.235 96.5413 136.397 96.8119 136.397 97.0825L136.289 142.214C136.289 142.214 136.127 142.702 135.91 142.864L92.8577 168.027C92.8577 168.027 92.6416 168.136 92.4796 168.136H92.5336ZM93.3979 122.733L93.2899 166.187L134.884 141.89L134.992 98.4354L93.3979 122.733Z" fill="#1A1835"/>
<path d="M92.6418 122.3L92.5338 167.378L49.2109 142.269L49.319 97.1365L92.6418 122.3Z" fill="#069AD9"/>
<path d="M92.5337 168.136C92.5337 168.136 92.2636 168.136 92.1555 168.027L48.8327 142.864C48.8327 142.864 48.4546 142.485 48.4546 142.214L48.5626 97.0825C48.5626 97.0825 48.7247 96.5954 48.9408 96.4331C49.1568 96.3249 49.4269 96.3249 49.643 96.4331L92.9658 121.597C92.9658 121.597 93.344 121.975 93.344 122.246L93.2359 167.378C93.2359 167.378 93.0739 167.865 92.8578 168.027C92.7497 168.081 92.6417 168.136 92.4797 168.136H92.5337ZM49.9671 141.836L91.8314 166.133L91.9395 122.679L50.0751 98.3812L49.9671 141.836Z" fill="#1A1835"/>
<path d="M135.694 97.1366L92.6417 122.3L49.3188 97.1366L92.3716 71.9731L135.694 97.1366Z" fill="white"/>
<path d="M92.6416 123.004C92.6416 123.004 92.3715 123.004 92.2635 122.895L48.9406 97.7318C48.9406 97.7318 48.5625 97.353 48.5625 97.0824C48.5625 96.8119 48.7246 96.5954 48.9406 96.4331L91.9934 71.2695C91.9934 71.2695 92.4795 71.1613 92.7496 71.2695L136.072 96.4331C136.072 96.4331 136.451 96.8119 136.451 97.0824C136.451 97.353 136.289 97.5695 136.072 97.7318L93.0197 122.895C93.0197 122.895 92.8036 123.004 92.6416 123.004ZM50.7773 97.1366L92.6416 121.434L134.236 97.1366L92.3715 72.8389L50.7773 97.1366Z" fill="#1A1835"/>
<path d="M92.3718 71.973L135.695 97.1365L135.587 142.269L92.5339 167.432L49.211 142.269L49.3191 97.1365L92.3718 71.973ZM92.3718 68.3473C91.7236 68.3473 91.1294 68.5096 90.5352 68.8343L47.4824 93.9979C46.3481 94.6472 45.6998 95.8378 45.6998 97.1365L45.5918 142.269C45.5918 143.567 46.294 144.758 47.4284 145.407L90.7513 170.571C91.2914 170.895 91.9397 171.058 92.5879 171.058C93.2361 171.058 93.8303 170.895 94.4245 170.571L137.477 145.407C138.612 144.758 139.26 143.567 139.26 142.269L139.368 97.1365C139.368 95.8378 138.666 94.6472 137.531 93.9979L94.2084 68.8343C93.6683 68.5096 93.02 68.3473 92.3718 68.3473Z" fill="#1A1835"/>
<path d="M339.182 33.3891L339.02 80.9022L293.699 107.419L293.807 59.9055L339.182 33.3891Z" fill="#069AD9"/>
<path d="M293.698 108.176C293.698 108.176 293.428 108.176 293.32 108.068C293.104 107.96 292.942 107.689 292.942 107.419L293.05 59.9055C293.05 59.9055 293.212 59.4184 293.428 59.2561L338.75 32.7397C338.75 32.7397 339.236 32.6315 339.452 32.7397C339.668 32.8479 339.83 33.1185 339.83 33.3891L339.722 80.9021C339.722 80.9021 339.56 81.3892 339.344 81.5515L294.022 108.068C294.022 108.068 293.806 108.176 293.644 108.176H293.698ZM294.562 60.3384L294.454 106.174L338.317 80.5233L338.425 34.6878L294.562 60.3384Z" fill="#1A1835"/>
<path d="M293.807 59.9054L293.699 107.418L248.053 80.9021L248.215 33.389L293.807 59.9054Z" fill="black"/>
<path d="M293.698 108.176C293.698 108.176 293.428 108.176 293.32 108.068L247.675 81.5516C247.675 81.5516 247.296 81.1728 247.296 80.9022L247.404 33.3891C247.404 33.3891 247.566 32.9021 247.783 32.7397C247.999 32.6315 248.269 32.6315 248.485 32.7397L294.13 59.2561C294.13 59.2561 294.509 59.6349 294.509 59.9055L294.401 107.419C294.401 107.419 294.238 107.906 294.022 108.068C293.914 108.122 293.806 108.176 293.644 108.176H293.698ZM248.809 80.5234L292.996 106.174L293.104 60.3384L248.917 34.6879L248.809 80.5234Z" fill="#1A1835"/>
<path d="M339.182 33.3892L293.806 59.9056L248.215 33.3892L293.536 6.8728L339.182 33.3892Z" fill="white"/>
<path d="M293.807 60.609C293.807 60.609 293.537 60.609 293.429 60.5008L247.783 33.9844C247.783 33.9844 247.405 33.6056 247.405 33.335C247.405 33.0644 247.567 32.848 247.783 32.6856L293.158 6.27747C293.158 6.27747 293.645 6.16924 293.915 6.27747L339.56 32.7939C339.56 32.7939 339.938 33.1727 339.938 33.4433C339.938 33.7138 339.776 33.9303 339.56 34.0926L294.239 60.609C294.239 60.609 294.023 60.7173 293.861 60.7173L293.807 60.609ZM249.62 33.3891L293.807 59.0397L337.67 33.3891L293.537 7.73858L249.674 33.3891H249.62Z" fill="#1A1835"/>
<path d="M293.537 6.87266L339.182 33.3891L339.074 80.9021L293.753 107.419L248.107 80.9021L248.215 33.3891L293.537 6.87266ZM293.537 3.24695C292.888 3.24695 292.294 3.40929 291.7 3.73398L246.378 30.2504C245.244 30.8998 244.596 32.0903 244.596 33.3891L244.488 80.9021C244.488 82.2009 245.19 83.3914 246.324 84.0408L291.97 110.557C292.51 110.882 293.158 111.044 293.807 111.044C294.455 111.044 295.049 110.882 295.643 110.557L340.965 84.0408C342.099 83.3914 342.747 82.2009 342.747 80.9021L342.855 33.3891C342.855 32.0903 342.153 30.8998 341.019 30.2504L295.373 3.73398C294.833 3.40929 294.185 3.24695 293.537 3.24695Z" fill="#1A1835"/>
<path d="M191.28 145.082L191.171 186.751L151.36 210.02L151.468 168.298L191.28 145.082Z" fill="#069AD9"/>
<path d="M151.36 210.778C151.36 210.778 151.09 210.778 150.982 210.67C150.766 210.562 150.604 210.291 150.604 210.021L150.712 168.298C150.712 168.298 150.874 167.811 151.09 167.648L190.847 144.379C190.847 144.379 191.333 144.271 191.55 144.379C191.766 144.487 191.928 144.758 191.928 145.028L191.82 186.751C191.82 186.751 191.658 187.238 191.441 187.4L151.684 210.67C151.684 210.67 151.468 210.778 151.306 210.778H151.36ZM152.224 168.731L152.116 208.776L190.469 186.372L190.577 146.327L152.224 168.731Z" fill="#1A1835"/>
<path d="M151.468 168.298L151.36 210.021L111.332 186.751L111.44 145.082L151.468 168.298Z" fill="black"/>
<path d="M151.36 210.778C151.36 210.778 151.09 210.778 150.982 210.67L110.954 187.4C110.954 187.4 110.576 187.022 110.576 186.751L110.684 145.028C110.684 145.028 110.846 144.541 111.062 144.379C111.278 144.271 111.548 144.271 111.764 144.379L151.792 167.648C151.792 167.648 152.17 168.027 152.17 168.298L152.062 210.021C152.062 210.021 151.9 210.508 151.684 210.67C151.576 210.724 151.468 210.778 151.306 210.778H151.36ZM112.034 186.372L150.603 208.776L150.711 168.731L112.142 146.327L112.034 186.372Z" fill="#1A1835"/>
<path d="M191.279 145.082L151.468 168.298L111.44 145.082L151.198 121.813L191.279 145.082Z" fill="white"/>
<path d="M151.468 169.055C151.468 169.055 151.197 169.055 151.089 168.947L111.062 145.678C111.062 145.678 110.684 145.299 110.684 145.028C110.684 144.758 110.846 144.541 111.062 144.379L150.819 121.109C150.819 121.109 151.306 121.001 151.576 121.109L191.603 144.379C191.603 144.379 191.981 144.758 191.981 145.028C191.981 145.299 191.819 145.515 191.603 145.678L151.846 168.947C151.846 168.947 151.63 169.055 151.468 169.055ZM112.844 145.082L151.468 167.486L189.821 145.082L151.251 122.679L112.898 145.082H112.844Z" fill="#1A1835"/>
<path d="M151.198 121.813L191.225 145.083L191.117 186.805L151.36 210.075L111.332 186.805L111.44 145.083L151.198 121.813ZM151.198 118.187C150.55 118.187 149.955 118.35 149.361 118.674L109.604 141.944C108.469 142.593 107.821 143.784 107.821 145.083L107.713 186.805C107.713 188.104 108.415 189.295 109.55 189.944L149.577 213.213C150.117 213.538 150.766 213.7 151.414 213.7C152.062 213.7 152.656 213.538 153.25 213.213L193.008 189.944C194.142 189.295 194.791 188.104 194.791 186.805L194.899 145.083C194.899 143.784 194.196 142.593 193.062 141.944L153.034 118.674C152.494 118.35 151.846 118.187 151.198 118.187Z" fill="#1A1835"/>
<path d="M198.032 20.5096L197.924 50.7599L169.078 67.6438L169.186 37.3935L198.032 20.5096Z" fill="#E43157" fill-opacity="0.4"/>
<path d="M169.078 68.3473C169.078 68.3473 168.807 68.3473 168.699 68.2391C168.483 68.1309 168.321 67.8603 168.321 67.5897L168.429 37.3394C168.429 37.3394 168.591 36.8524 168.807 36.69L197.653 19.8061C197.653 19.8061 198.139 19.6979 198.41 19.8061C198.626 19.9143 198.788 20.1849 198.788 20.4555L198.68 50.7058C198.68 50.7058 198.518 51.1929 198.302 51.3552L169.456 68.2391C169.456 68.2391 169.24 68.3473 169.078 68.3473ZM169.888 37.7723V66.3451L197.221 50.327V21.7542L169.888 37.7723Z" fill="#1A1835"/>
<path d="M169.186 37.3934L169.078 67.6437L140.07 50.7598L140.124 20.5095L169.186 37.3934Z" fill="#0B0D0E"/>
<path d="M169.078 68.3473C169.078 68.3473 168.808 68.3473 168.7 68.239L139.638 51.3551C139.638 51.3551 139.26 50.9763 139.26 50.7057L139.368 20.4554C139.368 20.4554 139.53 19.9684 139.746 19.806C139.962 19.6978 140.232 19.6978 140.448 19.806L169.51 36.6899C169.51 36.6899 169.888 37.0687 169.888 37.3393L169.78 67.5897C169.78 67.5897 169.618 68.0767 169.402 68.239C169.294 68.2932 169.186 68.3473 169.024 68.3473H169.078ZM140.772 50.3269L168.376 66.345V37.7722L140.88 21.7542V50.3269H140.772Z" fill="#1A1835"/>
<path d="M198.031 20.5096L169.185 37.3935L140.124 20.5096L168.969 3.62567L198.031 20.5096Z" fill="white"/>
<path d="M169.185 38.097C169.185 38.097 168.915 38.097 168.807 37.9888L139.745 21.1048C139.745 21.1048 139.367 20.726 139.367 20.4555C139.367 20.1849 139.529 19.9684 139.745 19.8061L168.591 3.0304C168.591 3.0304 169.077 2.92217 169.347 3.0304L198.409 19.9143C198.409 19.9143 198.788 20.2931 198.788 20.5637C198.788 20.8343 198.625 21.0507 198.409 21.2131L169.564 38.097C169.564 38.097 169.347 38.2052 169.185 38.2052V38.097ZM141.582 20.5096L169.185 36.5276L196.573 20.5096L168.969 4.49151L141.582 20.5096Z" fill="#1A1835"/>
<path d="M168.97 3.62571L198.032 20.5096L197.924 50.76L169.078 67.6439L140.016 50.76L140.124 20.5096L168.97 3.62571ZM168.97 0C168.322 0 167.728 0.162345 167.133 0.487036L138.288 17.3709C137.153 18.0203 136.505 19.2109 136.505 20.5096L136.397 50.76C136.397 52.0587 137.099 53.2493 138.234 53.8986L167.296 70.7826C167.836 71.1072 168.484 71.2696 169.132 71.2696C169.78 71.2696 170.375 71.1072 170.969 70.7826L199.815 53.8986C200.949 53.2493 201.597 52.0587 201.597 50.76L201.705 20.5096C201.705 19.2109 201.003 18.0203 199.869 17.3709L170.807 0.487036C170.267 0.162345 169.618 0 168.97 0Z" fill="#1A1835"/>
<path d="M329.458 108.826L329.35 139.076L300.504 155.906L300.612 125.709L329.458 108.826Z" fill="#00CBF3"/>
<path d="M300.504 156.663C300.504 156.663 300.234 156.663 300.126 156.555C299.91 156.447 299.748 156.176 299.748 155.906L299.856 125.655C299.856 125.655 300.018 125.168 300.234 125.006L329.08 108.122C329.08 108.122 329.566 108.014 329.782 108.122C329.998 108.23 330.16 108.501 330.16 108.771L330.052 139.022C330.052 139.022 329.89 139.509 329.674 139.671L300.828 156.555C300.828 156.555 300.612 156.663 300.45 156.663H300.504ZM301.315 126.088V154.661L328.648 138.643V110.07L301.315 126.088Z" fill="#1A1835"/>
<path d="M300.613 125.709L300.505 155.905L271.497 139.076L271.551 108.825L300.613 125.709Z" fill="#069AD9"/>
<path d="M300.505 156.663C300.505 156.663 300.235 156.663 300.127 156.555L271.065 139.671C271.065 139.671 270.687 139.292 270.687 139.022L270.795 108.771C270.795 108.771 270.957 108.284 271.173 108.122C271.389 108.014 271.659 108.014 271.875 108.122L300.937 125.006C300.937 125.006 301.315 125.385 301.315 125.655L301.207 155.906C301.207 155.906 301.045 156.393 300.829 156.555C300.721 156.609 300.613 156.663 300.451 156.663H300.505ZM272.199 138.643L299.802 154.661V126.088L272.307 110.07V138.643H272.199Z" fill="#1A1835"/>
<path d="M329.459 108.825L300.613 125.709L271.551 108.825L300.397 91.9415L329.459 108.825Z" fill="white"/>
<path d="M300.613 126.413C300.613 126.413 300.343 126.413 300.235 126.305L271.173 109.421C271.173 109.421 270.794 109.042 270.794 108.771C270.794 108.501 270.956 108.284 271.173 108.122L300.018 91.238C300.018 91.238 300.505 91.1298 300.775 91.238L329.837 108.122C329.837 108.122 330.215 108.501 330.215 108.771C330.215 109.042 330.053 109.258 329.837 109.421L300.991 126.305C300.991 126.305 300.775 126.413 300.613 126.413ZM273.009 108.825L300.613 124.844L328 108.825L300.397 92.8074L273.009 108.825Z" fill="#1A1835"/>
<path d="M300.397 91.9415L329.459 108.825L329.351 139.076L300.505 155.96L271.443 139.076L271.551 108.825L300.397 91.9415ZM300.397 88.3158C299.749 88.3158 299.154 88.4781 298.56 88.8028L269.714 105.687C268.58 106.336 267.932 107.527 267.932 108.825L267.824 139.076C267.824 140.375 268.526 141.565 269.66 142.214L298.722 159.098C299.262 159.423 299.911 159.585 300.559 159.585C301.207 159.585 301.801 159.423 302.396 159.098L331.241 142.214C332.376 141.565 333.024 140.375 333.024 139.076L333.132 108.825C333.132 107.527 332.43 106.336 331.295 105.687L302.234 88.8028C301.693 88.4781 301.045 88.3158 300.397 88.3158Z" fill="#1A1835"/>
<path d="M166.052 265.922L165.944 311.054L122.892 336.217L123 291.085L166.052 265.922Z" fill="#D5D6E0"/>
<path d="M122.892 336.921C122.892 336.921 122.622 336.921 122.514 336.813C122.298 336.704 122.136 336.434 122.136 336.163L122.244 291.031C122.244 291.031 122.406 290.544 122.622 290.382L165.675 265.218C165.675 265.218 166.161 265.11 166.377 265.218C166.593 265.326 166.755 265.597 166.755 265.868L166.647 311C166.647 311 166.485 311.487 166.269 311.649L123.216 336.813C123.216 336.813 123 336.921 122.838 336.921H122.892ZM123.756 291.518L123.648 334.973L165.242 310.675L165.351 267.221L123.756 291.518Z" fill="#1A1835"/>
<path d="M123 291.085L122.892 336.217L79.5688 311.054L79.7309 265.922L123 291.085Z" fill="#F2F3F8"/>
<path d="M122.892 336.921C122.892 336.921 122.622 336.921 122.514 336.813L79.1911 311.649C79.1911 311.649 78.813 311.27 78.813 311L78.921 265.868C78.921 265.868 79.0831 265.381 79.2992 265.218C79.5152 265.11 79.7853 265.11 80.0014 265.218L123.324 290.382C123.324 290.382 123.702 290.761 123.702 291.031L123.594 336.163C123.594 336.163 123.432 336.65 123.216 336.813C123.108 336.867 123 336.921 122.838 336.921H122.892ZM80.3255 310.621L122.19 334.919L122.298 291.464L80.4335 267.166L80.3255 310.621Z" fill="#1A1835"/>
<path d="M166.053 265.922L123 291.085L79.7314 265.922L122.73 240.758L166.053 265.922Z" fill="white"/>
<path d="M123 291.789C123 291.789 122.729 291.789 122.621 291.681L79.2985 266.517C79.2985 266.517 78.9204 266.138 78.9204 265.868C78.9204 265.597 79.0825 265.381 79.2985 265.218L122.351 240.055C122.351 240.055 122.837 239.947 123.108 240.055L166.43 265.218C166.43 265.218 166.809 265.597 166.809 265.868C166.809 266.138 166.646 266.355 166.43 266.517L123.378 291.681C123.378 291.681 123.162 291.789 123 291.789ZM81.1352 265.922L123 290.219L164.594 265.922L122.729 241.624L81.1352 265.922Z" fill="#1A1835"/>
<path d="M122.73 240.758L166.053 265.922L165.945 311.054L122.892 336.217L79.5694 311.054L79.6775 265.922L122.73 240.758ZM122.73 237.132C122.082 237.132 121.488 237.295 120.894 237.619L77.8408 262.783C76.7065 263.432 76.0582 264.623 76.0582 265.922L75.9502 311.054C75.9502 312.352 76.6524 313.543 77.7868 314.192L121.11 339.356C121.65 339.68 122.298 339.843 122.946 339.843C123.595 339.843 124.189 339.68 124.783 339.356L167.836 314.192C168.97 313.543 169.618 312.352 169.618 311.054L169.726 265.922C169.726 264.623 169.024 263.432 167.89 262.783L124.567 237.619C124.027 237.295 123.378 237.132 122.73 237.132Z" fill="#1A1835"/>
<path d="M293.59 271.333L293.536 301.583L264.69 318.467L264.744 288.217L293.59 271.333Z" fill="#D5D6E0"/>
<path d="M264.69 319.171C264.69 319.171 264.42 319.171 264.312 319.063C264.096 318.954 263.934 318.684 263.934 318.413L264.042 288.163C264.042 288.163 264.204 287.676 264.42 287.514L293.266 270.63C293.266 270.63 293.752 270.521 293.968 270.63C294.184 270.738 294.346 271.008 294.346 271.279L294.238 301.529C294.238 301.529 294.076 302.016 293.86 302.179L265.014 319.063C265.014 319.063 264.798 319.171 264.636 319.171H264.69ZM265.501 288.596V317.169L292.834 301.151V272.578L265.501 288.596Z" fill="#1A1835"/>
<path d="M264.745 288.217L264.691 318.467L235.629 301.583L235.737 271.333L264.745 288.217Z" fill="#F2F3F8"/>
<path d="M264.69 319.171C264.69 319.171 264.42 319.171 264.312 319.063L235.25 302.179C235.25 302.179 234.872 301.8 234.872 301.529L234.98 271.279C234.98 271.279 235.142 270.792 235.358 270.63C235.574 270.521 235.844 270.521 236.06 270.63L265.122 287.514C265.122 287.514 265.501 287.892 265.501 288.163L265.393 318.413C265.393 318.413 265.23 318.9 265.014 319.063C264.906 319.117 264.798 319.171 264.636 319.171H264.69ZM236.385 301.151L263.988 317.169V288.596L236.493 272.578V301.151H236.385Z" fill="#1A1835"/>
<path d="M293.59 271.333L264.744 288.217L235.736 271.333L264.582 254.503L293.59 271.333Z" fill="white"/>
<path d="M264.744 288.921C264.744 288.921 264.474 288.921 264.366 288.812L235.304 271.928C235.304 271.928 234.926 271.55 234.926 271.279C234.926 271.008 235.088 270.792 235.304 270.63L264.15 253.746C264.15 253.746 264.636 253.638 264.906 253.746L293.968 270.63C293.968 270.63 294.346 271.008 294.346 271.279C294.346 271.55 294.184 271.766 293.968 271.928L265.122 288.812C265.122 288.812 264.906 288.921 264.744 288.921ZM237.141 271.333L264.744 287.351L292.131 271.333L264.528 255.315L237.141 271.333Z" fill="#1A1835"/>
<path d="M264.583 254.503L293.645 271.387L293.537 301.638L264.691 318.521L235.629 301.638L235.737 271.387L264.583 254.503ZM264.583 250.878C263.935 250.878 263.34 251.04 262.746 251.365L233.9 268.249C232.766 268.898 232.118 270.088 232.118 271.387L232.01 301.638C232.01 302.936 232.712 304.127 233.846 304.776L262.908 321.66C263.449 321.985 264.097 322.147 264.745 322.147C265.393 322.147 265.987 321.985 266.582 321.66L295.427 304.776C296.562 304.127 297.21 302.936 297.21 301.638L297.318 271.387C297.318 270.088 296.616 268.898 295.481 268.249L266.42 251.365C265.879 251.04 265.231 250.878 264.583 250.878Z" fill="#1A1835"/>
<path d="M8.91276 286.594C9.99313 289.029 12.3699 291.031 14.8008 289.949C16.6914 289.137 17.0696 287.027 16.6374 285.024C13.3963 271.712 11.7757 258.183 13.9905 244.654C14.8548 239.513 18.2039 227.771 10.3172 226.364C4.0511 225.227 1.94438 234.589 1.35017 239.026C-0.648513 255.207 2.3225 271.874 8.96678 286.594H8.91276Z" fill="white"/>
<path d="M13.4506 290.977C11.2359 290.977 9.2372 289.137 8.26486 286.864C1.40451 271.604 -1.35043 254.557 0.594237 238.918C0.918348 236.158 2.16077 229.394 5.83403 226.688C7.18449 225.714 8.69701 225.335 10.4256 225.66C12.2622 225.985 13.7207 226.851 14.639 228.258C17.1779 231.937 15.8815 238.431 15.0712 242.76C14.9091 243.518 14.8011 244.222 14.6931 244.817C12.7484 256.668 13.5587 269.385 17.34 284.916C17.9882 287.568 17.1239 289.786 15.1252 290.652C14.585 290.869 13.9908 290.977 13.5047 290.977H13.4506ZM9.2372 226.959C8.31888 226.959 7.45459 227.229 6.69833 227.825C3.34918 230.26 2.32283 237.078 2.05274 239.081C0.162089 254.449 2.809 271.225 9.56131 286.269C10.5336 288.379 12.5323 290.111 14.531 289.245C16.0975 288.542 16.3136 286.702 15.9355 285.187C12.1542 269.493 11.2899 256.56 13.2886 244.492C13.3966 243.897 13.5047 243.193 13.6667 242.436C14.477 238.377 15.6114 232.208 13.4506 229.015C12.6944 227.933 11.614 227.283 10.1555 227.013C9.8314 227.013 9.56131 226.905 9.29121 226.905L9.2372 226.959Z" fill="#1A1835"/>
<path d="M8.42674 370.743C8.91291 369.714 9.61515 368.74 10.2634 367.766C11.1817 366.413 12.154 365.115 13.3424 363.978C15.071 362.301 17.5559 360.677 20.0407 360.623C22.0934 360.569 23.876 362.463 24.0381 364.465C24.1461 365.439 23.768 366.359 23.2278 367.117C22.4175 368.253 21.1211 369.336 19.8787 369.877C18.5282 370.472 17.3398 371.23 16.4755 372.474C15.3411 374.044 14.5848 375.613 12.6942 376.262C10.1013 377.128 7.34637 374.747 8.04861 371.771C8.15665 371.392 8.26469 371.067 8.42674 370.743Z" fill="#1A1835"/>
<path d="M11.5599 377.182C10.5335 377.182 9.50716 376.803 8.69688 376.046C7.45446 374.909 6.96829 373.286 7.34642 371.608C7.45446 371.23 7.56249 370.851 7.72455 370.418C8.10268 369.498 8.69688 368.686 9.23707 367.929C9.39912 367.712 9.50716 367.55 9.6152 367.333C10.7496 365.71 11.7219 364.465 12.8023 363.437C13.8827 362.409 16.7456 359.974 19.9867 359.865C19.9867 359.865 20.0408 359.865 20.0948 359.865C22.3636 359.865 24.5243 361.868 24.7404 364.357C24.9024 365.656 24.3082 366.792 23.768 367.496C22.8497 368.794 21.4452 369.931 20.0948 370.526C18.6903 371.121 17.718 371.879 16.9617 372.907C16.7456 373.178 16.5836 373.502 16.3675 373.773C15.4492 375.126 14.6389 376.371 12.8563 376.966C12.4242 377.128 11.938 377.182 11.5058 377.182H11.5599ZM9.02099 371.013C8.85894 371.338 8.80492 371.608 8.69688 371.933C8.42679 373.07 8.80492 374.206 9.6152 374.964C10.4255 375.667 11.4518 375.884 12.4242 375.559C13.7206 375.126 14.3688 374.152 15.2331 372.961C15.4492 372.691 15.6112 372.366 15.8813 372.041C16.7456 370.851 17.9881 369.877 19.6086 369.173C20.689 368.686 21.8774 367.712 22.6877 366.63C23.2279 365.926 23.4439 365.115 23.3899 364.465C23.2279 362.95 21.8774 361.272 20.2028 361.272C20.2028 361.272 20.2028 361.272 20.1488 361.272C17.3939 361.327 14.855 363.491 13.9367 364.411C12.9643 365.385 11.992 366.522 10.9657 368.091C10.8576 368.307 10.6956 368.47 10.5335 368.686C10.0473 369.39 9.50716 370.147 9.18305 370.905L9.02099 371.013Z" fill="#1A1835"/>
<path d="M30.6823 373.557C31.0064 372.853 31.4926 372.312 32.1948 371.933C33.2752 371.392 34.5176 371.338 35.76 371.446C36.8404 371.5 38.0828 371.446 39.1632 371.663C40.0815 371.825 40.8378 372.15 41.8101 372.041C43.2146 371.879 44.619 371.554 46.0775 371.446C46.8338 371.446 47.5901 371.392 48.2383 371.663C49.8588 372.312 50.291 374.91 49.6968 376.371C49.3187 377.236 48.5084 377.886 47.6441 378.319C46.3476 378.914 44.619 379.293 43.1605 379.185C41.648 379.076 40.1355 379.185 38.731 379.888C36.3002 381.024 33.4912 382.648 31.0604 380.375C30.4122 379.78 30.0881 378.86 30.0341 377.994C29.926 376.641 30.0341 374.909 30.6823 373.557Z" fill="#1A1835"/>
<path d="M33.8697 382.269C32.7893 382.269 31.655 381.944 30.6286 380.97C29.9264 380.321 29.4402 379.293 29.3862 378.102C29.3322 377.236 29.2241 375.018 30.0884 373.286C30.5206 372.366 31.1688 371.717 31.925 371.338C33.2215 370.688 34.68 370.688 35.8684 370.743C36.2465 370.743 36.6247 370.743 37.0028 370.743C37.759 370.743 38.5693 370.743 39.3256 370.905C39.5957 370.905 39.8658 371.013 40.0818 371.067C40.676 371.23 41.2162 371.338 41.7564 371.284C42.3506 371.23 42.9448 371.121 43.539 371.013C44.3493 370.905 45.2136 370.743 46.0779 370.688C46.9422 370.688 47.7525 370.634 48.5627 370.959C50.6154 371.825 51.1016 374.909 50.4534 376.587C49.9672 377.832 48.8869 378.535 48.0226 378.914C46.5641 379.617 44.7274 379.942 43.2149 379.834C41.5944 379.726 40.3519 379.888 39.1635 380.429L38.6233 380.7C37.2189 381.349 35.5983 382.161 33.9778 382.161L33.8697 382.269ZM31.3849 373.881C30.6826 375.288 30.7366 377.182 30.7907 377.94C30.8447 378.752 31.1148 379.401 31.6009 379.834C33.3295 381.457 35.2202 380.754 37.9211 379.455L38.5153 379.185C39.9198 378.535 41.4323 378.319 43.323 378.427C44.5654 378.535 46.1859 378.21 47.4284 377.669C48.2386 377.29 48.8328 376.749 49.1029 376.1C49.5351 375.018 49.211 372.853 48.0226 372.366C47.4824 372.15 46.8882 372.15 46.1859 372.204C45.4297 372.204 44.6194 372.366 43.8091 372.528C43.2149 372.637 42.5667 372.745 41.9185 372.799C41.1082 372.853 40.406 372.691 39.7577 372.528C39.5417 372.474 39.3256 372.42 39.0555 372.366C38.4073 372.258 37.651 372.204 36.9488 372.204C36.5166 372.204 36.1385 372.204 35.7604 372.204C34.788 372.15 33.5996 372.15 32.5733 372.637C32.0871 372.907 31.709 373.286 31.3849 373.881Z" fill="#1A1835"/>
<path d="M81.0819 213.105C81.0819 213.105 80.4877 212.997 80.2716 213.105C80.0015 213.214 77.0305 216.731 75.8421 218.3C75.2479 219.112 72.4389 221.98 72.1148 222.305C71.5746 222.846 71.3586 223.441 71.1965 224.199C71.0345 225.065 71.0885 227.716 71.1965 228.582C71.1965 228.799 71.8447 229.448 72.2229 229.448C72.2229 229.448 72.2769 229.448 72.3309 229.34C72.9791 229.827 73.5733 230.368 74.0055 230.963C74.3836 231.45 74.9778 231.288 75.626 231.396C77.6247 228.258 80.4337 226.472 81.7841 223.063C81.9462 222.63 82.1083 222.197 81.9462 221.764C81.8382 221.331 80.8658 220.249 80.4877 219.978C80.1096 219.707 78.9212 219.112 78.489 218.95C78.327 218.896 81.514 213.971 81.298 213.43C81.244 213.268 81.1359 213.105 80.9739 213.051L81.0819 213.105Z" fill="white"/>
<path d="M75.6262 232.208C75.6262 232.208 75.5181 232.208 75.4641 232.208C75.3021 232.208 75.14 232.208 74.9779 232.208C74.4918 232.208 73.8436 232.154 73.4114 231.504C73.0333 231.017 72.6011 230.639 72.115 230.26C71.4127 230.206 70.5484 229.34 70.4404 228.745C70.2783 227.771 70.2783 225.119 70.4404 224.145C70.5484 223.387 70.7645 222.575 71.5208 221.818C71.9529 221.385 74.6538 218.625 75.194 217.867C76.0583 216.677 79.3534 212.726 79.8396 212.456C80.3258 212.185 80.92 212.185 81.3521 212.456C81.6762 212.618 81.8923 212.889 82.0003 213.268C82.1624 213.809 81.8923 214.404 80.1097 217.489C79.8936 217.867 79.6235 218.3 79.4615 218.679C80.0017 218.95 80.5959 219.274 80.92 219.491C81.3521 219.816 82.4325 221.006 82.6486 221.655C82.8646 222.305 82.6486 222.954 82.4325 223.441C81.5682 225.552 80.1637 227.121 78.8133 228.636C77.8949 229.665 76.9766 230.693 76.1664 231.883C76.0043 232.1 75.7882 232.208 75.5721 232.208H75.6262ZM72.8712 228.961C73.5194 229.394 74.1136 229.935 74.5998 230.584C74.5998 230.639 74.7078 230.639 75.086 230.693C75.14 230.693 75.194 230.693 75.248 230.693C76.0583 229.556 76.9226 228.582 77.7329 227.608C79.0833 226.147 80.3258 224.74 81.082 222.846C81.1901 222.575 81.2981 222.251 81.2441 222.034C81.1361 221.764 80.3798 220.844 80.0557 220.627C79.7856 220.411 78.6512 219.816 78.219 219.653C78.003 219.599 77.8409 219.383 77.7869 219.22C77.6248 218.787 77.7869 218.679 78.8673 216.731C79.3534 215.919 80.1097 214.566 80.4338 213.863C79.7856 214.566 77.4088 217.326 76.3284 218.787C75.6802 219.707 72.7092 222.684 72.5471 222.9C72.169 223.279 71.9529 223.658 71.8449 224.415C71.7368 225.173 71.7368 227.554 71.8449 228.474C71.8989 228.528 72.0069 228.636 72.115 228.745H72.223C72.4391 228.745 72.6551 228.853 72.8172 229.015L72.8712 228.961Z" fill="#1A1835"/>
<path d="M7.50801 282.589C7.88614 280.587 27.2788 279.775 31.3842 280.208C35.9217 280.641 37.2722 272.415 38.4606 277.286C40.0812 283.996 40.9455 302.612 40.8914 309.43C40.8374 318.522 40.7294 327.667 40.6213 336.758C40.5133 347.04 39.487 356.348 39.4329 366.63C39.4329 369.444 39.2169 372.637 37.1642 374.368C35.5976 375.667 32.3025 375.396 30.844 373.557C29.1694 371.5 22.7412 305.426 22.7412 305.426H21.4448C21.4448 305.426 18.1497 368.416 17.3394 369.823C15.5028 373.015 9.88483 373.557 8.80446 370.364C7.50801 366.468 6.69774 286.485 7.50801 282.535V282.589Z" fill="#069AD9"/>
<path d="M34.6259 375.938C34.6259 375.938 34.1938 375.938 34.0317 375.938C32.5192 375.775 31.1687 375.126 30.3044 374.098C28.6299 372.041 23.3901 319.333 22.1476 306.454C21.3374 322.31 18.7985 368.848 17.9882 370.255C16.6918 372.528 13.8288 373.502 11.7221 373.286C9.93947 373.124 8.64302 372.15 8.10284 370.688C6.64434 366.359 6.10416 285.674 6.75238 282.481C6.86041 281.831 7.13051 280.587 17.9882 279.829C23.174 279.45 29.2241 279.288 31.4388 279.504C33.3295 279.667 34.5719 277.989 35.5983 276.691C36.3545 275.716 36.9487 274.905 37.813 275.067C38.6233 275.229 38.9474 276.149 39.1635 277.123C40.784 283.78 41.7023 302.125 41.5943 309.484L41.3242 336.812C41.3242 341.953 41.0001 346.986 40.73 351.802C40.4599 356.618 40.1898 361.597 40.1358 366.738C40.1358 369.985 39.7577 373.178 37.5969 375.018C36.8407 375.667 35.7603 375.992 34.5719 375.992L34.6259 375.938ZM21.4994 304.722H22.8499C23.228 304.722 23.4981 305.047 23.5521 305.426C26.091 331.455 30.3044 371.013 31.4928 373.232C32.033 373.881 33.0594 374.368 34.1938 374.476C35.2201 374.585 36.1925 374.368 36.7867 373.881C38.5693 372.366 38.7853 369.39 38.7853 366.738C38.7853 361.597 39.1095 356.564 39.3795 351.748C39.6496 346.932 39.9197 341.953 39.9738 336.812L40.2438 309.484C40.2979 302.99 39.4336 284.158 37.813 277.502C37.705 277.069 37.5969 276.799 37.5429 276.636C37.3268 276.853 37.0568 277.232 36.8407 277.556C35.7603 279.017 34.0317 281.236 31.3848 280.966C26.6852 280.479 9.83143 281.507 8.2649 282.86C7.29256 288.596 8.48097 366.9 9.56134 370.201C9.99349 371.446 11.2359 371.771 11.9382 371.825C13.5047 371.987 15.7735 371.23 16.7458 369.552C17.394 367.333 19.5007 330.048 20.7972 305.372C20.7972 304.993 21.1213 304.668 21.4994 304.668V304.722Z" fill="#1A1835"/>
<path d="M4.42925 238.864C4.59131 250.823 8.31859 262.675 7.07616 274.58C6.42794 280.641 4.75337 288.001 10.9115 291.734C13.4503 293.25 16.4754 293.845 19.3924 294.278C22.9576 294.873 26.5768 295.306 30.1421 294.927C32.897 294.657 37.7587 294.007 39.2172 291.302C40.1895 289.516 40.1355 286.377 40.2975 284.375C40.4596 282.156 39.7574 244.059 38.623 240.975C35.9761 233.94 27.117 229.935 20.5268 227.77C16.1513 226.309 11.8298 225.335 8.04849 228.745C5.18551 231.288 4.37524 235.184 4.42925 238.864Z" fill="white"/>
<path d="M27.5495 295.793C24.6865 295.793 21.8236 295.36 19.2847 294.981C16.2056 294.494 13.1806 293.899 10.5337 292.33C4.64567 288.812 5.40193 282.264 6.10417 276.474C6.15819 275.771 6.26623 275.121 6.32025 274.472C7.02249 267.599 6.05015 260.618 5.13184 253.854C4.4296 248.929 3.78138 243.897 3.67334 238.864H3.72736C3.67334 234.156 4.96978 230.53 7.61669 228.203C11.7221 224.524 16.3677 225.66 20.7972 227.121C30.9527 230.476 37.2188 235.022 39.3796 240.758C40.568 243.951 41.2702 282.318 41.1082 284.483C41.1082 284.862 41.1082 285.241 41.0541 285.674C40.9461 287.622 40.8381 290.111 39.9738 291.734C38.4612 294.548 34.0317 295.36 30.3045 295.739C29.3861 295.847 28.5218 295.847 27.6035 295.847L27.5495 295.793ZM14.0989 227.175C12.1542 227.175 10.3176 227.716 8.58902 229.286C6.26623 231.342 5.13184 234.589 5.18586 238.864C5.23988 243.789 5.94212 248.821 6.64436 253.692C7.61669 260.564 8.58902 267.653 7.83276 274.688C7.77875 275.338 7.67071 276.041 7.61669 276.691C6.96847 282.264 6.26623 288.055 11.344 291.085C13.7748 292.546 16.5838 293.087 19.5548 293.52C22.9579 294.061 26.5232 294.548 30.1424 294.17C32.0871 293.953 37.2728 293.466 38.6773 290.923C39.3796 289.57 39.4876 287.297 39.5956 285.511C39.5956 285.078 39.5956 284.7 39.6497 284.321C39.8657 281.074 39.0555 243.951 38.0291 241.245C36.0844 236.05 29.9803 231.613 20.3651 228.474C18.2583 227.77 16.1516 227.175 14.1529 227.175H14.0989Z" fill="#1A1835"/>
<path d="M31.3305 240.433C32.3028 237.457 35.2198 235.563 38.2448 236.375C41.4319 237.241 44.673 238.052 47.8601 238.918C51.9655 240.001 56.6111 241.083 60.6625 239.081C64.7679 237.024 67.4148 232.749 69.9537 229.069C70.926 227.608 73.2488 227.284 74.7613 228.095C75.6256 228.528 77.1922 230.476 76.3819 232.479C73.735 239.189 70.3318 246.17 63.5795 249.471C54.5584 253.908 44.9971 251.744 35.976 249.471C31.7626 248.443 30.4121 243.572 31.3845 240.379L31.3305 240.433Z" fill="white"/>
<path d="M51.7495 252.772C46.0776 252.772 40.5677 251.419 35.7601 250.228C33.8694 249.741 32.3569 248.605 31.3846 246.819C30.2502 244.817 29.9801 242.273 30.6283 240.217C31.7087 236.808 35.1659 234.805 38.407 235.671L48.0223 238.215C52.1817 239.351 56.5572 240.271 60.2845 238.377C63.8497 236.591 66.2265 233.128 68.5493 229.719C68.8194 229.34 69.0355 228.961 69.3055 228.582C70.602 226.742 73.3569 226.472 75.0315 227.338C76.2199 227.987 77.8945 230.26 76.9762 232.641C74.1672 239.676 70.656 246.657 63.7957 250.012C59.8523 251.96 55.7469 252.663 51.6955 252.663L51.7495 252.772ZM32.0328 240.65C31.4926 242.327 31.7627 244.492 32.627 246.115C33.1672 247.09 34.1935 248.334 36.0842 248.821C44.5651 250.932 54.1804 253.313 63.2015 248.821C69.6297 245.683 72.9788 238.972 75.6797 232.208C76.3279 230.584 75.0315 229.015 74.4373 228.69C73.3029 228.095 71.3582 228.312 70.548 229.448C70.2779 229.827 70.0618 230.206 69.7917 230.53C67.4689 233.885 64.876 237.728 60.9867 239.676C56.8273 241.732 52.1277 240.758 47.6981 239.568L38.0829 237.024C35.49 236.375 32.8971 237.89 32.0328 240.596V240.65Z" fill="#1A1835"/>
<path d="M10.9657 211.59C11.2898 207.586 12.9644 203.527 16.2595 201.254C19.7707 198.873 26.0368 198.548 29.7101 200.821C31.0065 201.633 31.5467 204.393 32.0869 205.746C33.0052 208.181 33.5454 210.724 33.7615 213.322C33.9776 216.19 33.7615 219.112 33.0052 221.872C32.6271 223.441 31.9789 225.065 30.5744 225.877C29.6021 226.418 28.4677 226.418 27.3333 226.364C27.3873 230.368 27.1712 230.963 26.9552 231.613C25.7667 234.968 15.1251 233.615 15.1791 229.61C15.1791 228.041 15.3412 226.796 15.6113 222.305C14.3688 221.385 13.2345 220.303 12.4242 219.004C11.0737 216.839 10.7496 214.134 10.9657 211.59Z" fill="white"/>
<path d="M22.4714 234.21C21.7152 234.21 20.9049 234.156 20.2027 233.994C17.4477 233.507 14.4767 232.1 14.4767 229.556C14.4767 228.42 14.5307 227.5 14.6928 225.389C14.6928 224.632 14.8008 223.712 14.9088 222.63C13.6124 221.656 12.5861 220.519 11.8298 219.329C10.5874 217.272 10.0472 214.566 10.2633 211.482C10.6414 206.774 12.6941 202.769 15.8812 200.605C19.7705 197.953 26.2527 197.791 30.1421 200.172C31.3845 200.929 31.9787 202.878 32.4649 204.393C32.5729 204.772 32.6809 205.15 32.789 205.475C33.7073 207.964 34.3015 210.562 34.4635 213.268C34.6796 216.244 34.4635 219.22 33.7073 222.034C33.3291 223.495 32.6809 225.498 30.9523 226.472C30.034 226.959 29.0617 227.067 28.0894 227.067C28.0894 230.476 27.8733 231.126 27.6572 231.829C27.063 233.561 24.8482 234.21 22.4714 234.21ZM11.7218 211.59C11.5057 214.35 11.9918 216.785 13.0722 218.571C13.7745 219.707 14.7468 220.736 16.0432 221.656C16.2593 221.818 16.3673 222.034 16.3673 222.305C16.2593 223.604 16.2053 224.632 16.1513 225.498C15.9892 227.554 15.9352 228.474 15.9352 229.556C15.9352 231.072 18.258 232.208 20.4728 232.587C23.2817 233.074 25.8746 232.533 26.3067 231.342C26.5228 230.747 26.7389 230.206 26.6309 226.309C26.6309 226.093 26.6849 225.931 26.8469 225.768C27.009 225.606 27.171 225.552 27.3871 225.552C28.3054 225.606 29.3858 225.606 30.1961 225.173C31.4385 224.47 31.9787 222.846 32.2488 221.656C32.951 218.95 33.1671 216.19 32.951 213.322C32.789 210.778 32.2488 208.289 31.3305 205.962C31.2224 205.637 31.1144 205.259 30.9523 204.826C30.5742 203.581 30.034 201.904 29.2778 201.416C25.9286 199.36 19.9866 199.522 16.5834 201.849C13.7745 203.743 11.9378 207.423 11.6137 211.644L11.7218 211.59Z" fill="#1A1835"/>
<path d="M30.3581 204.285C30.3581 204.285 30.8443 203.852 31.1684 203.581C31.9246 202.986 32.7349 202.391 32.951 201.416C33.113 200.605 32.7349 199.739 32.1947 199.144C31.6546 198.548 30.8983 198.115 30.142 197.737C28.1974 196.763 26.1987 195.951 24.0379 195.572C18.9602 194.706 13.5043 196.763 10.2632 200.713C10.2632 200.713 10.2092 200.821 10.1552 200.821C3.78101 208.722 7.02212 222.846 17.8798 224.524C19.1223 224.74 20.5267 224.686 21.6611 224.091C22.8495 223.441 23.6598 222.251 24.0379 220.952C24.5241 219.274 23.8219 218.138 23.4437 216.515C23.2277 215.595 23.2817 214.458 24.0379 213.863C26.0906 212.131 26.9549 215.811 28.5755 215.703C29.1157 215.703 29.4938 215.162 29.6559 214.675C29.7639 214.188 29.6559 213.646 29.6559 213.105C29.4398 211.644 29.2237 210.129 28.8996 208.722C28.6295 207.477 28.7376 206.936 29.3318 205.746C29.6559 205.096 29.98 204.609 30.4121 204.23L30.3581 204.285Z" fill="black"/>
<path d="M19.2307 225.389C18.7446 225.389 18.2584 225.389 17.7722 225.281C12.9646 224.578 9.18329 221.439 7.34666 216.623C5.18592 211.103 6.10423 204.772 9.61543 200.388L9.72347 200.28C13.1807 196.113 18.8526 194.003 24.2004 194.868C26.1451 195.193 28.1438 195.897 30.5206 197.087C31.2768 197.466 32.0871 197.899 32.7353 198.657C33.4916 199.522 33.8697 200.605 33.6537 201.579C33.3836 202.769 32.4653 203.473 31.709 204.068L31.601 204.176C31.2768 204.393 31.0608 204.609 30.8987 204.772C30.5206 205.15 30.2505 205.529 29.9264 206.124C29.3862 207.153 29.3322 207.586 29.5483 208.614C29.7643 209.588 29.9264 210.616 30.0884 211.59C30.1425 212.077 30.2505 212.564 30.3045 213.051C30.4126 213.592 30.5206 214.242 30.3045 214.945C30.0884 215.811 29.3862 216.46 28.5759 216.515C27.5496 216.569 26.8473 215.811 26.1991 215.162C25.2268 214.133 25.0107 214.025 24.4165 214.512C23.9303 214.945 23.9303 215.757 24.0924 216.46C24.2004 216.839 24.3085 217.218 24.4165 217.543C24.7406 218.625 25.1187 219.761 24.6866 221.277C24.2544 222.9 23.2281 224.199 21.9316 224.848C21.1754 225.281 20.2571 225.444 19.1767 225.444L19.2307 225.389ZM21.7156 196.113C17.5562 196.113 13.4507 198.007 10.8038 201.2L10.6958 201.308C7.50871 205.259 6.69844 211.049 8.6431 216.082C10.3177 220.357 13.6668 223.171 17.9343 223.82C19.3388 224.037 20.4191 223.928 21.2294 223.495C22.1477 223.008 22.904 222.034 23.2281 220.79C23.5522 219.707 23.2821 218.95 22.958 217.922C22.85 217.543 22.7419 217.164 22.6339 216.731C22.3098 215.324 22.6339 214.079 23.4442 213.322C25.1728 211.861 26.4692 213.268 27.2255 214.079C27.6576 214.512 28.0898 215.053 28.4139 214.999C28.5759 214.999 28.738 214.783 28.846 214.512C28.9541 214.133 28.846 213.701 28.792 213.268C28.738 212.781 28.6299 212.294 28.5759 211.807C28.4139 210.832 28.3058 209.858 28.0898 208.884C27.7656 207.531 27.8737 206.774 28.5759 205.421C28.9541 204.717 29.3322 204.176 29.8183 203.689C29.8183 203.689 30.3045 203.202 30.6826 202.932L30.7907 202.823C31.4389 202.336 32.0871 201.849 32.1952 201.2C32.3032 200.713 32.0871 200.064 31.601 199.577C31.1148 199.035 30.4126 198.657 29.7643 198.332C27.5496 197.195 25.6589 196.546 23.8763 196.221C23.1201 196.113 22.4178 196.059 21.6616 196.059L21.7156 196.113Z" fill="#1A1835"/>
</g>
<defs>
<clipPath id="clip0_61_218">
<rect width="379.75" height="382.269" fill="white"/>
</clipPath>
</defs>
</svg>
