<svg width="41" height="32" viewBox="0 0 41 32" fill="none" xmlns="http://www.w3.org/2000/svg">
<path d="M3.8572 28.05C0.239657 24.5187 0.239657 18.7937 3.8572 15.2687L11.0508 8.19375C14.6127 4.71937 20.532 4.71937 24.0939 8.19375C27.297 11.3187 27.7711 16.3 25.1381 19.8937L25.0677 19.9937C24.4078 20.8875 23.1266 21.1 22.2105 20.4562C21.288 19.8125 21.0702 18.5625 21.73 17.6688L21.8005 17.5687C23.2675 15.5625 23.0369 12.8187 21.2495 11.075C19.238 9.1125 15.9644 9.1125 13.9464 11.075L6.75859 18.0938C4.73998 20.0062 4.73998 23.25 6.75859 25.2188C8.53953 26.9625 11.3583 27.1875 13.4083 25.7563L13.5108 25.6313C14.4333 25.0438 15.7145 25.25 16.368 26.15C17.0278 27.05 16.8164 28.3 15.8939 28.9438L15.7914 29.0125C12.0502 31.5813 7.05969 31.1688 3.8572 28.05Z" fill="white"/>
<path opacity="0.4" d="M37.1436 3.9525C40.7632 7.48125 40.7632 13.2063 37.1436 16.7313L29.9494 23.75C26.3299 27.2813 20.4682 27.2813 16.8486 23.75C13.6455 20.625 13.2291 15.7 15.8621 12.1063L15.9325 12.0063C16.5347 11.1125 17.816 10.9 18.7897 11.5438C19.7122 12.1313 19.93 13.3813 19.2702 14.3313L19.1997 14.4313C17.7327 16.3813 17.9633 19.1813 19.7507 20.925C21.7622 22.8875 25.0358 22.8875 27.0538 20.925L34.2416 13.9063C36.2596 11.9375 36.2596 8.69375 34.2416 6.78125C32.4607 5.03938 29.6419 4.81188 27.5919 6.24375L27.4894 6.3125C26.5669 6.95625 25.2857 6.69375 24.6322 5.84875C23.9724 4.95 24.1838 3.70063 25.1063 3.05875L25.2088 2.98875C28.8924 0.420689 33.9405 0.828126 37.1436 3.9525Z" fill="white"/>
</svg>
