<?xml version="1.0" encoding="UTF-8" standalone="no"?>
<svg
   xml:space="preserve"
   width="2000"
   height="1500"
   data-id="lg_4LYRLpBYHkfaluNMfk"
   data-version="1"
   viewBox="0 0 2000 1500"
   version="1.1"
   id="svg6"
   sodipodi:docname="logo.svg"
   inkscape:version="1.4 (e7c3feb100, 2024-10-09)"
   xmlns:inkscape="http://www.inkscape.org/namespaces/inkscape"
   xmlns:sodipodi="http://sodipodi.sourceforge.net/DTD/sodipodi-0.dtd"
   xmlns="http://www.w3.org/2000/svg"
   xmlns:svg="http://www.w3.org/2000/svg"><defs
     id="defs6" /><sodipodi:namedview
     id="namedview6"
     pagecolor="#ffffff"
     bordercolor="#000000"
     borderopacity="0.25"
     inkscape:showpageshadow="2"
     inkscape:pageopacity="0.0"
     inkscape:pagecheckerboard="0"
     inkscape:deskcolor="#d1d1d1"
     inkscape:zoom="0.38035861"
     inkscape:cx="930.70064"
     inkscape:cy="979.33895"
     inkscape:window-width="1900"
     inkscape:window-height="1028"
     inkscape:window-x="0"
     inkscape:window-y="0"
     inkscape:window-maximized="1"
     inkscape:current-layer="g5" /><g
     transform="matrix(5.9935662,0,0,5.9935662,-4057.8588,-3863.9824)"
     id="g5"><path
       fill="#0074d9"
       d="m 942.99,735.259 c -0.5,10.49 -6.26,19.214 -14.086,21.878 a 25.97,25.97 0 0 0 9.191,-20.58 q 0,-4.761 -1.332,-8.89 c -11.322,-30.303 -40.493,-53.613 -88.81,-53.613 -51.483,0 -93.307,39.76 -94.307,82.85 a 73.3,73.3 0 0 0 -12.853,-1.132 c -35.132,0.033 -63.603,24.475 -63.603,54.545 0,30.137 20.446,54.08 55.577,54.08 l 205.062,0.432 h 2.464 v -0.033 c 44.988,-0.666 69.297,-20.446 69.297,-61.14 0,-36.296 -29.404,-65.9 -66.6,-68.364"
       id="path2" /><g
       id="g6"
       transform="matrix(0.85519383,0,0,0.85519383,132.65476,118.19826)"><path
         fill="#ffffff"
         d="m 870.46,735.127 c 23.8,0 44.884,13.328 53.648,19.74 -0.42,18.97 -4.158,56.42 -18.62,72.968 -10.22,11.69 -27.692,18.592 -35.028,21.112 -7.35,-2.52 -24.822,-9.422 -35.028,-21.098 -14.476,-16.562 -18.2,-54.012 -18.62,-72.968 8.792,-6.44 29.848,-19.754 53.648,-19.754 m 0,-12.782 c -36.694,0 -66.444,26.348 -66.444,26.348 0,0 -1.288,61.152 21.784,87.556 15.904,18.2 44.66,26.096 44.66,26.096 0,0 28.756,-7.896 44.66,-26.096 23.072,-26.404 21.784,-87.556 21.784,-87.556 0,0 -29.75,-26.348 -66.444,-26.348"
         id="path3" /><path
         fill="#ffffff"
         d="m 943.566,730.213 c -6.09,-4.32 -14.5,-2.736 -18.85,3.312 l -52.055,73.872 -30.74,-30.528 c -5.307,-5.197 -13.834,-5.197 -19.14,0 a 13.47,13.47 0 0 0 0,19.008 l 42.05,41.76 a 13.53,13.53 0 0 0 9.57,3.888 h 1.45 c 3.77,-0.288 7.394,-2.304 9.86,-5.616 l 61.335,-86.976 c 4.2,-6.133 2.648,-14.48 -3.48,-18.72"
         id="path4" /></g></g></svg>
