<svg width="41" height="32" viewBox="0 0 41 32" fill="none" xmlns="http://www.w3.org/2000/svg">
<g clip-path="url(#clip0_62_411)">
<path d="M23.793 26.2875C23.632 26.4445 23.5222 26.6447 23.4776 26.8627L22.5628 31.3258C22.4822 31.7189 22.8378 32.0658 23.2412 31.9877L27.8165 31.0946C28.0396 31.0509 28.2446 30.9442 28.4056 30.7869L36.4326 22.9557L31.8195 18.4551L23.793 26.2875ZM40.3275 15.9813L38.9758 14.6619C38.0751 13.7831 36.6151 13.7831 35.7144 14.6619L33.2717 17.0456L37.8848 21.5463L40.3275 19.1631C41.2244 18.2813 41.2244 16.8563 40.3275 15.9813Z" fill="white"/>
<path opacity="0.4" d="M14.2923 16C18.8216 16 22.4923 12.4181 22.4923 8C22.4923 3.58187 18.8216 0 14.2923 0C9.82078 0 6.15 3.58187 6.15 8C6.15 12.4181 9.82078 16 14.2923 16ZM17.598 19H11.102C4.97189 19 0 23.8563 0 29.8375C0 31.0312 0.99425 32 2.22041 32H20.5679C20.4881 31.6543 20.4763 31.2931 20.5498 30.935L21.4646 26.4719C21.589 25.8642 21.8923 25.3119 22.341 24.8744L25.2699 22.0169C23.2739 20.15 20.5769 19 17.598 19Z" fill="white"/>
</g>
<defs>
<clipPath id="clip0_62_411">
<rect width="41" height="32" fill="white"/>
</clipPath>
</defs>
</svg>
