<svg width="25" height="9" viewBox="0 0 25 9" fill="none" xmlns="http://www.w3.org/2000/svg">
<path fill-rule="evenodd" clip-rule="evenodd" d="M12.6708 2.96264C12.6568 4.14969 13.653 4.81213 14.4034 5.20599C15.1744 5.61014 15.4333 5.86928 15.4304 6.23061C15.4245 6.78373 14.8153 7.02777 14.2452 7.03727C13.2505 7.05389 12.6723 6.74804 12.2125 6.51667L11.8542 8.32255C12.3155 8.55161 13.1696 8.75131 14.0554 8.76002C16.1345 8.76002 17.4947 7.65458 17.5021 5.9406C17.5102 3.7654 14.7087 3.64493 14.7278 2.67262C14.7344 2.37785 14.9956 2.06323 15.568 1.9832C15.8512 1.94283 16.6332 1.91189 17.5198 2.35166L17.8677 0.604432C17.391 0.417398 16.7782 0.238281 16.0153 0.238281C14.0583 0.238281 12.6819 1.35877 12.6708 2.96264ZM21.2115 0.388833C20.8319 0.388833 20.5118 0.627391 20.3691 0.993475L17.3991 8.63164H19.4767L19.8901 7.40098H22.429L22.6689 8.63164H24.5L22.9021 0.388833H21.2115ZM21.5021 2.61556L22.1016 5.71075H20.4596L21.5021 2.61556ZM10.1518 0.388833L8.51418 8.63164H10.4939L12.1308 0.388833H10.1518ZM7.22303 0.388833L5.16233 5.99918L4.32878 1.2288C4.23097 0.696333 3.84472 0.388833 3.41579 0.388833H0.0471011L0 0.628182C0.691574 0.789816 1.47729 1.05054 1.95326 1.32948C2.24457 1.49982 2.32775 1.64879 2.42336 2.05373L4.00214 8.63164H6.0945L9.3021 0.388833H7.22303Z" fill="#4318FF"/>
</svg>
